%TF.GenerationSoftware,KiCad,Pcbnew,8.0.3-8.0.3-0~ubuntu22.04.1*%
%TF.CreationDate,2024-07-11T11:22:04+05:30*%
%TF.ProjectId,DUT_Interface_board_v0.2,4455545f-496e-4746-9572-666163655f62,rev?*%
%TF.SameCoordinates,Original*%
%TF.FileFunction,Copper,L4,Bot*%
%TF.FilePolarity,Positive*%
%FSLAX46Y46*%
G04 Gerber Fmt 4.6, Leading zero omitted, Abs format (unit mm)*
G04 Created by KiCad (PCBNEW 8.0.3-8.0.3-0~ubuntu22.04.1) date 2024-07-11 11:22:04*
%MOMM*%
%LPD*%
G01*
G04 APERTURE LIST*
G04 Aperture macros list*
%AMRoundRect*
0 Rectangle with rounded corners*
0 $1 Rounding radius*
0 $2 $3 $4 $5 $6 $7 $8 $9 X,Y pos of 4 corners*
0 Add a 4 corners polygon primitive as box body*
4,1,4,$2,$3,$4,$5,$6,$7,$8,$9,$2,$3,0*
0 Add four circle primitives for the rounded corners*
1,1,$1+$1,$2,$3*
1,1,$1+$1,$4,$5*
1,1,$1+$1,$6,$7*
1,1,$1+$1,$8,$9*
0 Add four rect primitives between the rounded corners*
20,1,$1+$1,$2,$3,$4,$5,0*
20,1,$1+$1,$4,$5,$6,$7,0*
20,1,$1+$1,$6,$7,$8,$9,0*
20,1,$1+$1,$8,$9,$2,$3,0*%
%AMFreePoly0*
4,1,19,0.500000,-0.750000,0.000000,-0.750000,0.000000,-0.744911,-0.071157,-0.744911,-0.207708,-0.704816,-0.327430,-0.627875,-0.420627,-0.520320,-0.479746,-0.390866,-0.500000,-0.250000,-0.500000,0.250000,-0.479746,0.390866,-0.420627,0.520320,-0.327430,0.627875,-0.207708,0.704816,-0.071157,0.744911,0.000000,0.744911,0.000000,0.750000,0.500000,0.750000,0.500000,-0.750000,0.500000,-0.750000,
$1*%
%AMFreePoly1*
4,1,19,0.000000,0.744911,0.071157,0.744911,0.207708,0.704816,0.327430,0.627875,0.420627,0.520320,0.479746,0.390866,0.500000,0.250000,0.500000,-0.250000,0.479746,-0.390866,0.420627,-0.520320,0.327430,-0.627875,0.207708,-0.704816,0.071157,-0.744911,0.000000,-0.744911,0.000000,-0.750000,-0.500000,-0.750000,-0.500000,0.750000,0.000000,0.750000,0.000000,0.744911,0.000000,0.744911,
$1*%
G04 Aperture macros list end*
%TA.AperFunction,EtchedComponent*%
%ADD10C,0.000000*%
%TD*%
%TA.AperFunction,ComponentPad*%
%ADD11RoundRect,0.250000X-0.600000X-0.725000X0.600000X-0.725000X0.600000X0.725000X-0.600000X0.725000X0*%
%TD*%
%TA.AperFunction,ComponentPad*%
%ADD12O,1.700000X1.950000*%
%TD*%
%TA.AperFunction,ComponentPad*%
%ADD13C,1.400000*%
%TD*%
%TA.AperFunction,ComponentPad*%
%ADD14C,5.600000*%
%TD*%
%TA.AperFunction,ComponentPad*%
%ADD15R,1.700000X1.700000*%
%TD*%
%TA.AperFunction,ComponentPad*%
%ADD16O,1.700000X1.700000*%
%TD*%
%TA.AperFunction,ComponentPad*%
%ADD17R,1.800000X1.800000*%
%TD*%
%TA.AperFunction,ComponentPad*%
%ADD18C,1.800000*%
%TD*%
%TA.AperFunction,ComponentPad*%
%ADD19RoundRect,0.250000X-0.725000X0.600000X-0.725000X-0.600000X0.725000X-0.600000X0.725000X0.600000X0*%
%TD*%
%TA.AperFunction,ComponentPad*%
%ADD20O,1.950000X1.700000*%
%TD*%
%TA.AperFunction,ComponentPad*%
%ADD21C,3.000000*%
%TD*%
%TA.AperFunction,ComponentPad*%
%ADD22RoundRect,0.250000X0.725000X-0.600000X0.725000X0.600000X-0.725000X0.600000X-0.725000X-0.600000X0*%
%TD*%
%TA.AperFunction,ComponentPad*%
%ADD23R,2.000000X2.000000*%
%TD*%
%TA.AperFunction,ComponentPad*%
%ADD24C,2.000000*%
%TD*%
%TA.AperFunction,SMDPad,CuDef*%
%ADD25FreePoly0,270.000000*%
%TD*%
%TA.AperFunction,SMDPad,CuDef*%
%ADD26FreePoly1,270.000000*%
%TD*%
%TA.AperFunction,SMDPad,CuDef*%
%ADD27R,1.000000X3.150000*%
%TD*%
%TA.AperFunction,SMDPad,CuDef*%
%ADD28FreePoly0,90.000000*%
%TD*%
%TA.AperFunction,SMDPad,CuDef*%
%ADD29FreePoly1,90.000000*%
%TD*%
%TA.AperFunction,SMDPad,CuDef*%
%ADD30FreePoly0,180.000000*%
%TD*%
%TA.AperFunction,SMDPad,CuDef*%
%ADD31FreePoly1,180.000000*%
%TD*%
G04 APERTURE END LIST*
D10*
%TA.AperFunction,EtchedComponent*%
%TO.C,JP51*%
G36*
X129848544Y-131760800D02*
G01*
X129248544Y-131760800D01*
X129248544Y-131260800D01*
X129848544Y-131260800D01*
X129848544Y-131760800D01*
G37*
%TD.AperFunction*%
%TA.AperFunction,EtchedComponent*%
%TO.C,JP75*%
G36*
X168994448Y-131704200D02*
G01*
X168394448Y-131704200D01*
X168394448Y-131204200D01*
X168994448Y-131204200D01*
X168994448Y-131704200D01*
G37*
%TD.AperFunction*%
%TA.AperFunction,EtchedComponent*%
%TO.C,JP60*%
G36*
X150282400Y-47102600D02*
G01*
X149682400Y-47102600D01*
X149682400Y-46602600D01*
X150282400Y-46602600D01*
X150282400Y-47102600D01*
G37*
%TD.AperFunction*%
%TA.AperFunction,EtchedComponent*%
%TO.C,JP58*%
G36*
X157382400Y-47102600D02*
G01*
X156782400Y-47102600D01*
X156782400Y-46602600D01*
X157382400Y-46602600D01*
X157382400Y-47102600D01*
G37*
%TD.AperFunction*%
%TA.AperFunction,EtchedComponent*%
%TO.C,JP66*%
G36*
X129333400Y-47331200D02*
G01*
X128733400Y-47331200D01*
X128733400Y-46831200D01*
X129333400Y-46831200D01*
X129333400Y-47331200D01*
G37*
%TD.AperFunction*%
%TA.AperFunction,EtchedComponent*%
%TO.C,JP68*%
G36*
X122233400Y-47331200D02*
G01*
X121633400Y-47331200D01*
X121633400Y-46831200D01*
X122233400Y-46831200D01*
X122233400Y-47331200D01*
G37*
%TD.AperFunction*%
%TA.AperFunction,EtchedComponent*%
%TO.C,JP67*%
G36*
X125783400Y-47331200D02*
G01*
X125183400Y-47331200D01*
X125183400Y-46831200D01*
X125783400Y-46831200D01*
X125783400Y-47331200D01*
G37*
%TD.AperFunction*%
%TA.AperFunction,EtchedComponent*%
%TO.C,JP80*%
G36*
X155013768Y-131714600D02*
G01*
X154413768Y-131714600D01*
X154413768Y-131214600D01*
X155013768Y-131214600D01*
X155013768Y-131714600D01*
G37*
%TD.AperFunction*%
%TA.AperFunction,EtchedComponent*%
%TO.C,JP56*%
G36*
X164482400Y-47102600D02*
G01*
X163882400Y-47102600D01*
X163882400Y-46602600D01*
X164482400Y-46602600D01*
X164482400Y-47102600D01*
G37*
%TD.AperFunction*%
%TA.AperFunction,EtchedComponent*%
%TO.C,JP65*%
G36*
X132532400Y-47102600D02*
G01*
X131932400Y-47102600D01*
X131932400Y-46602600D01*
X132532400Y-46602600D01*
X132532400Y-47102600D01*
G37*
%TD.AperFunction*%
%TA.AperFunction,EtchedComponent*%
%TO.C,JP55*%
G36*
X118664000Y-131760800D02*
G01*
X118064000Y-131760800D01*
X118064000Y-131260800D01*
X118664000Y-131260800D01*
X118664000Y-131760800D01*
G37*
%TD.AperFunction*%
%TA.AperFunction,EtchedComponent*%
%TO.C,JP49*%
G36*
X135440816Y-131760800D02*
G01*
X134840816Y-131760800D01*
X134840816Y-131260800D01*
X135440816Y-131260800D01*
X135440816Y-131760800D01*
G37*
%TD.AperFunction*%
%TA.AperFunction,EtchedComponent*%
%TO.C,JP16*%
G36*
X182353000Y-142311400D02*
G01*
X181853000Y-142311400D01*
X181853000Y-141711400D01*
X182353000Y-141711400D01*
X182353000Y-142311400D01*
G37*
%TD.AperFunction*%
%TA.AperFunction,EtchedComponent*%
%TO.C,JP78*%
G36*
X160606040Y-131714600D02*
G01*
X160006040Y-131714600D01*
X160006040Y-131214600D01*
X160606040Y-131214600D01*
X160606040Y-131714600D01*
G37*
%TD.AperFunction*%
%TA.AperFunction,EtchedComponent*%
%TO.C,JP15*%
G36*
X146908800Y-148855000D02*
G01*
X146308800Y-148855000D01*
X146308800Y-148355000D01*
X146908800Y-148355000D01*
X146908800Y-148855000D01*
G37*
%TD.AperFunction*%
%TA.AperFunction,EtchedComponent*%
%TO.C,JP57*%
G36*
X160932400Y-47102600D02*
G01*
X160332400Y-47102600D01*
X160332400Y-46602600D01*
X160932400Y-46602600D01*
X160932400Y-47102600D01*
G37*
%TD.AperFunction*%
%TA.AperFunction,EtchedComponent*%
%TO.C,JP71*%
G36*
X182975128Y-131699600D02*
G01*
X182375128Y-131699600D01*
X182375128Y-131199600D01*
X182975128Y-131199600D01*
X182975128Y-131699600D01*
G37*
%TD.AperFunction*%
%TA.AperFunction,EtchedComponent*%
%TO.C,JP87*%
G36*
X146625360Y-131714600D02*
G01*
X146025360Y-131714600D01*
X146025360Y-131214600D01*
X146625360Y-131214600D01*
X146625360Y-131714600D01*
G37*
%TD.AperFunction*%
%TA.AperFunction,EtchedComponent*%
%TO.C,JP86*%
G36*
X149421496Y-131714600D02*
G01*
X148821496Y-131714600D01*
X148821496Y-131214600D01*
X149421496Y-131214600D01*
X149421496Y-131714600D01*
G37*
%TD.AperFunction*%
%TA.AperFunction,EtchedComponent*%
%TO.C,JP54*%
G36*
X121460136Y-131760800D02*
G01*
X120860136Y-131760800D01*
X120860136Y-131260800D01*
X121460136Y-131260800D01*
X121460136Y-131760800D01*
G37*
%TD.AperFunction*%
%TA.AperFunction,EtchedComponent*%
%TO.C,JP72*%
G36*
X180178992Y-131689200D02*
G01*
X179578992Y-131689200D01*
X179578992Y-131189200D01*
X180178992Y-131189200D01*
X180178992Y-131689200D01*
G37*
%TD.AperFunction*%
%TA.AperFunction,EtchedComponent*%
%TO.C,JP73*%
G36*
X177382856Y-131689200D02*
G01*
X176782856Y-131689200D01*
X176782856Y-131189200D01*
X177382856Y-131189200D01*
X177382856Y-131689200D01*
G37*
%TD.AperFunction*%
%TA.AperFunction,EtchedComponent*%
%TO.C,JP59*%
G36*
X153832400Y-47102600D02*
G01*
X153232400Y-47102600D01*
X153232400Y-46602600D01*
X153832400Y-46602600D01*
X153832400Y-47102600D01*
G37*
%TD.AperFunction*%
%TA.AperFunction,EtchedComponent*%
%TO.C,JP61*%
G36*
X146732400Y-47102600D02*
G01*
X146132400Y-47102600D01*
X146132400Y-46602600D01*
X146732400Y-46602600D01*
X146732400Y-47102600D01*
G37*
%TD.AperFunction*%
%TA.AperFunction,EtchedComponent*%
%TO.C,JP85*%
G36*
X143829224Y-131811600D02*
G01*
X143229224Y-131811600D01*
X143229224Y-131311600D01*
X143829224Y-131311600D01*
X143829224Y-131811600D01*
G37*
%TD.AperFunction*%
%TA.AperFunction,EtchedComponent*%
%TO.C,JP70*%
G36*
X115133400Y-47331200D02*
G01*
X114533400Y-47331200D01*
X114533400Y-46831200D01*
X115133400Y-46831200D01*
X115133400Y-47331200D01*
G37*
%TD.AperFunction*%
%TA.AperFunction,EtchedComponent*%
%TO.C,JP62*%
G36*
X143182400Y-47102600D02*
G01*
X142582400Y-47102600D01*
X142582400Y-46602600D01*
X143182400Y-46602600D01*
X143182400Y-47102600D01*
G37*
%TD.AperFunction*%
%TA.AperFunction,EtchedComponent*%
%TO.C,JP50*%
G36*
X132644680Y-131760800D02*
G01*
X132044680Y-131760800D01*
X132044680Y-131260800D01*
X132644680Y-131260800D01*
X132644680Y-131760800D01*
G37*
%TD.AperFunction*%
%TA.AperFunction,EtchedComponent*%
%TO.C,JP53*%
G36*
X124256272Y-131760800D02*
G01*
X123656272Y-131760800D01*
X123656272Y-131260800D01*
X124256272Y-131260800D01*
X124256272Y-131760800D01*
G37*
%TD.AperFunction*%
%TA.AperFunction,EtchedComponent*%
%TO.C,JP63*%
G36*
X139632400Y-47102600D02*
G01*
X139032400Y-47102600D01*
X139032400Y-46602600D01*
X139632400Y-46602600D01*
X139632400Y-47102600D01*
G37*
%TD.AperFunction*%
%TA.AperFunction,EtchedComponent*%
%TO.C,JP52*%
G36*
X127052408Y-131760800D02*
G01*
X126452408Y-131760800D01*
X126452408Y-131260800D01*
X127052408Y-131260800D01*
X127052408Y-131760800D01*
G37*
%TD.AperFunction*%
%TA.AperFunction,EtchedComponent*%
%TO.C,JP14*%
G36*
X171790584Y-131663800D02*
G01*
X171190584Y-131663800D01*
X171190584Y-131163800D01*
X171790584Y-131163800D01*
X171790584Y-131663800D01*
G37*
%TD.AperFunction*%
%TA.AperFunction,EtchedComponent*%
%TO.C,JP77*%
G36*
X163402176Y-131714600D02*
G01*
X162802176Y-131714600D01*
X162802176Y-131214600D01*
X163402176Y-131214600D01*
X163402176Y-131714600D01*
G37*
%TD.AperFunction*%
%TA.AperFunction,EtchedComponent*%
%TO.C,JP74*%
G36*
X174586720Y-131689200D02*
G01*
X173986720Y-131689200D01*
X173986720Y-131189200D01*
X174586720Y-131189200D01*
X174586720Y-131689200D01*
G37*
%TD.AperFunction*%
%TA.AperFunction,EtchedComponent*%
%TO.C,JP81*%
G36*
X152217632Y-131714600D02*
G01*
X151617632Y-131714600D01*
X151617632Y-131214600D01*
X152217632Y-131214600D01*
X152217632Y-131714600D01*
G37*
%TD.AperFunction*%
%TA.AperFunction,EtchedComponent*%
%TO.C,JP76*%
G36*
X166198312Y-131704200D02*
G01*
X165598312Y-131704200D01*
X165598312Y-131204200D01*
X166198312Y-131204200D01*
X166198312Y-131704200D01*
G37*
%TD.AperFunction*%
%TA.AperFunction,EtchedComponent*%
%TO.C,JP69*%
G36*
X118683400Y-47331200D02*
G01*
X118083400Y-47331200D01*
X118083400Y-46831200D01*
X118683400Y-46831200D01*
X118683400Y-47331200D01*
G37*
%TD.AperFunction*%
%TA.AperFunction,EtchedComponent*%
%TO.C,JP48*%
G36*
X138236952Y-131760800D02*
G01*
X137636952Y-131760800D01*
X137636952Y-131260800D01*
X138236952Y-131260800D01*
X138236952Y-131760800D01*
G37*
%TD.AperFunction*%
%TA.AperFunction,EtchedComponent*%
%TO.C,JP79*%
G36*
X157809904Y-131714600D02*
G01*
X157209904Y-131714600D01*
X157209904Y-131214600D01*
X157809904Y-131214600D01*
X157809904Y-131714600D01*
G37*
%TD.AperFunction*%
%TA.AperFunction,EtchedComponent*%
%TO.C,JP47*%
G36*
X141033088Y-131760800D02*
G01*
X140433088Y-131760800D01*
X140433088Y-131260800D01*
X141033088Y-131260800D01*
X141033088Y-131760800D01*
G37*
%TD.AperFunction*%
%TA.AperFunction,EtchedComponent*%
%TO.C,JP64*%
G36*
X136082400Y-47102600D02*
G01*
X135482400Y-47102600D01*
X135482400Y-46602600D01*
X136082400Y-46602600D01*
X136082400Y-47102600D01*
G37*
%TD.AperFunction*%
%TD*%
D11*
%TO.P,J17,1,Pin_1*%
%TO.N,+3V3*%
X110950000Y-125310000D03*
D12*
%TO.P,J17,2,Pin_2*%
%TO.N,/RP2040_basic_schema/TX*%
X113450000Y-125310000D03*
%TO.P,J17,3,Pin_3*%
%TO.N,/RP2040_basic_schema/RX*%
X115950000Y-125310000D03*
%TO.P,J17,4,Pin_4*%
%TO.N,GND*%
X118450000Y-125310000D03*
%TD*%
D13*
%TO.P,K1,1*%
%TO.N,VSYS*%
X528700000Y-101500000D03*
%TO.P,K1,2*%
%TO.N,/PP_OUT*%
X525500000Y-101500000D03*
%TO.P,K1,3*%
%TO.N,Net-(F1-Pad1)*%
X523300000Y-101500000D03*
%TO.P,K1,4*%
%TO.N,+3.6V*%
X521100000Y-101500000D03*
%TO.P,K1,5*%
%TO.N,GND*%
X521100000Y-104700000D03*
%TO.P,K1,6*%
%TO.N,/pwr_GND*%
X523300000Y-104700000D03*
%TO.P,K1,7*%
%TO.N,/PP_GND*%
X525500000Y-104700000D03*
%TO.P,K1,8*%
%TO.N,Net-(D1-A)*%
X528700000Y-104700000D03*
%TD*%
D11*
%TO.P,J10,1,Pin_1*%
%TO.N,/sens_SCL_ext*%
X319292500Y-40320000D03*
D12*
%TO.P,J10,2,Pin_2*%
%TO.N,/sens_SDA_ext*%
X321792500Y-40320000D03*
%TO.P,J10,3,Pin_3*%
%TO.N,/V_I2C*%
X324292500Y-40320000D03*
%TO.P,J10,4,Pin_4*%
%TO.N,GND*%
X326792500Y-40320000D03*
%TD*%
D14*
%TO.P,H1,1,1*%
%TO.N,unconnected-(H1-Pad1)*%
X289468000Y-6606600D03*
%TD*%
D11*
%TO.P,J19,1,Pin_1*%
%TO.N,+3V3*%
X154679000Y-90982800D03*
D12*
%TO.P,J19,2,Pin_2*%
%TO.N,/RP2040_basic_schema1/TX*%
X157179000Y-90982800D03*
%TO.P,J19,3,Pin_3*%
%TO.N,/RP2040_basic_schema1/RX*%
X159679000Y-90982800D03*
%TO.P,J19,4,Pin_4*%
%TO.N,GND*%
X162179000Y-90982800D03*
%TD*%
D15*
%TO.P,J5,1,Pin_1*%
%TO.N,GNDA*%
X99160000Y-73090000D03*
D16*
%TO.P,J5,2,Pin_2*%
%TO.N,/1+*%
X96620000Y-73090000D03*
%TO.P,J5,3,Pin_3*%
%TO.N,GNDA*%
X99160000Y-75630000D03*
%TO.P,J5,4,Pin_4*%
%TO.N,/2+*%
X96620000Y-75630000D03*
%TO.P,J5,5,Pin_5*%
%TO.N,GND*%
X99160000Y-78170000D03*
%TO.P,J5,6,Pin_6*%
X96620000Y-78170000D03*
%TO.P,J5,7,Pin_7*%
%TO.N,/V-*%
X99160000Y-80710000D03*
%TO.P,J5,8,Pin_8*%
%TO.N,/V+*%
X96620000Y-80710000D03*
%TO.P,J5,9,Pin_9*%
%TO.N,/W2*%
X99160000Y-83250000D03*
%TO.P,J5,10,Pin_10*%
%TO.N,/W1*%
X96620000Y-83250000D03*
%TO.P,J5,11,Pin_11*%
%TO.N,GND*%
X99160000Y-85790000D03*
%TO.P,J5,12,Pin_12*%
X96620000Y-85790000D03*
%TO.P,J5,13,Pin_13*%
%TO.N,/T2*%
X99160000Y-88330000D03*
%TO.P,J5,14,Pin_14*%
%TO.N,/T1*%
X96620000Y-88330000D03*
%TO.P,J5,15,Pin_15*%
%TO.N,/DIO8*%
X99160000Y-90870000D03*
%TO.P,J5,16,Pin_16*%
%TO.N,/DIO0*%
X96620000Y-90870000D03*
%TO.P,J5,17,Pin_17*%
%TO.N,/DIO9*%
X99160000Y-93410000D03*
%TO.P,J5,18,Pin_18*%
%TO.N,/DIO1*%
X96620000Y-93410000D03*
%TO.P,J5,19,Pin_19*%
%TO.N,/DIO10*%
X99160000Y-95950000D03*
%TO.P,J5,20,Pin_20*%
%TO.N,/DIO2*%
X96620000Y-95950000D03*
%TO.P,J5,21,Pin_21*%
%TO.N,/DIO11*%
X99160000Y-98490000D03*
%TO.P,J5,22,Pin_22*%
%TO.N,/DIO3*%
X96620000Y-98490000D03*
%TO.P,J5,23,Pin_23*%
%TO.N,/DIO12*%
X99160000Y-101030000D03*
%TO.P,J5,24,Pin_24*%
%TO.N,/DIO4*%
X96620000Y-101030000D03*
%TO.P,J5,25,Pin_25*%
%TO.N,/DIO13*%
X99160000Y-103570000D03*
%TO.P,J5,26,Pin_26*%
%TO.N,/DIO5*%
X96620000Y-103570000D03*
%TO.P,J5,27,Pin_27*%
%TO.N,/DIO14*%
X99160000Y-106110000D03*
%TO.P,J5,28,Pin_28*%
%TO.N,/DIO6*%
X96620000Y-106110000D03*
%TO.P,J5,29,Pin_29*%
%TO.N,/DIO15*%
X99160000Y-108650000D03*
%TO.P,J5,30,Pin_30*%
%TO.N,/DIO7*%
X96620000Y-108650000D03*
%TD*%
D14*
%TO.P,H2,1,1*%
%TO.N,unconnected-(H2-Pad1)*%
X203395000Y-116030000D03*
%TD*%
%TO.P,H3,1,1*%
%TO.N,unconnected-(H3-Pad1)*%
X203370000Y-57928221D03*
%TD*%
%TO.P,H5,1,1*%
%TO.N,unconnected-(H5-Pad1)*%
X195376800Y-147574000D03*
%TD*%
D15*
%TO.P,J4,1,3V3*%
%TO.N,unconnected-(J4-3V3-Pad1)*%
X204670000Y-111070000D03*
D16*
%TO.P,J4,2,5V*%
%TO.N,RPi_5V*%
X202130000Y-111070000D03*
%TO.P,J4,3,SDA/GPIO2*%
%TO.N,Net-(J4-SDA{slash}GPIO2)*%
X204670000Y-108530000D03*
%TO.P,J4,4,5V*%
%TO.N,RPi_5V*%
X202130000Y-108530000D03*
%TO.P,J4,5,SCL/GPIO3*%
%TO.N,Net-(J4-SCL{slash}GPIO3)*%
X204670000Y-105990000D03*
%TO.P,J4,6,GND*%
%TO.N,GND*%
X202130000Y-105990000D03*
%TO.P,J4,7,GCLK0/GPIO4*%
%TO.N,unconnected-(J4-GCLK0{slash}GPIO4-Pad7)*%
X204670000Y-103450000D03*
%TO.P,J4,8,GPIO14/TXD*%
%TO.N,/PicoA_RX0_OUT*%
X202130000Y-103450000D03*
%TO.P,J4,9,GND*%
%TO.N,GND*%
X204670000Y-100910000D03*
%TO.P,J4,10,GPIO15/RXD*%
%TO.N,/PicoA_TX0_OUT*%
X202130000Y-100910000D03*
%TO.P,J4,11,GPIO17*%
%TO.N,unconnected-(J4-GPIO17-Pad11)*%
X204670000Y-98370000D03*
%TO.P,J4,12,GPIO18/PWM0*%
%TO.N,Net-(J4-GPIO18{slash}PWM0)*%
X202130000Y-98370000D03*
%TO.P,J4,13,GPIO27*%
%TO.N,Net-(J4-GPIO27)*%
X204670000Y-95830000D03*
%TO.P,J4,14,GND*%
%TO.N,GND*%
X202130000Y-95830000D03*
%TO.P,J4,15,GPIO22*%
%TO.N,Net-(J4-GPIO22)*%
X204670000Y-93290000D03*
%TO.P,J4,16,GPIO23*%
%TO.N,Net-(J4-GPIO23)*%
X202130000Y-93290000D03*
%TO.P,J4,17,3V3*%
%TO.N,unconnected-(J4-3V3-Pad17)*%
X204670000Y-90750000D03*
%TO.P,J4,18,GPIO24*%
%TO.N,Net-(J4-GPIO24)*%
X202130000Y-90750000D03*
%TO.P,J4,19,MOSI0/GPIO10*%
%TO.N,unconnected-(J4-MOSI0{slash}GPIO10-Pad19)*%
X204670000Y-88210000D03*
%TO.P,J4,20,GND*%
%TO.N,GND*%
X202130000Y-88210000D03*
%TO.P,J4,21,MISO0/GPIO9*%
%TO.N,unconnected-(J4-MISO0{slash}GPIO9-Pad21)*%
X204670000Y-85670000D03*
%TO.P,J4,22,GPIO25*%
%TO.N,Net-(J4-GPIO25)*%
X202130000Y-85670000D03*
%TO.P,J4,23,SCLK0/GPIO11*%
%TO.N,unconnected-(J4-SCLK0{slash}GPIO11-Pad23)*%
X204670000Y-83130000D03*
%TO.P,J4,24,~{CE0}/GPIO8*%
%TO.N,unconnected-(J4-~{CE0}{slash}GPIO8-Pad24)*%
X202130000Y-83130000D03*
%TO.P,J4,25,GND*%
%TO.N,GND*%
X204670000Y-80590000D03*
%TO.P,J4,26,~{CE1}/GPIO7*%
%TO.N,unconnected-(J4-~{CE1}{slash}GPIO7-Pad26)*%
X202130000Y-80590000D03*
%TO.P,J4,27,ID_SD/GPIO0*%
%TO.N,/PicoB_RX0_OUT*%
X204670000Y-78050000D03*
%TO.P,J4,28,ID_SC/GPIO1*%
%TO.N,/PicoB_TX0_OUT*%
X202130000Y-78050000D03*
%TO.P,J4,29,GCLK1/GPIO5*%
%TO.N,unconnected-(J4-GCLK1{slash}GPIO5-Pad29)*%
X204670000Y-75510000D03*
%TO.P,J4,30,GND*%
%TO.N,GND*%
X202130000Y-75510000D03*
%TO.P,J4,31,GCLK2/GPIO6*%
%TO.N,unconnected-(J4-GCLK2{slash}GPIO6-Pad31)*%
X204670000Y-72970000D03*
%TO.P,J4,32,PWM0/GPIO12*%
%TO.N,unconnected-(J4-PWM0{slash}GPIO12-Pad32)*%
X202130000Y-72970000D03*
%TO.P,J4,33,PWM1/GPIO13*%
%TO.N,unconnected-(J4-PWM1{slash}GPIO13-Pad33)*%
X204670000Y-70430000D03*
%TO.P,J4,34,GND*%
%TO.N,GND*%
X202130000Y-70430000D03*
%TO.P,J4,35,GPIO19/MISO1*%
%TO.N,unconnected-(J4-GPIO19{slash}MISO1-Pad35)*%
X204670000Y-67890000D03*
%TO.P,J4,36,GPIO16*%
%TO.N,unconnected-(J4-GPIO16-Pad36)*%
X202130000Y-67890000D03*
%TO.P,J4,37,GPIO26*%
%TO.N,Net-(J4-GPIO26)*%
X204670000Y-65350000D03*
%TO.P,J4,38,GPIO20/MOSI1*%
%TO.N,unconnected-(J4-GPIO20{slash}MOSI1-Pad38)*%
X202130000Y-65350000D03*
%TO.P,J4,39,GND*%
%TO.N,GND*%
X204670000Y-62810000D03*
%TO.P,J4,40,GPIO21/SCLK1*%
%TO.N,unconnected-(J4-GPIO21{slash}SCLK1-Pad40)*%
X202130000Y-62810000D03*
%TD*%
D15*
%TO.P,J18,1,Pin_1*%
%TO.N,/SWCLK*%
X154622000Y-59847800D03*
D16*
%TO.P,J18,2,Pin_2*%
%TO.N,GND*%
X152082000Y-59847800D03*
%TO.P,J18,3,Pin_3*%
%TO.N,/SWD*%
X149542000Y-59847800D03*
%TD*%
D17*
%TO.P,D5,1,K*%
%TO.N,Net-(D5-K)*%
X445285000Y-83000000D03*
D18*
%TO.P,D5,2,A*%
%TO.N,/LED_RED*%
X447825000Y-83000000D03*
%TD*%
D15*
%TO.P,J22,1,Pin_1*%
%TO.N,Net-(J22-Pin_1)*%
X171907200Y-146100800D03*
%TD*%
%TO.P,J3,1,Pin_1*%
%TO.N,/VBUS*%
X389500000Y-115960000D03*
D16*
%TO.P,J3,2,Pin_2*%
%TO.N,/2D-*%
X389500000Y-118500000D03*
%TO.P,J3,3,Pin_3*%
%TO.N,/2D+*%
X389500000Y-121040000D03*
%TO.P,J3,4,Pin_4*%
%TO.N,GND*%
X389500000Y-123580000D03*
%TD*%
D14*
%TO.P,H6,1,1*%
%TO.N,unconnected-(H6-Pad1)*%
X195376800Y-35026600D03*
%TD*%
%TO.P,H4,1,1*%
%TO.N,unconnected-(H4-Pad1)*%
X91948000Y-147574000D03*
%TD*%
D15*
%TO.P,J24,1,Pin_1*%
%TO.N,Net-(J24-Pin_1)*%
X139692000Y-59997800D03*
D16*
%TO.P,J24,2,Pin_2*%
%TO.N,/MCU2_RESET*%
X142232000Y-59997800D03*
%TO.P,J24,3,Pin_3*%
%TO.N,Net-(J24-Pin_3)*%
X144772000Y-59997800D03*
%TD*%
D15*
%TO.P,J23,1,Pin_1*%
%TO.N,Net-(J23-Pin_1)*%
X175964900Y-91918600D03*
D16*
%TO.P,J23,2,Pin_2*%
%TO.N,/MCU1_RESET*%
X178504900Y-91918600D03*
%TO.P,J23,3,Pin_3*%
%TO.N,Net-(J23-Pin_3)*%
X181044900Y-91918600D03*
%TD*%
D15*
%TO.P,J1,1,Pin_1*%
%TO.N,/VBUS*%
X119204600Y-96413400D03*
D16*
%TO.P,J1,2,Pin_2*%
%TO.N,/1D-*%
X119204600Y-98953400D03*
%TO.P,J1,3,Pin_3*%
%TO.N,/1D+*%
X119204600Y-101493400D03*
%TO.P,J1,4,Pin_4*%
%TO.N,GND*%
X119204600Y-104033400D03*
%TD*%
D15*
%TO.P,J9,1,Pin_1*%
%TO.N,Net-(J22-Pin_1)*%
X168182000Y-146100800D03*
D16*
%TO.P,J9,2,Pin_2*%
%TO.N,unconnected-(J9-Pin_2-Pad2)*%
X165642000Y-146100800D03*
%TO.P,J9,3,Pin_3*%
%TO.N,Net-(J25-Pin_2)*%
X163102000Y-146100800D03*
%TO.P,J9,4,Pin_4*%
%TO.N,Net-(J25-Pin_4)*%
X160562000Y-146100800D03*
%TO.P,J9,5,Pin_5*%
%TO.N,unconnected-(J9-Pin_5-Pad5)*%
X158022000Y-146100800D03*
%TO.P,J9,6,Pin_6*%
%TO.N,Net-(J20-Pin_2)*%
X155482000Y-146100800D03*
%TO.P,J9,7,Pin_7*%
%TO.N,Net-(J20-Pin_4)*%
X152942000Y-146100800D03*
%TO.P,J9,8,Pin_8*%
%TO.N,Net-(J20-Pin_6)*%
X150402000Y-146100800D03*
%TO.P,J9,9,Pin_9*%
%TO.N,Net-(J20-Pin_8)*%
X147862000Y-146100800D03*
%TO.P,J9,10,Pin_10*%
%TO.N,Net-(J20-Pin_10)*%
X145322000Y-146100800D03*
%TO.P,J9,11,Pin_11*%
%TO.N,Net-(J20-Pin_12)*%
X142782000Y-146100800D03*
%TO.P,J9,12,Pin_12*%
%TO.N,Net-(J20-Pin_14)*%
X140242000Y-146100800D03*
%TO.P,J9,13,Pin_13*%
%TO.N,Net-(J20-Pin_16)*%
X137702000Y-146100800D03*
%TO.P,J9,14,Pin_14*%
%TO.N,unconnected-(J9-Pin_14-Pad14)*%
X135162000Y-146100800D03*
%TO.P,J9,15,Pin_15*%
%TO.N,GND*%
X132622000Y-146100800D03*
%TD*%
D19*
%TO.P,J12,1,Pin_1*%
%TO.N,VSYS*%
X466500000Y-94000000D03*
D20*
%TO.P,J12,2,Pin_2*%
%TO.N,/R_Servo*%
X466500000Y-96500000D03*
%TO.P,J12,3,Pin_3*%
%TO.N,GND*%
X466500000Y-99000000D03*
%TD*%
D17*
%TO.P,D6,1,K*%
%TO.N,Net-(D6-K)*%
X453285000Y-83000000D03*
D18*
%TO.P,D6,2,A*%
%TO.N,/LED_GREEN*%
X455825000Y-83000000D03*
%TD*%
D15*
%TO.P,J16,1,Pin_1*%
%TO.N,/SWCLK*%
X190642400Y-92033600D03*
D16*
%TO.P,J16,2,Pin_2*%
%TO.N,GND*%
X188102400Y-92033600D03*
%TO.P,J16,3,Pin_3*%
%TO.N,/SWD*%
X185562400Y-92033600D03*
%TD*%
D19*
%TO.P,J2,1,Pin_1*%
%TO.N,/PP_GND*%
X514000000Y-102000000D03*
D20*
%TO.P,J2,2,Pin_2*%
%TO.N,/PP_OUT*%
X514000000Y-104500000D03*
%TO.P,J2,3,Pin_3*%
%TO.N,/PP_IN*%
X514000000Y-107000000D03*
%TO.P,J2,4,Pin_4*%
%TO.N,/PP_GND*%
X514000000Y-109500000D03*
%TD*%
D21*
%TO.P,F1,1*%
%TO.N,Net-(F1-Pad1)*%
X535000000Y-92500000D03*
%TO.P,F1,2*%
%TO.N,/shunt_+*%
X512500000Y-92500000D03*
%TD*%
D15*
%TO.P,J6,1,Pin_1*%
%TO.N,VSYS*%
X392542500Y-82425000D03*
D16*
%TO.P,J6,2,Pin_2*%
%TO.N,GND*%
X392542500Y-84965000D03*
%TO.P,J6,3,Pin_3*%
%TO.N,+3V3*%
X392542500Y-87505000D03*
%TO.P,J6,4,Pin_4*%
%TO.N,/sens_SCL_ext*%
X392542500Y-90045000D03*
%TO.P,J6,5,Pin_5*%
%TO.N,/sens_SDA_ext*%
X392542500Y-92585000D03*
%TO.P,J6,6,Pin_6*%
%TO.N,/clr_sens_INT*%
X392542500Y-95125000D03*
%TO.P,J6,7,Pin_7*%
%TO.N,/clr_sens_LED*%
X392542500Y-97665000D03*
%TD*%
D22*
%TO.P,J11,1,Pin_1*%
%TO.N,+3V3*%
X466500000Y-112000000D03*
D20*
%TO.P,J11,2,Pin_2*%
%TO.N,Net-(J11-Pin_2)*%
X466500000Y-109500000D03*
%TO.P,J11,3,Pin_3*%
%TO.N,GND*%
X466500000Y-107000000D03*
%TD*%
D19*
%TO.P,J13,1,Pin_1*%
%TO.N,VSYS*%
X466500000Y-81000000D03*
D20*
%TO.P,J13,2,Pin_2*%
%TO.N,/B_Servo*%
X466500000Y-83500000D03*
%TO.P,J13,3,Pin_3*%
%TO.N,GND*%
X466500000Y-86000000D03*
%TD*%
D23*
%TO.P,BZ1,1,+*%
%TO.N,VSYS*%
X444423431Y-98470000D03*
D24*
%TO.P,BZ1,2,-*%
%TO.N,Net-(BZ1--)*%
X452023431Y-98470000D03*
%TD*%
D25*
%TO.P,JP51,1,A*%
%TO.N,/dig_5*%
X129548544Y-130860800D03*
D26*
%TO.P,JP51,2,B*%
%TO.N,Net-(J14-Pin_32)*%
X129548544Y-132160800D03*
%TD*%
D27*
%TO.P,J14,1,Pin_1*%
%TO.N,Net-(J14-Pin_1)*%
X171986000Y-142117600D03*
%TO.P,J14,2,Pin_2*%
%TO.N,Net-(J14-Pin_2)*%
X171986000Y-137067600D03*
%TO.P,J14,3,Pin_3*%
%TO.N,Net-(J14-Pin_3)*%
X169446000Y-142117600D03*
%TO.P,J14,4,Pin_4*%
%TO.N,Net-(J14-Pin_4)*%
X169446000Y-137067600D03*
%TO.P,J14,5,Pin_5*%
%TO.N,Net-(J14-Pin_5)*%
X166906000Y-142117600D03*
%TO.P,J14,6,Pin_6*%
%TO.N,Net-(J14-Pin_6)*%
X166906000Y-137067600D03*
%TO.P,J14,7,Pin_7*%
%TO.N,Net-(J14-Pin_7)*%
X164366000Y-142117600D03*
%TO.P,J14,8,Pin_8*%
%TO.N,Net-(J14-Pin_8)*%
X164366000Y-137067600D03*
%TO.P,J14,9,Pin_9*%
%TO.N,Net-(J14-Pin_9)*%
X161826000Y-142117600D03*
%TO.P,J14,10,Pin_10*%
%TO.N,Net-(J14-Pin_10)*%
X161826000Y-137067600D03*
%TO.P,J14,11,Pin_11*%
%TO.N,unconnected-(J14-Pin_11-Pad11)*%
X159286000Y-142117600D03*
%TO.P,J14,12,Pin_12*%
%TO.N,Net-(J14-Pin_12)*%
X159286000Y-137067600D03*
%TO.P,J14,13,Pin_13*%
%TO.N,unconnected-(J14-Pin_13-Pad13)*%
X156746000Y-142117600D03*
%TO.P,J14,14,Pin_14*%
%TO.N,Net-(J14-Pin_14)*%
X156746000Y-137067600D03*
%TO.P,J14,15,Pin_15*%
%TO.N,unconnected-(J14-Pin_15-Pad15)*%
X154206000Y-142117600D03*
%TO.P,J14,16,Pin_16*%
%TO.N,Net-(J14-Pin_16)*%
X154206000Y-137067600D03*
%TO.P,J14,17,Pin_17*%
%TO.N,unconnected-(J14-Pin_17-Pad17)*%
X151666000Y-142117600D03*
%TO.P,J14,18,Pin_18*%
%TO.N,Net-(J14-Pin_18)*%
X151666000Y-137067600D03*
%TO.P,J14,19,Pin_19*%
%TO.N,unconnected-(J14-Pin_19-Pad19)*%
X149126000Y-142117600D03*
%TO.P,J14,20,Pin_20*%
%TO.N,Net-(J14-Pin_20)*%
X149126000Y-137067600D03*
%TO.P,J14,21,Pin_21*%
%TO.N,Net-(J14-Pin_21)*%
X146586000Y-142117600D03*
%TO.P,J14,22,Pin_22*%
%TO.N,Net-(J14-Pin_22)*%
X146586000Y-137067600D03*
%TO.P,J14,23,Pin_23*%
%TO.N,unconnected-(J14-Pin_23-Pad23)*%
X144046000Y-142117600D03*
%TO.P,J14,24,Pin_24*%
%TO.N,Net-(J14-Pin_24)*%
X144046000Y-137067600D03*
%TO.P,J14,25,Pin_25*%
%TO.N,unconnected-(J14-Pin_25-Pad25)*%
X141506000Y-142117600D03*
%TO.P,J14,26,Pin_26*%
%TO.N,Net-(J14-Pin_26)*%
X141506000Y-137067600D03*
%TO.P,J14,27,Pin_27*%
%TO.N,/DIO0*%
X138966000Y-142117600D03*
%TO.P,J14,28,Pin_28*%
%TO.N,Net-(J14-Pin_28)*%
X138966000Y-137067600D03*
%TO.P,J14,29,Pin_29*%
%TO.N,/DIO1*%
X136426000Y-142117600D03*
%TO.P,J14,30,Pin_30*%
%TO.N,Net-(J14-Pin_30)*%
X136426000Y-137067600D03*
%TO.P,J14,31,Pin_31*%
%TO.N,/DIO4*%
X133886000Y-142117600D03*
%TO.P,J14,32,Pin_32*%
%TO.N,Net-(J14-Pin_32)*%
X133886000Y-137067600D03*
%TO.P,J14,33,Pin_33*%
%TO.N,/DIO5*%
X131346000Y-142117600D03*
%TO.P,J14,34,Pin_34*%
%TO.N,Net-(J14-Pin_34)*%
X131346000Y-137067600D03*
%TO.P,J14,35,Pin_35*%
%TO.N,/DIO6*%
X128806000Y-142117600D03*
%TO.P,J14,36,Pin_36*%
%TO.N,Net-(J14-Pin_36)*%
X128806000Y-137067600D03*
%TO.P,J14,37,Pin_37*%
%TO.N,/DIO3*%
X126266000Y-142117600D03*
%TO.P,J14,38,Pin_38*%
%TO.N,Net-(J14-Pin_38)*%
X126266000Y-137067600D03*
%TO.P,J14,39,Pin_39*%
%TO.N,/DIO2*%
X123726000Y-142117600D03*
%TO.P,J14,40,Pin_40*%
%TO.N,Net-(J14-Pin_40)*%
X123726000Y-137067600D03*
%TD*%
D25*
%TO.P,JP75,1,A*%
%TO.N,/dig18*%
X168694448Y-130804200D03*
D26*
%TO.P,JP75,2,B*%
%TO.N,Net-(J14-Pin_4)*%
X168694448Y-132104200D03*
%TD*%
D28*
%TO.P,JP60,1,A*%
%TO.N,/ana_11*%
X149982400Y-47502600D03*
D29*
%TO.P,JP60,2,B*%
%TO.N,Net-(J15-Pin_19)*%
X149982400Y-46202600D03*
%TD*%
D28*
%TO.P,JP58,1,A*%
%TO.N,/ana_13*%
X157082400Y-47502600D03*
D29*
%TO.P,JP58,2,B*%
%TO.N,Net-(J15-Pin_15)*%
X157082400Y-46202600D03*
%TD*%
D28*
%TO.P,JP66,1,A*%
%TO.N,/ana_5*%
X129033400Y-47731200D03*
D29*
%TO.P,JP66,2,B*%
%TO.N,Net-(J15-Pin_31)*%
X129033400Y-46431200D03*
%TD*%
D28*
%TO.P,JP68,1,A*%
%TO.N,/ana_3*%
X121933400Y-47731200D03*
D29*
%TO.P,JP68,2,B*%
%TO.N,Net-(J15-Pin_35)*%
X121933400Y-46431200D03*
%TD*%
D28*
%TO.P,JP67,1,A*%
%TO.N,/ana_4*%
X125483400Y-47731200D03*
D29*
%TO.P,JP67,2,B*%
%TO.N,Net-(J15-Pin_33)*%
X125483400Y-46431200D03*
%TD*%
D25*
%TO.P,JP80,1,A*%
%TO.N,/dig13*%
X154713768Y-130814600D03*
D26*
%TO.P,JP80,2,B*%
%TO.N,Net-(J14-Pin_14)*%
X154713768Y-132114600D03*
%TD*%
D28*
%TO.P,JP56,1,A*%
%TO.N,GNDA*%
X164182400Y-47502600D03*
D29*
%TO.P,JP56,2,B*%
%TO.N,Net-(J15-Pin_11)*%
X164182400Y-46202600D03*
%TD*%
D28*
%TO.P,JP65,1,A*%
%TO.N,/ana_6*%
X132232400Y-47502600D03*
D29*
%TO.P,JP65,2,B*%
%TO.N,Net-(J15-Pin_29)*%
X132232400Y-46202600D03*
%TD*%
D25*
%TO.P,JP55,1,A*%
%TO.N,/dig_1*%
X118364000Y-130860800D03*
D26*
%TO.P,JP55,2,B*%
%TO.N,Net-(J14-Pin_40)*%
X118364000Y-132160800D03*
%TD*%
D25*
%TO.P,JP49,1,A*%
%TO.N,/dig_7*%
X135140816Y-130860800D03*
D26*
%TO.P,JP49,2,B*%
%TO.N,Net-(J14-Pin_28)*%
X135140816Y-132160800D03*
%TD*%
D27*
%TO.P,J15,1,Pin_1*%
%TO.N,unconnected-(J15-Pin_1-Pad1)*%
X171986000Y-41617600D03*
%TO.P,J15,2,Pin_2*%
%TO.N,unconnected-(J15-Pin_2-Pad2)*%
X171986000Y-36567600D03*
%TO.P,J15,3,Pin_3*%
%TO.N,unconnected-(J15-Pin_3-Pad3)*%
X169446000Y-41617600D03*
%TO.P,J15,4,Pin_4*%
%TO.N,unconnected-(J15-Pin_4-Pad4)*%
X169446000Y-36567600D03*
%TO.P,J15,5,Pin_5*%
%TO.N,unconnected-(J15-Pin_5-Pad5)*%
X166906000Y-41617600D03*
%TO.P,J15,6,Pin_6*%
%TO.N,unconnected-(J15-Pin_6-Pad6)*%
X166906000Y-36567600D03*
%TO.P,J15,7,Pin_7*%
%TO.N,unconnected-(J15-Pin_7-Pad7)*%
X164366000Y-41617600D03*
%TO.P,J15,8,Pin_8*%
%TO.N,unconnected-(J15-Pin_8-Pad8)*%
X164366000Y-36567600D03*
%TO.P,J15,9,Pin_9*%
%TO.N,unconnected-(J15-Pin_9-Pad9)*%
X161826000Y-41617600D03*
%TO.P,J15,10,Pin_10*%
%TO.N,unconnected-(J15-Pin_10-Pad10)*%
X161826000Y-36567600D03*
%TO.P,J15,11,Pin_11*%
%TO.N,Net-(J15-Pin_11)*%
X159286000Y-41617600D03*
%TO.P,J15,12,Pin_12*%
%TO.N,unconnected-(J15-Pin_12-Pad12)*%
X159286000Y-36567600D03*
%TO.P,J15,13,Pin_13*%
%TO.N,Net-(J15-Pin_13)*%
X156746000Y-41617600D03*
%TO.P,J15,14,Pin_14*%
%TO.N,unconnected-(J15-Pin_14-Pad14)*%
X156746000Y-36567600D03*
%TO.P,J15,15,Pin_15*%
%TO.N,Net-(J15-Pin_15)*%
X154206000Y-41617600D03*
%TO.P,J15,16,Pin_16*%
%TO.N,unconnected-(J15-Pin_16-Pad16)*%
X154206000Y-36567600D03*
%TO.P,J15,17,Pin_17*%
%TO.N,Net-(J15-Pin_17)*%
X151666000Y-41617600D03*
%TO.P,J15,18,Pin_18*%
%TO.N,unconnected-(J15-Pin_18-Pad18)*%
X151666000Y-36567600D03*
%TO.P,J15,19,Pin_19*%
%TO.N,Net-(J15-Pin_19)*%
X149126000Y-41617600D03*
%TO.P,J15,20,Pin_20*%
%TO.N,unconnected-(J15-Pin_20-Pad20)*%
X149126000Y-36567600D03*
%TO.P,J15,21,Pin_21*%
%TO.N,Net-(J15-Pin_21)*%
X146586000Y-41617600D03*
%TO.P,J15,22,Pin_22*%
%TO.N,unconnected-(J15-Pin_22-Pad22)*%
X146586000Y-36567600D03*
%TO.P,J15,23,Pin_23*%
%TO.N,Net-(J15-Pin_23)*%
X144046000Y-41617600D03*
%TO.P,J15,24,Pin_24*%
%TO.N,unconnected-(J15-Pin_24-Pad24)*%
X144046000Y-36567600D03*
%TO.P,J15,25,Pin_25*%
%TO.N,Net-(J15-Pin_25)*%
X141506000Y-41617600D03*
%TO.P,J15,26,Pin_26*%
%TO.N,unconnected-(J15-Pin_26-Pad26)*%
X141506000Y-36567600D03*
%TO.P,J15,27,Pin_27*%
%TO.N,Net-(J15-Pin_27)*%
X138966000Y-41617600D03*
%TO.P,J15,28,Pin_28*%
%TO.N,unconnected-(J15-Pin_28-Pad28)*%
X138966000Y-36567600D03*
%TO.P,J15,29,Pin_29*%
%TO.N,Net-(J15-Pin_29)*%
X136426000Y-41617600D03*
%TO.P,J15,30,Pin_30*%
%TO.N,unconnected-(J15-Pin_30-Pad30)*%
X136426000Y-36567600D03*
%TO.P,J15,31,Pin_31*%
%TO.N,Net-(J15-Pin_31)*%
X133886000Y-41617600D03*
%TO.P,J15,32,Pin_32*%
%TO.N,unconnected-(J15-Pin_32-Pad32)*%
X133886000Y-36567600D03*
%TO.P,J15,33,Pin_33*%
%TO.N,Net-(J15-Pin_33)*%
X131346000Y-41617600D03*
%TO.P,J15,34,Pin_34*%
%TO.N,unconnected-(J15-Pin_34-Pad34)*%
X131346000Y-36567600D03*
%TO.P,J15,35,Pin_35*%
%TO.N,Net-(J15-Pin_35)*%
X128806000Y-41617600D03*
%TO.P,J15,36,Pin_36*%
%TO.N,unconnected-(J15-Pin_36-Pad36)*%
X128806000Y-36567600D03*
%TO.P,J15,37,Pin_37*%
%TO.N,Net-(J15-Pin_37)*%
X126266000Y-41617600D03*
%TO.P,J15,38,Pin_38*%
%TO.N,unconnected-(J15-Pin_38-Pad38)*%
X126266000Y-36567600D03*
%TO.P,J15,39,Pin_39*%
%TO.N,Net-(J15-Pin_39)*%
X123726000Y-41617600D03*
%TO.P,J15,40,Pin_40*%
%TO.N,unconnected-(J15-Pin_40-Pad40)*%
X123726000Y-36567600D03*
%TD*%
D30*
%TO.P,JP16,1,A*%
%TO.N,GND*%
X182753000Y-142011400D03*
D31*
%TO.P,JP16,2,B*%
%TO.N,Net-(J14-Pin_1)*%
X181453000Y-142011400D03*
%TD*%
D25*
%TO.P,JP78,1,A*%
%TO.N,/dig15*%
X160306040Y-130814600D03*
D26*
%TO.P,JP78,2,B*%
%TO.N,Net-(J14-Pin_10)*%
X160306040Y-132114600D03*
%TD*%
D28*
%TO.P,JP15,1,A*%
%TO.N,GND*%
X146608800Y-149255000D03*
D29*
%TO.P,JP15,2,B*%
%TO.N,Net-(J14-Pin_21)*%
X146608800Y-147955000D03*
%TD*%
D28*
%TO.P,JP57,1,A*%
%TO.N,/ana_14*%
X160632400Y-47502600D03*
D29*
%TO.P,JP57,2,B*%
%TO.N,Net-(J15-Pin_13)*%
X160632400Y-46202600D03*
%TD*%
D25*
%TO.P,JP71,1,A*%
%TO.N,/dig22*%
X182675128Y-130799600D03*
D26*
%TO.P,JP71,2,B*%
%TO.N,Net-(J14-Pin_3)*%
X182675128Y-132099600D03*
%TD*%
D25*
%TO.P,JP87,1,A*%
%TO.N,/dig_10*%
X146325360Y-130814600D03*
D26*
%TO.P,JP87,2,B*%
%TO.N,Net-(J14-Pin_20)*%
X146325360Y-132114600D03*
%TD*%
D25*
%TO.P,JP86,1,A*%
%TO.N,/dig_11*%
X149121496Y-130814600D03*
D26*
%TO.P,JP86,2,B*%
%TO.N,Net-(J14-Pin_18)*%
X149121496Y-132114600D03*
%TD*%
D25*
%TO.P,JP54,1,A*%
%TO.N,/dig_2*%
X121160136Y-130860800D03*
D26*
%TO.P,JP54,2,B*%
%TO.N,Net-(J14-Pin_38)*%
X121160136Y-132160800D03*
%TD*%
D25*
%TO.P,JP72,1,A*%
%TO.N,/dig21*%
X179878992Y-130789200D03*
D26*
%TO.P,JP72,2,B*%
%TO.N,Net-(J14-Pin_5)*%
X179878992Y-132089200D03*
%TD*%
D25*
%TO.P,JP73,1,A*%
%TO.N,/dig20*%
X177082856Y-130789200D03*
D26*
%TO.P,JP73,2,B*%
%TO.N,Net-(J14-Pin_7)*%
X177082856Y-132089200D03*
%TD*%
D28*
%TO.P,JP59,1,A*%
%TO.N,/ana_12*%
X153532400Y-47502600D03*
D29*
%TO.P,JP59,2,B*%
%TO.N,Net-(J15-Pin_17)*%
X153532400Y-46202600D03*
%TD*%
D28*
%TO.P,JP61,1,A*%
%TO.N,/ana_10*%
X146432400Y-47502600D03*
D29*
%TO.P,JP61,2,B*%
%TO.N,Net-(J15-Pin_21)*%
X146432400Y-46202600D03*
%TD*%
D25*
%TO.P,JP85,1,A*%
%TO.N,GND*%
X143529224Y-130911600D03*
D26*
%TO.P,JP85,2,B*%
%TO.N,Net-(J14-Pin_22)*%
X143529224Y-132211600D03*
%TD*%
D28*
%TO.P,JP70,1,A*%
%TO.N,/ana_1*%
X114833400Y-47731200D03*
D29*
%TO.P,JP70,2,B*%
%TO.N,Net-(J15-Pin_39)*%
X114833400Y-46431200D03*
%TD*%
D28*
%TO.P,JP62,1,A*%
%TO.N,/ana_9*%
X142882400Y-47502600D03*
D29*
%TO.P,JP62,2,B*%
%TO.N,Net-(J15-Pin_23)*%
X142882400Y-46202600D03*
%TD*%
D25*
%TO.P,JP50,1,A*%
%TO.N,/dig_6*%
X132344680Y-130860800D03*
D26*
%TO.P,JP50,2,B*%
%TO.N,Net-(J14-Pin_30)*%
X132344680Y-132160800D03*
%TD*%
D25*
%TO.P,JP53,1,A*%
%TO.N,/dig_3*%
X123956272Y-130860800D03*
D26*
%TO.P,JP53,2,B*%
%TO.N,Net-(J14-Pin_36)*%
X123956272Y-132160800D03*
%TD*%
D28*
%TO.P,JP63,1,A*%
%TO.N,/ana_8*%
X139332400Y-47502600D03*
D29*
%TO.P,JP63,2,B*%
%TO.N,Net-(J15-Pin_25)*%
X139332400Y-46202600D03*
%TD*%
D25*
%TO.P,JP52,1,A*%
%TO.N,/dig_4*%
X126752408Y-130860800D03*
D26*
%TO.P,JP52,2,B*%
%TO.N,Net-(J14-Pin_34)*%
X126752408Y-132160800D03*
%TD*%
D25*
%TO.P,JP14,1,A*%
%TO.N,GND*%
X171490584Y-130763800D03*
D26*
%TO.P,JP14,2,B*%
%TO.N,Net-(J14-Pin_2)*%
X171490584Y-132063800D03*
%TD*%
D25*
%TO.P,JP77,1,A*%
%TO.N,/dig16*%
X163102176Y-130814600D03*
D26*
%TO.P,JP77,2,B*%
%TO.N,Net-(J14-Pin_8)*%
X163102176Y-132114600D03*
%TD*%
D25*
%TO.P,JP74,1,A*%
%TO.N,/dig19*%
X174286720Y-130789200D03*
D26*
%TO.P,JP74,2,B*%
%TO.N,Net-(J14-Pin_9)*%
X174286720Y-132089200D03*
%TD*%
D25*
%TO.P,JP81,1,A*%
%TO.N,/dig12*%
X151917632Y-130814600D03*
D26*
%TO.P,JP81,2,B*%
%TO.N,Net-(J14-Pin_16)*%
X151917632Y-132114600D03*
%TD*%
D25*
%TO.P,JP76,1,A*%
%TO.N,/dig17*%
X165898312Y-130804200D03*
D26*
%TO.P,JP76,2,B*%
%TO.N,Net-(J14-Pin_6)*%
X165898312Y-132104200D03*
%TD*%
D28*
%TO.P,JP69,1,A*%
%TO.N,/ana_2*%
X118383400Y-47731200D03*
D29*
%TO.P,JP69,2,B*%
%TO.N,Net-(J15-Pin_37)*%
X118383400Y-46431200D03*
%TD*%
D25*
%TO.P,JP48,1,A*%
%TO.N,/dig_8*%
X137936952Y-130860800D03*
D26*
%TO.P,JP48,2,B*%
%TO.N,Net-(J14-Pin_26)*%
X137936952Y-132160800D03*
%TD*%
D25*
%TO.P,JP79,1,A*%
%TO.N,/dig14*%
X157509904Y-130814600D03*
D26*
%TO.P,JP79,2,B*%
%TO.N,Net-(J14-Pin_12)*%
X157509904Y-132114600D03*
%TD*%
D25*
%TO.P,JP47,1,A*%
%TO.N,/dig_9*%
X140733088Y-130860800D03*
D26*
%TO.P,JP47,2,B*%
%TO.N,Net-(J14-Pin_24)*%
X140733088Y-132160800D03*
%TD*%
D28*
%TO.P,JP64,1,A*%
%TO.N,/ana_7*%
X135782400Y-47502600D03*
D29*
%TO.P,JP64,2,B*%
%TO.N,Net-(J15-Pin_27)*%
X135782400Y-46202600D03*
%TD*%
M02*
