%TF.GenerationSoftware,KiCad,Pcbnew,8.0.3-8.0.3-0~ubuntu22.04.1*%
%TF.CreationDate,2024-07-11T11:22:04+05:30*%
%TF.ProjectId,DUT_Interface_board_v0.2,4455545f-496e-4746-9572-666163655f62,rev?*%
%TF.SameCoordinates,Original*%
%TF.FileFunction,OtherDrawing,Comment*%
%FSLAX46Y46*%
G04 Gerber Fmt 4.6, Leading zero omitted, Abs format (unit mm)*
G04 Created by KiCad (PCBNEW 8.0.3-8.0.3-0~ubuntu22.04.1) date 2024-07-11 11:22:04*
%MOMM*%
%LPD*%
G01*
G04 APERTURE LIST*
%ADD10C,0.200000*%
%ADD11C,0.150000*%
%ADD12C,0.100000*%
G04 APERTURE END LIST*
D10*
X184182550Y-100033630D02*
X184582850Y-100033630D01*
X184582850Y-100033630D02*
X184582850Y-97833630D01*
X184582850Y-97033630D02*
X184582850Y-94833630D01*
X184582850Y-94033630D02*
X184582850Y-92457070D01*
X184582850Y-92457070D02*
X183969950Y-92457070D01*
X183969950Y-92457070D02*
X183969950Y-91441070D01*
X183969950Y-91441070D02*
X184573450Y-91441070D01*
X184573450Y-91441070D02*
X184573450Y-89241070D01*
X184573450Y-88441070D02*
X184573450Y-86241070D01*
X184573450Y-85441070D02*
X184573450Y-83241070D01*
X184573450Y-82441070D02*
X184573450Y-80241070D01*
X184573450Y-79441070D02*
X184573450Y-77241070D01*
X184573450Y-76441070D02*
X184573450Y-74241070D01*
X184573450Y-73441070D02*
X184573450Y-72139100D01*
X184573450Y-72139100D02*
X184574470Y-72139100D01*
X184574470Y-72139100D02*
X184574071Y-69939100D01*
X184573926Y-69139100D02*
X184573526Y-66939100D01*
X184573450Y-66519090D02*
X182373450Y-66519090D01*
X181573450Y-66519090D02*
X179373450Y-66519090D01*
X179337240Y-66519090D02*
X179337240Y-68719090D01*
X179337240Y-69519090D02*
X179337240Y-69983910D01*
X179337240Y-69983910D02*
X177137240Y-69983910D01*
X176337240Y-69983910D02*
X174137240Y-69983910D01*
X173337240Y-69983910D02*
X171137240Y-69983910D01*
X170337240Y-69983910D02*
X168137240Y-69983910D01*
X167337240Y-69983910D02*
X165137240Y-69983910D01*
X164337240Y-69983910D02*
X162137240Y-69983910D01*
X161337240Y-69983910D02*
X159137240Y-69983910D01*
X158337240Y-69983910D02*
X156137240Y-69983910D01*
X155337240Y-69983910D02*
X153137240Y-69983910D01*
X152337240Y-69983910D02*
X150137240Y-69983910D01*
X149337240Y-69983910D02*
X147137240Y-69983910D01*
X146337240Y-69983910D02*
X144137240Y-69983910D01*
X143337240Y-69983910D02*
X141137240Y-69983910D01*
X140337240Y-69983910D02*
X138137240Y-69983910D01*
X137337240Y-69983910D02*
X135137240Y-69983910D01*
X134337240Y-69983910D02*
X132137240Y-69983910D01*
X131337240Y-69983910D02*
X129137240Y-69983910D01*
X128337240Y-69983910D02*
X126137240Y-69983910D01*
X125337240Y-69983910D02*
X123137240Y-69983910D01*
X122337240Y-69983910D02*
X120137240Y-69983910D01*
X119337240Y-69983910D02*
X118197670Y-69983910D01*
X118197670Y-69983910D02*
X118197670Y-67783910D01*
X118197670Y-66983910D02*
X118197670Y-64783910D01*
X118197670Y-63983910D02*
X118197670Y-61783910D01*
X118197670Y-60983910D02*
X118197670Y-58783910D01*
X118197670Y-57983910D02*
X118197670Y-55783910D01*
X118197670Y-54983910D02*
X118197670Y-52783910D01*
X118197670Y-51983910D02*
X118197670Y-51124660D01*
X118197670Y-51124660D02*
X115997670Y-51124660D01*
X115197670Y-51124660D02*
X112997670Y-51124660D01*
X112197670Y-51124660D02*
X110933270Y-51124660D01*
X110933270Y-51124660D02*
X110637610Y-51153620D01*
X110637610Y-51153620D02*
X110365580Y-51234140D01*
X110365580Y-51234140D02*
X110129360Y-51353770D01*
X110129360Y-51353770D02*
X109913200Y-51516330D01*
X109913200Y-51516330D02*
X109728290Y-51715210D01*
X109728290Y-51715210D02*
X109583260Y-51941270D01*
X109583260Y-51941270D02*
X109482160Y-52182570D01*
X109482160Y-52182570D02*
X109426540Y-52418790D01*
X109426540Y-52418790D02*
X109409271Y-52648660D01*
X109409270Y-52648660D02*
X109409270Y-54848660D01*
X109409270Y-55648660D02*
X109409270Y-57848660D01*
X109409270Y-58648660D02*
X109409270Y-60848660D01*
X109409270Y-61648660D02*
X109409270Y-63848660D01*
X109409270Y-64648660D02*
X109409270Y-66848660D01*
X109409270Y-67648660D02*
X109409270Y-69848660D01*
X109409270Y-70648660D02*
X109409270Y-72848660D01*
X109409270Y-73648660D02*
X109409270Y-75848660D01*
X109409270Y-76648660D02*
X109409270Y-78848660D01*
X109409270Y-79648660D02*
X109409270Y-81848660D01*
X109409270Y-82648660D02*
X109409270Y-84848660D01*
X109409270Y-85648660D02*
X109409270Y-87848660D01*
X109409270Y-88648660D02*
X109409270Y-90848660D01*
X109409270Y-91648660D02*
X109409270Y-93848660D01*
X109409270Y-94648660D02*
X109409270Y-96848660D01*
X109409270Y-97648660D02*
X109409270Y-99848660D01*
X109409270Y-100648660D02*
X109409270Y-102848660D01*
X109409270Y-103648660D02*
X109409270Y-105848660D01*
X109409270Y-106648660D02*
X109409270Y-108848660D01*
X109409270Y-109648660D02*
X109409270Y-111848660D01*
X109409270Y-112648660D02*
X109409270Y-114848660D01*
X109409270Y-115648660D02*
X109409270Y-117848660D01*
X109409270Y-118648660D02*
X109409270Y-120848660D01*
X109409270Y-121648660D02*
X109409270Y-123848660D01*
X109409270Y-124648660D02*
X109409270Y-125875340D01*
X109409270Y-125875340D02*
X111609270Y-125875340D01*
X112409270Y-125875340D02*
X114609270Y-125875340D01*
X115409270Y-125875340D02*
X117609270Y-125875340D01*
X118409270Y-125875340D02*
X120609270Y-125875340D01*
X121409270Y-125875340D02*
X123609270Y-125875340D01*
X124409270Y-125875340D02*
X126609270Y-125875340D01*
X127409270Y-125875340D02*
X129609270Y-125875340D01*
X130409270Y-125875340D02*
X132609270Y-125875340D01*
X133409270Y-125875340D02*
X135609270Y-125875340D01*
X136409270Y-125875340D02*
X138609270Y-125875340D01*
X139409270Y-125875340D02*
X141609270Y-125875340D01*
X142409270Y-125875340D02*
X144609270Y-125875340D01*
X145409270Y-125875340D02*
X147609270Y-125875340D01*
X148409270Y-125875340D02*
X150609270Y-125875340D01*
X151409270Y-125875340D02*
X153609270Y-125875340D01*
X154409270Y-125875340D02*
X156609270Y-125875340D01*
X157409270Y-125875340D02*
X159609270Y-125875340D01*
X160409270Y-125875340D02*
X162609270Y-125875340D01*
X163409270Y-125875340D02*
X165609270Y-125875340D01*
X166409270Y-125875340D02*
X168609270Y-125875340D01*
X169409270Y-125875340D02*
X171609270Y-125875340D01*
X172409270Y-125875340D02*
X174609270Y-125875340D01*
X175409270Y-125875340D02*
X177609270Y-125875340D01*
X178409270Y-125875340D02*
X179704020Y-125875340D01*
X179704020Y-125875340D02*
X179999680Y-125846380D01*
X179999680Y-125846380D02*
X180271459Y-125765610D01*
X180271460Y-125765610D02*
X180507929Y-125645980D01*
X180507930Y-125645980D02*
X180724079Y-125483670D01*
X180724080Y-125483670D02*
X180908740Y-125284790D01*
X180908740Y-125284790D02*
X181054030Y-125058730D01*
X181054030Y-125058730D02*
X181155119Y-124817430D01*
X181155120Y-124817430D02*
X181210750Y-124581210D01*
X181210750Y-124581210D02*
X181228019Y-124351340D01*
X181228020Y-124351340D02*
X181228150Y-122151340D01*
X181228197Y-121351340D02*
X181228269Y-120118170D01*
X181228270Y-120118170D02*
X181228270Y-119465650D01*
X181228270Y-119465650D02*
X183428270Y-119465650D01*
X184228270Y-119465650D02*
X184590730Y-119465650D01*
X184590730Y-119465650D02*
X184590730Y-117265650D01*
X184590730Y-116465650D02*
X184590730Y-114265650D01*
X184590730Y-113465650D02*
X184590730Y-111265650D01*
X184590730Y-110465650D02*
X184590730Y-108265650D01*
X184590730Y-107465650D02*
X184590730Y-105265650D01*
X184590730Y-104465650D02*
X184590730Y-102265650D01*
X184590730Y-101465650D02*
X184590730Y-100682860D01*
X184590730Y-100682860D02*
X184182550Y-100682860D01*
X184182550Y-100682860D02*
X184182550Y-100033630D01*
D11*
X142571429Y-137733389D02*
X142476191Y-137685770D01*
X142476191Y-137685770D02*
X142428572Y-137638151D01*
X142428572Y-137638151D02*
X142380953Y-137542913D01*
X142380953Y-137542913D02*
X142380953Y-137495294D01*
X142380953Y-137495294D02*
X142428572Y-137400056D01*
X142428572Y-137400056D02*
X142476191Y-137352437D01*
X142476191Y-137352437D02*
X142571429Y-137304818D01*
X142571429Y-137304818D02*
X142761905Y-137304818D01*
X142761905Y-137304818D02*
X142857143Y-137352437D01*
X142857143Y-137352437D02*
X142904762Y-137400056D01*
X142904762Y-137400056D02*
X142952381Y-137495294D01*
X142952381Y-137495294D02*
X142952381Y-137542913D01*
X142952381Y-137542913D02*
X142904762Y-137638151D01*
X142904762Y-137638151D02*
X142857143Y-137685770D01*
X142857143Y-137685770D02*
X142761905Y-137733389D01*
X142761905Y-137733389D02*
X142571429Y-137733389D01*
X142571429Y-137733389D02*
X142476191Y-137781008D01*
X142476191Y-137781008D02*
X142428572Y-137828627D01*
X142428572Y-137828627D02*
X142380953Y-137923865D01*
X142380953Y-137923865D02*
X142380953Y-138114341D01*
X142380953Y-138114341D02*
X142428572Y-138209579D01*
X142428572Y-138209579D02*
X142476191Y-138257199D01*
X142476191Y-138257199D02*
X142571429Y-138304818D01*
X142571429Y-138304818D02*
X142761905Y-138304818D01*
X142761905Y-138304818D02*
X142857143Y-138257199D01*
X142857143Y-138257199D02*
X142904762Y-138209579D01*
X142904762Y-138209579D02*
X142952381Y-138114341D01*
X142952381Y-138114341D02*
X142952381Y-137923865D01*
X142952381Y-137923865D02*
X142904762Y-137828627D01*
X142904762Y-137828627D02*
X142857143Y-137781008D01*
X142857143Y-137781008D02*
X142761905Y-137733389D01*
X143428572Y-138304818D02*
X143619048Y-138304818D01*
X143619048Y-138304818D02*
X143714286Y-138257199D01*
X143714286Y-138257199D02*
X143761905Y-138209579D01*
X143761905Y-138209579D02*
X143857143Y-138066722D01*
X143857143Y-138066722D02*
X143904762Y-137876246D01*
X143904762Y-137876246D02*
X143904762Y-137495294D01*
X143904762Y-137495294D02*
X143857143Y-137400056D01*
X143857143Y-137400056D02*
X143809524Y-137352437D01*
X143809524Y-137352437D02*
X143714286Y-137304818D01*
X143714286Y-137304818D02*
X143523810Y-137304818D01*
X143523810Y-137304818D02*
X143428572Y-137352437D01*
X143428572Y-137352437D02*
X143380953Y-137400056D01*
X143380953Y-137400056D02*
X143333334Y-137495294D01*
X143333334Y-137495294D02*
X143333334Y-137733389D01*
X143333334Y-137733389D02*
X143380953Y-137828627D01*
X143380953Y-137828627D02*
X143428572Y-137876246D01*
X143428572Y-137876246D02*
X143523810Y-137923865D01*
X143523810Y-137923865D02*
X143714286Y-137923865D01*
X143714286Y-137923865D02*
X143809524Y-137876246D01*
X143809524Y-137876246D02*
X143857143Y-137828627D01*
X143857143Y-137828627D02*
X143904762Y-137733389D01*
X144333334Y-138209579D02*
X144380953Y-138257199D01*
X144380953Y-138257199D02*
X144333334Y-138304818D01*
X144333334Y-138304818D02*
X144285715Y-138257199D01*
X144285715Y-138257199D02*
X144333334Y-138209579D01*
X144333334Y-138209579D02*
X144333334Y-138304818D01*
X145285714Y-137304818D02*
X144809524Y-137304818D01*
X144809524Y-137304818D02*
X144761905Y-137781008D01*
X144761905Y-137781008D02*
X144809524Y-137733389D01*
X144809524Y-137733389D02*
X144904762Y-137685770D01*
X144904762Y-137685770D02*
X145142857Y-137685770D01*
X145142857Y-137685770D02*
X145238095Y-137733389D01*
X145238095Y-137733389D02*
X145285714Y-137781008D01*
X145285714Y-137781008D02*
X145333333Y-137876246D01*
X145333333Y-137876246D02*
X145333333Y-138114341D01*
X145333333Y-138114341D02*
X145285714Y-138209579D01*
X145285714Y-138209579D02*
X145238095Y-138257199D01*
X145238095Y-138257199D02*
X145142857Y-138304818D01*
X145142857Y-138304818D02*
X144904762Y-138304818D01*
X144904762Y-138304818D02*
X144809524Y-138257199D01*
X144809524Y-138257199D02*
X144761905Y-138209579D01*
X145952381Y-137304818D02*
X146047619Y-137304818D01*
X146047619Y-137304818D02*
X146142857Y-137352437D01*
X146142857Y-137352437D02*
X146190476Y-137400056D01*
X146190476Y-137400056D02*
X146238095Y-137495294D01*
X146238095Y-137495294D02*
X146285714Y-137685770D01*
X146285714Y-137685770D02*
X146285714Y-137923865D01*
X146285714Y-137923865D02*
X146238095Y-138114341D01*
X146238095Y-138114341D02*
X146190476Y-138209579D01*
X146190476Y-138209579D02*
X146142857Y-138257199D01*
X146142857Y-138257199D02*
X146047619Y-138304818D01*
X146047619Y-138304818D02*
X145952381Y-138304818D01*
X145952381Y-138304818D02*
X145857143Y-138257199D01*
X145857143Y-138257199D02*
X145809524Y-138209579D01*
X145809524Y-138209579D02*
X145761905Y-138114341D01*
X145761905Y-138114341D02*
X145714286Y-137923865D01*
X145714286Y-137923865D02*
X145714286Y-137685770D01*
X145714286Y-137685770D02*
X145761905Y-137495294D01*
X145761905Y-137495294D02*
X145809524Y-137400056D01*
X145809524Y-137400056D02*
X145857143Y-137352437D01*
X145857143Y-137352437D02*
X145952381Y-137304818D01*
X146904762Y-137304818D02*
X147000000Y-137304818D01*
X147000000Y-137304818D02*
X147095238Y-137352437D01*
X147095238Y-137352437D02*
X147142857Y-137400056D01*
X147142857Y-137400056D02*
X147190476Y-137495294D01*
X147190476Y-137495294D02*
X147238095Y-137685770D01*
X147238095Y-137685770D02*
X147238095Y-137923865D01*
X147238095Y-137923865D02*
X147190476Y-138114341D01*
X147190476Y-138114341D02*
X147142857Y-138209579D01*
X147142857Y-138209579D02*
X147095238Y-138257199D01*
X147095238Y-138257199D02*
X147000000Y-138304818D01*
X147000000Y-138304818D02*
X146904762Y-138304818D01*
X146904762Y-138304818D02*
X146809524Y-138257199D01*
X146809524Y-138257199D02*
X146761905Y-138209579D01*
X146761905Y-138209579D02*
X146714286Y-138114341D01*
X146714286Y-138114341D02*
X146666667Y-137923865D01*
X146666667Y-137923865D02*
X146666667Y-137685770D01*
X146666667Y-137685770D02*
X146714286Y-137495294D01*
X146714286Y-137495294D02*
X146761905Y-137400056D01*
X146761905Y-137400056D02*
X146809524Y-137352437D01*
X146809524Y-137352437D02*
X146904762Y-137304818D01*
X147857143Y-137304818D02*
X147952381Y-137304818D01*
X147952381Y-137304818D02*
X148047619Y-137352437D01*
X148047619Y-137352437D02*
X148095238Y-137400056D01*
X148095238Y-137400056D02*
X148142857Y-137495294D01*
X148142857Y-137495294D02*
X148190476Y-137685770D01*
X148190476Y-137685770D02*
X148190476Y-137923865D01*
X148190476Y-137923865D02*
X148142857Y-138114341D01*
X148142857Y-138114341D02*
X148095238Y-138209579D01*
X148095238Y-138209579D02*
X148047619Y-138257199D01*
X148047619Y-138257199D02*
X147952381Y-138304818D01*
X147952381Y-138304818D02*
X147857143Y-138304818D01*
X147857143Y-138304818D02*
X147761905Y-138257199D01*
X147761905Y-138257199D02*
X147714286Y-138209579D01*
X147714286Y-138209579D02*
X147666667Y-138114341D01*
X147666667Y-138114341D02*
X147619048Y-137923865D01*
X147619048Y-137923865D02*
X147619048Y-137685770D01*
X147619048Y-137685770D02*
X147666667Y-137495294D01*
X147666667Y-137495294D02*
X147714286Y-137400056D01*
X147714286Y-137400056D02*
X147761905Y-137352437D01*
X147761905Y-137352437D02*
X147857143Y-137304818D01*
X149380953Y-138304818D02*
X149380953Y-137638151D01*
X149380953Y-137733389D02*
X149428572Y-137685770D01*
X149428572Y-137685770D02*
X149523810Y-137638151D01*
X149523810Y-137638151D02*
X149666667Y-137638151D01*
X149666667Y-137638151D02*
X149761905Y-137685770D01*
X149761905Y-137685770D02*
X149809524Y-137781008D01*
X149809524Y-137781008D02*
X149809524Y-138304818D01*
X149809524Y-137781008D02*
X149857143Y-137685770D01*
X149857143Y-137685770D02*
X149952381Y-137638151D01*
X149952381Y-137638151D02*
X150095238Y-137638151D01*
X150095238Y-137638151D02*
X150190477Y-137685770D01*
X150190477Y-137685770D02*
X150238096Y-137781008D01*
X150238096Y-137781008D02*
X150238096Y-138304818D01*
X150714286Y-138304818D02*
X150714286Y-137638151D01*
X150714286Y-137733389D02*
X150761905Y-137685770D01*
X150761905Y-137685770D02*
X150857143Y-137638151D01*
X150857143Y-137638151D02*
X151000000Y-137638151D01*
X151000000Y-137638151D02*
X151095238Y-137685770D01*
X151095238Y-137685770D02*
X151142857Y-137781008D01*
X151142857Y-137781008D02*
X151142857Y-138304818D01*
X151142857Y-137781008D02*
X151190476Y-137685770D01*
X151190476Y-137685770D02*
X151285714Y-137638151D01*
X151285714Y-137638151D02*
X151428571Y-137638151D01*
X151428571Y-137638151D02*
X151523810Y-137685770D01*
X151523810Y-137685770D02*
X151571429Y-137781008D01*
X151571429Y-137781008D02*
X151571429Y-138304818D01*
D12*
X102250000Y-133000000D02*
X102250000Y-139586419D01*
X191750000Y-133000000D02*
X191750000Y-139586419D01*
X102250000Y-138999999D02*
X191750000Y-138999999D01*
X102250000Y-138999999D02*
X191750000Y-138999999D01*
X102250000Y-138999999D02*
X103376504Y-138413578D01*
X102250000Y-138999999D02*
X103376504Y-139586420D01*
X191750000Y-138999999D02*
X190623496Y-139586420D01*
X191750000Y-138999999D02*
X190623496Y-138413578D01*
D11*
X195663390Y-91818570D02*
X195615771Y-91913808D01*
X195615771Y-91913808D02*
X195568152Y-91961427D01*
X195568152Y-91961427D02*
X195472914Y-92009046D01*
X195472914Y-92009046D02*
X195425295Y-92009046D01*
X195425295Y-92009046D02*
X195330057Y-91961427D01*
X195330057Y-91961427D02*
X195282438Y-91913808D01*
X195282438Y-91913808D02*
X195234819Y-91818570D01*
X195234819Y-91818570D02*
X195234819Y-91628094D01*
X195234819Y-91628094D02*
X195282438Y-91532856D01*
X195282438Y-91532856D02*
X195330057Y-91485237D01*
X195330057Y-91485237D02*
X195425295Y-91437618D01*
X195425295Y-91437618D02*
X195472914Y-91437618D01*
X195472914Y-91437618D02*
X195568152Y-91485237D01*
X195568152Y-91485237D02*
X195615771Y-91532856D01*
X195615771Y-91532856D02*
X195663390Y-91628094D01*
X195663390Y-91628094D02*
X195663390Y-91818570D01*
X195663390Y-91818570D02*
X195711009Y-91913808D01*
X195711009Y-91913808D02*
X195758628Y-91961427D01*
X195758628Y-91961427D02*
X195853866Y-92009046D01*
X195853866Y-92009046D02*
X196044342Y-92009046D01*
X196044342Y-92009046D02*
X196139580Y-91961427D01*
X196139580Y-91961427D02*
X196187200Y-91913808D01*
X196187200Y-91913808D02*
X196234819Y-91818570D01*
X196234819Y-91818570D02*
X196234819Y-91628094D01*
X196234819Y-91628094D02*
X196187200Y-91532856D01*
X196187200Y-91532856D02*
X196139580Y-91485237D01*
X196139580Y-91485237D02*
X196044342Y-91437618D01*
X196044342Y-91437618D02*
X195853866Y-91437618D01*
X195853866Y-91437618D02*
X195758628Y-91485237D01*
X195758628Y-91485237D02*
X195711009Y-91532856D01*
X195711009Y-91532856D02*
X195663390Y-91628094D01*
X195663390Y-90866189D02*
X195615771Y-90961427D01*
X195615771Y-90961427D02*
X195568152Y-91009046D01*
X195568152Y-91009046D02*
X195472914Y-91056665D01*
X195472914Y-91056665D02*
X195425295Y-91056665D01*
X195425295Y-91056665D02*
X195330057Y-91009046D01*
X195330057Y-91009046D02*
X195282438Y-90961427D01*
X195282438Y-90961427D02*
X195234819Y-90866189D01*
X195234819Y-90866189D02*
X195234819Y-90675713D01*
X195234819Y-90675713D02*
X195282438Y-90580475D01*
X195282438Y-90580475D02*
X195330057Y-90532856D01*
X195330057Y-90532856D02*
X195425295Y-90485237D01*
X195425295Y-90485237D02*
X195472914Y-90485237D01*
X195472914Y-90485237D02*
X195568152Y-90532856D01*
X195568152Y-90532856D02*
X195615771Y-90580475D01*
X195615771Y-90580475D02*
X195663390Y-90675713D01*
X195663390Y-90675713D02*
X195663390Y-90866189D01*
X195663390Y-90866189D02*
X195711009Y-90961427D01*
X195711009Y-90961427D02*
X195758628Y-91009046D01*
X195758628Y-91009046D02*
X195853866Y-91056665D01*
X195853866Y-91056665D02*
X196044342Y-91056665D01*
X196044342Y-91056665D02*
X196139580Y-91009046D01*
X196139580Y-91009046D02*
X196187200Y-90961427D01*
X196187200Y-90961427D02*
X196234819Y-90866189D01*
X196234819Y-90866189D02*
X196234819Y-90675713D01*
X196234819Y-90675713D02*
X196187200Y-90580475D01*
X196187200Y-90580475D02*
X196139580Y-90532856D01*
X196139580Y-90532856D02*
X196044342Y-90485237D01*
X196044342Y-90485237D02*
X195853866Y-90485237D01*
X195853866Y-90485237D02*
X195758628Y-90532856D01*
X195758628Y-90532856D02*
X195711009Y-90580475D01*
X195711009Y-90580475D02*
X195663390Y-90675713D01*
X196139580Y-90056665D02*
X196187200Y-90009046D01*
X196187200Y-90009046D02*
X196234819Y-90056665D01*
X196234819Y-90056665D02*
X196187200Y-90104284D01*
X196187200Y-90104284D02*
X196139580Y-90056665D01*
X196139580Y-90056665D02*
X196234819Y-90056665D01*
X195234819Y-89389999D02*
X195234819Y-89294761D01*
X195234819Y-89294761D02*
X195282438Y-89199523D01*
X195282438Y-89199523D02*
X195330057Y-89151904D01*
X195330057Y-89151904D02*
X195425295Y-89104285D01*
X195425295Y-89104285D02*
X195615771Y-89056666D01*
X195615771Y-89056666D02*
X195853866Y-89056666D01*
X195853866Y-89056666D02*
X196044342Y-89104285D01*
X196044342Y-89104285D02*
X196139580Y-89151904D01*
X196139580Y-89151904D02*
X196187200Y-89199523D01*
X196187200Y-89199523D02*
X196234819Y-89294761D01*
X196234819Y-89294761D02*
X196234819Y-89389999D01*
X196234819Y-89389999D02*
X196187200Y-89485237D01*
X196187200Y-89485237D02*
X196139580Y-89532856D01*
X196139580Y-89532856D02*
X196044342Y-89580475D01*
X196044342Y-89580475D02*
X195853866Y-89628094D01*
X195853866Y-89628094D02*
X195615771Y-89628094D01*
X195615771Y-89628094D02*
X195425295Y-89580475D01*
X195425295Y-89580475D02*
X195330057Y-89532856D01*
X195330057Y-89532856D02*
X195282438Y-89485237D01*
X195282438Y-89485237D02*
X195234819Y-89389999D01*
X195234819Y-88437618D02*
X195234819Y-88342380D01*
X195234819Y-88342380D02*
X195282438Y-88247142D01*
X195282438Y-88247142D02*
X195330057Y-88199523D01*
X195330057Y-88199523D02*
X195425295Y-88151904D01*
X195425295Y-88151904D02*
X195615771Y-88104285D01*
X195615771Y-88104285D02*
X195853866Y-88104285D01*
X195853866Y-88104285D02*
X196044342Y-88151904D01*
X196044342Y-88151904D02*
X196139580Y-88199523D01*
X196139580Y-88199523D02*
X196187200Y-88247142D01*
X196187200Y-88247142D02*
X196234819Y-88342380D01*
X196234819Y-88342380D02*
X196234819Y-88437618D01*
X196234819Y-88437618D02*
X196187200Y-88532856D01*
X196187200Y-88532856D02*
X196139580Y-88580475D01*
X196139580Y-88580475D02*
X196044342Y-88628094D01*
X196044342Y-88628094D02*
X195853866Y-88675713D01*
X195853866Y-88675713D02*
X195615771Y-88675713D01*
X195615771Y-88675713D02*
X195425295Y-88628094D01*
X195425295Y-88628094D02*
X195330057Y-88580475D01*
X195330057Y-88580475D02*
X195282438Y-88532856D01*
X195282438Y-88532856D02*
X195234819Y-88437618D01*
X195234819Y-87485237D02*
X195234819Y-87389999D01*
X195234819Y-87389999D02*
X195282438Y-87294761D01*
X195282438Y-87294761D02*
X195330057Y-87247142D01*
X195330057Y-87247142D02*
X195425295Y-87199523D01*
X195425295Y-87199523D02*
X195615771Y-87151904D01*
X195615771Y-87151904D02*
X195853866Y-87151904D01*
X195853866Y-87151904D02*
X196044342Y-87199523D01*
X196044342Y-87199523D02*
X196139580Y-87247142D01*
X196139580Y-87247142D02*
X196187200Y-87294761D01*
X196187200Y-87294761D02*
X196234819Y-87389999D01*
X196234819Y-87389999D02*
X196234819Y-87485237D01*
X196234819Y-87485237D02*
X196187200Y-87580475D01*
X196187200Y-87580475D02*
X196139580Y-87628094D01*
X196139580Y-87628094D02*
X196044342Y-87675713D01*
X196044342Y-87675713D02*
X195853866Y-87723332D01*
X195853866Y-87723332D02*
X195615771Y-87723332D01*
X195615771Y-87723332D02*
X195425295Y-87675713D01*
X195425295Y-87675713D02*
X195330057Y-87628094D01*
X195330057Y-87628094D02*
X195282438Y-87580475D01*
X195282438Y-87580475D02*
X195234819Y-87485237D01*
X195234819Y-86532856D02*
X195234819Y-86437618D01*
X195234819Y-86437618D02*
X195282438Y-86342380D01*
X195282438Y-86342380D02*
X195330057Y-86294761D01*
X195330057Y-86294761D02*
X195425295Y-86247142D01*
X195425295Y-86247142D02*
X195615771Y-86199523D01*
X195615771Y-86199523D02*
X195853866Y-86199523D01*
X195853866Y-86199523D02*
X196044342Y-86247142D01*
X196044342Y-86247142D02*
X196139580Y-86294761D01*
X196139580Y-86294761D02*
X196187200Y-86342380D01*
X196187200Y-86342380D02*
X196234819Y-86437618D01*
X196234819Y-86437618D02*
X196234819Y-86532856D01*
X196234819Y-86532856D02*
X196187200Y-86628094D01*
X196187200Y-86628094D02*
X196139580Y-86675713D01*
X196139580Y-86675713D02*
X196044342Y-86723332D01*
X196044342Y-86723332D02*
X195853866Y-86770951D01*
X195853866Y-86770951D02*
X195615771Y-86770951D01*
X195615771Y-86770951D02*
X195425295Y-86723332D01*
X195425295Y-86723332D02*
X195330057Y-86675713D01*
X195330057Y-86675713D02*
X195282438Y-86628094D01*
X195282438Y-86628094D02*
X195234819Y-86532856D01*
X196234819Y-85009046D02*
X195568152Y-85009046D01*
X195663390Y-85009046D02*
X195615771Y-84961427D01*
X195615771Y-84961427D02*
X195568152Y-84866189D01*
X195568152Y-84866189D02*
X195568152Y-84723332D01*
X195568152Y-84723332D02*
X195615771Y-84628094D01*
X195615771Y-84628094D02*
X195711009Y-84580475D01*
X195711009Y-84580475D02*
X196234819Y-84580475D01*
X195711009Y-84580475D02*
X195615771Y-84532856D01*
X195615771Y-84532856D02*
X195568152Y-84437618D01*
X195568152Y-84437618D02*
X195568152Y-84294761D01*
X195568152Y-84294761D02*
X195615771Y-84199522D01*
X195615771Y-84199522D02*
X195711009Y-84151903D01*
X195711009Y-84151903D02*
X196234819Y-84151903D01*
X196234819Y-83675713D02*
X195568152Y-83675713D01*
X195663390Y-83675713D02*
X195615771Y-83628094D01*
X195615771Y-83628094D02*
X195568152Y-83532856D01*
X195568152Y-83532856D02*
X195568152Y-83389999D01*
X195568152Y-83389999D02*
X195615771Y-83294761D01*
X195615771Y-83294761D02*
X195711009Y-83247142D01*
X195711009Y-83247142D02*
X196234819Y-83247142D01*
X195711009Y-83247142D02*
X195615771Y-83199523D01*
X195615771Y-83199523D02*
X195568152Y-83104285D01*
X195568152Y-83104285D02*
X195568152Y-82961428D01*
X195568152Y-82961428D02*
X195615771Y-82866189D01*
X195615771Y-82866189D02*
X195711009Y-82818570D01*
X195711009Y-82818570D02*
X196234819Y-82818570D01*
D12*
X194930000Y-43390000D02*
X197516420Y-43390000D01*
X194930000Y-131390000D02*
X197516420Y-131390000D01*
X196930000Y-43390000D02*
X196930000Y-131390000D01*
X196930000Y-43390000D02*
X196930000Y-131390000D01*
X196930000Y-43390000D02*
X197516421Y-44516504D01*
X196930000Y-43390000D02*
X196343579Y-44516504D01*
X196930000Y-131390000D02*
X196343579Y-130263496D01*
X196930000Y-131390000D02*
X197516421Y-130263496D01*
M02*
