%TF.GenerationSoftware,KiCad,Pcbnew,8.0.3-8.0.3-0~ubuntu22.04.1*%
%TF.CreationDate,2024-07-11T11:22:04+05:30*%
%TF.ProjectId,DUT_Interface_board_v0.2,4455545f-496e-4746-9572-666163655f62,rev?*%
%TF.SameCoordinates,Original*%
%TF.FileFunction,Legend,Bot*%
%TF.FilePolarity,Positive*%
%FSLAX46Y46*%
G04 Gerber Fmt 4.6, Leading zero omitted, Abs format (unit mm)*
G04 Created by KiCad (PCBNEW 8.0.3-8.0.3-0~ubuntu22.04.1) date 2024-07-11 11:22:04*
%MOMM*%
%LPD*%
G01*
G04 APERTURE LIST*
%ADD10C,0.100000*%
%ADD11C,0.150000*%
%ADD12C,0.120000*%
G04 APERTURE END LIST*
D10*
X102250000Y-44500000D02*
X103350000Y-44500000D01*
X103750000Y-44500000D02*
X104850000Y-44500000D01*
X105250000Y-44500000D02*
X106350000Y-44500000D01*
X106750000Y-44500000D02*
X107850000Y-44500000D01*
X108250000Y-44500000D02*
X109350000Y-44500000D01*
X109750000Y-44500000D02*
X110850000Y-44500000D01*
X111250000Y-44500000D02*
X112350000Y-44500000D01*
X112750000Y-44500000D02*
X113850000Y-44500000D01*
X114250000Y-44500000D02*
X115350000Y-44500000D01*
X115750000Y-44500000D02*
X116850000Y-44500000D01*
X117250000Y-44500000D02*
X118350000Y-44500000D01*
X118750000Y-44500000D02*
X119850000Y-44500000D01*
X120250000Y-44500000D02*
X121350000Y-44500000D01*
X121750000Y-44500000D02*
X122850000Y-44500000D01*
X123250000Y-44500000D02*
X124350000Y-44500000D01*
X124750000Y-44500000D02*
X125850000Y-44500000D01*
X126250000Y-44500000D02*
X127350000Y-44500000D01*
X127750000Y-44500000D02*
X128850000Y-44500000D01*
X129250000Y-44500000D02*
X130350000Y-44500000D01*
X130750000Y-44500000D02*
X131850000Y-44500000D01*
X132250000Y-44500000D02*
X133350000Y-44500000D01*
X133750000Y-44500000D02*
X134850000Y-44500000D01*
X135250000Y-44500000D02*
X136350000Y-44500000D01*
X136750000Y-44500000D02*
X137850000Y-44500000D01*
X138250000Y-44500000D02*
X139350000Y-44500000D01*
X139750000Y-44500000D02*
X140850000Y-44500000D01*
X141250000Y-44500000D02*
X142350000Y-44500000D01*
X142750000Y-44500000D02*
X143850000Y-44500000D01*
X144250000Y-44500000D02*
X145350000Y-44500000D01*
X145750000Y-44500000D02*
X146850000Y-44500000D01*
X147250000Y-44500000D02*
X148350000Y-44500000D01*
X148750000Y-44500000D02*
X149850000Y-44500000D01*
X150250000Y-44500000D02*
X151350000Y-44500000D01*
X151750000Y-44500000D02*
X152850000Y-44500000D01*
X153250000Y-44500000D02*
X154350000Y-44500000D01*
X154750000Y-44500000D02*
X155850000Y-44500000D01*
X156250000Y-44500000D02*
X157350000Y-44500000D01*
X157750000Y-44500000D02*
X158850000Y-44500000D01*
X159250000Y-44500000D02*
X160350000Y-44500000D01*
X160750000Y-44500000D02*
X161850000Y-44500000D01*
X162250000Y-44500000D02*
X163350000Y-44500000D01*
X163750000Y-44500000D02*
X164850000Y-44500000D01*
X165250000Y-44500000D02*
X166350000Y-44500000D01*
X166750000Y-44500000D02*
X167850000Y-44500000D01*
X168250000Y-44500000D02*
X169350000Y-44500000D01*
X169750000Y-44500000D02*
X170850000Y-44500000D01*
X171250000Y-44500000D02*
X172350000Y-44500000D01*
X172750000Y-44500000D02*
X173850000Y-44500000D01*
X174250000Y-44500000D02*
X175350000Y-44500000D01*
X175750000Y-44500000D02*
X176850000Y-44500000D01*
X177250000Y-44500000D02*
X178350000Y-44500000D01*
X178750000Y-44500000D02*
X179850000Y-44500000D01*
X180250000Y-44500000D02*
X181350000Y-44500000D01*
X181750000Y-44500000D02*
X182850000Y-44500000D01*
X183250000Y-44500000D02*
X184350000Y-44500000D01*
X184750000Y-44500000D02*
X185850000Y-44500000D01*
X186250000Y-44500000D02*
X187350000Y-44500000D01*
X187750000Y-44500000D02*
X188850000Y-44500000D01*
X189250000Y-44500000D02*
X190350000Y-44500000D01*
X190750000Y-44500000D02*
X191750000Y-44500000D01*
X191750000Y-44500000D02*
X191750000Y-45600000D01*
X191750000Y-46000000D02*
X191750000Y-47100000D01*
X191750000Y-47500000D02*
X191750000Y-48600000D01*
X191750000Y-49000000D02*
X191750000Y-50100000D01*
X191750000Y-50500000D02*
X191750000Y-51600000D01*
X191750000Y-52000000D02*
X191750000Y-53100000D01*
X191750000Y-53500000D02*
X191750000Y-54600000D01*
X191750000Y-55000000D02*
X191750000Y-56100000D01*
X191750000Y-56500000D02*
X191750000Y-57600000D01*
X191750000Y-58000000D02*
X191750000Y-59100000D01*
X191750000Y-59500000D02*
X191750000Y-60600000D01*
X191750000Y-61000000D02*
X191750000Y-62100000D01*
X191750000Y-62500000D02*
X191750000Y-63600000D01*
X191750000Y-64000000D02*
X191750000Y-65100000D01*
X191750000Y-65500000D02*
X191750000Y-66600000D01*
X191750000Y-67000000D02*
X191750000Y-68100000D01*
X191750000Y-68500000D02*
X191750000Y-69600000D01*
X191750000Y-70000000D02*
X191750000Y-71100000D01*
X191750000Y-71500000D02*
X191750000Y-72600000D01*
X191750000Y-73000000D02*
X191750000Y-74100000D01*
X191750000Y-74500000D02*
X191750000Y-75600000D01*
X191750000Y-76000000D02*
X191750000Y-77100000D01*
X191750000Y-77500000D02*
X191750000Y-78600000D01*
X191750000Y-79000000D02*
X191750000Y-80100000D01*
X191750000Y-80500000D02*
X191750000Y-81600000D01*
X191750000Y-82000000D02*
X191750000Y-83100000D01*
X191750000Y-83500000D02*
X191750000Y-84600000D01*
X191750000Y-85000000D02*
X191750000Y-86100000D01*
X191750000Y-86500000D02*
X191750000Y-87600000D01*
X191750000Y-88000000D02*
X191750000Y-89100000D01*
X191750000Y-89500000D02*
X191750000Y-90600000D01*
X191750000Y-91000000D02*
X191750000Y-92100000D01*
X191750000Y-92500000D02*
X191750000Y-93600000D01*
X191750000Y-94000000D02*
X191750000Y-95100000D01*
X191750000Y-95500000D02*
X191750000Y-96600000D01*
X191750000Y-97000000D02*
X191750000Y-98100000D01*
X191750000Y-98500000D02*
X191750000Y-99600000D01*
X191750000Y-100000000D02*
X191750000Y-101100000D01*
X191750000Y-101500000D02*
X191750000Y-102600000D01*
X191750000Y-103000000D02*
X191750000Y-104100000D01*
X191750000Y-104500000D02*
X191750000Y-105600000D01*
X191750000Y-106000000D02*
X191750000Y-107100000D01*
X191750000Y-107500000D02*
X191750000Y-108600000D01*
X191750000Y-109000000D02*
X191750000Y-110100000D01*
X191750000Y-110500000D02*
X191750000Y-111600000D01*
X191750000Y-112000000D02*
X191750000Y-113100000D01*
X191750000Y-113500000D02*
X191750000Y-114600000D01*
X191750000Y-115000000D02*
X191750000Y-116100000D01*
X191750000Y-116500000D02*
X191750000Y-117600000D01*
X191750000Y-118000000D02*
X191750000Y-119100000D01*
X191750000Y-119500000D02*
X191750000Y-120600000D01*
X191750000Y-121000000D02*
X191750000Y-122100000D01*
X191750000Y-122500000D02*
X191750000Y-123600000D01*
X191750000Y-124000000D02*
X191750000Y-125100000D01*
X191750000Y-125500000D02*
X191750000Y-126600000D01*
X191750000Y-127000000D02*
X191750000Y-128100000D01*
X191750000Y-128500000D02*
X191750000Y-129600000D01*
X191750000Y-130000000D02*
X191750000Y-131100000D01*
X191750000Y-131500000D02*
X191750000Y-132500000D01*
X191750000Y-132500000D02*
X190650000Y-132500000D01*
X190250000Y-132500000D02*
X189150000Y-132500000D01*
X188750000Y-132500000D02*
X187650000Y-132500000D01*
X187250000Y-132500000D02*
X186150000Y-132500000D01*
X185750000Y-132500000D02*
X184650000Y-132500000D01*
X184250000Y-132500000D02*
X183150000Y-132500000D01*
X182750000Y-132500000D02*
X181650000Y-132500000D01*
X181250000Y-132500000D02*
X180150000Y-132500000D01*
X179750000Y-132500000D02*
X178650000Y-132500000D01*
X178250000Y-132500000D02*
X177150000Y-132500000D01*
X176750000Y-132500000D02*
X175650000Y-132500000D01*
X175250000Y-132500000D02*
X174150000Y-132500000D01*
X173750000Y-132500000D02*
X172650000Y-132500000D01*
X172250000Y-132500000D02*
X171150000Y-132500000D01*
X170750000Y-132500000D02*
X169650000Y-132500000D01*
X169250000Y-132500000D02*
X168150000Y-132500000D01*
X167750000Y-132500000D02*
X166650000Y-132500000D01*
X166250000Y-132500000D02*
X165150000Y-132500000D01*
X164750000Y-132500000D02*
X163650000Y-132500000D01*
X163250000Y-132500000D02*
X162150000Y-132500000D01*
X161750000Y-132500000D02*
X160650000Y-132500000D01*
X160250000Y-132500000D02*
X159150000Y-132500000D01*
X158750000Y-132500000D02*
X157650000Y-132500000D01*
X157250000Y-132500000D02*
X156150000Y-132500000D01*
X155750000Y-132500000D02*
X154650000Y-132500000D01*
X154250000Y-132500000D02*
X153150000Y-132500000D01*
X152750000Y-132500000D02*
X151650000Y-132500000D01*
X151250000Y-132500000D02*
X150150000Y-132500000D01*
X149750000Y-132500000D02*
X148650000Y-132500000D01*
X148250000Y-132500000D02*
X147150000Y-132500000D01*
X146750000Y-132500000D02*
X145650000Y-132500000D01*
X145250000Y-132500000D02*
X144150000Y-132500000D01*
X143750000Y-132500000D02*
X142650000Y-132500000D01*
X142250000Y-132500000D02*
X141150000Y-132500000D01*
X140750000Y-132500000D02*
X139650000Y-132500000D01*
X139250000Y-132500000D02*
X138150000Y-132500000D01*
X137750000Y-132500000D02*
X136650000Y-132500000D01*
X136250000Y-132500000D02*
X135150000Y-132500000D01*
X134750000Y-132500000D02*
X133650000Y-132500000D01*
X133250000Y-132500000D02*
X132150000Y-132500000D01*
X131750000Y-132500000D02*
X130650000Y-132500000D01*
X130250000Y-132500000D02*
X129150000Y-132500000D01*
X128750000Y-132500000D02*
X127650000Y-132500000D01*
X127250000Y-132500000D02*
X126150000Y-132500000D01*
X125750000Y-132500000D02*
X124650000Y-132500000D01*
X124250000Y-132500000D02*
X123150000Y-132500000D01*
X122750000Y-132500000D02*
X121650000Y-132500000D01*
X121250000Y-132500000D02*
X120150000Y-132500000D01*
X119750000Y-132500000D02*
X118650000Y-132500000D01*
X118250000Y-132500000D02*
X117150000Y-132500000D01*
X116750000Y-132500000D02*
X115650000Y-132500000D01*
X115250000Y-132500000D02*
X114150000Y-132500000D01*
X113750000Y-132500000D02*
X112650000Y-132500000D01*
X112250000Y-132500000D02*
X111150000Y-132500000D01*
X110750000Y-132500000D02*
X109650000Y-132500000D01*
X109250000Y-132500000D02*
X108150000Y-132500000D01*
X107750000Y-132500000D02*
X106650000Y-132500000D01*
X106250000Y-132500000D02*
X105150000Y-132500000D01*
X104750000Y-132500000D02*
X103650000Y-132500000D01*
X103250000Y-132500000D02*
X102250000Y-132500000D01*
X102250000Y-132500000D02*
X102250000Y-131400000D01*
X102250000Y-131000000D02*
X102250000Y-129900000D01*
X102250000Y-129500000D02*
X102250000Y-128400000D01*
X102250000Y-128000000D02*
X102250000Y-126900000D01*
X102250000Y-126500000D02*
X102250000Y-125400000D01*
X102250000Y-125000000D02*
X102250000Y-123900000D01*
X102250000Y-123500000D02*
X102250000Y-122400000D01*
X102250000Y-122000000D02*
X102250000Y-120900000D01*
X102250000Y-120500000D02*
X102250000Y-119400000D01*
X102250000Y-119000000D02*
X102250000Y-117900000D01*
X102250000Y-117500000D02*
X102250000Y-116400000D01*
X102250000Y-116000000D02*
X102250000Y-114900000D01*
X102250000Y-114500000D02*
X102250000Y-113400000D01*
X102250000Y-113000000D02*
X102250000Y-111900000D01*
X102250000Y-111500000D02*
X102250000Y-110400000D01*
X102250000Y-110000000D02*
X102250000Y-108900000D01*
X102250000Y-108500000D02*
X102250000Y-107400000D01*
X102250000Y-107000000D02*
X102250000Y-105900000D01*
X102250000Y-105500000D02*
X102250000Y-104400000D01*
X102250000Y-104000000D02*
X102250000Y-102900000D01*
X102250000Y-102500000D02*
X102250000Y-101400000D01*
X102250000Y-101000000D02*
X102250000Y-99900000D01*
X102250000Y-99500000D02*
X102250000Y-98400000D01*
X102250000Y-98000000D02*
X102250000Y-96900000D01*
X102250000Y-96500000D02*
X102250000Y-95400000D01*
X102250000Y-95000000D02*
X102250000Y-93900000D01*
X102250000Y-93500000D02*
X102250000Y-92400000D01*
X102250000Y-92000000D02*
X102250000Y-90900000D01*
X102250000Y-90500000D02*
X102250000Y-89400000D01*
X102250000Y-89000000D02*
X102250000Y-87900000D01*
X102250000Y-87500000D02*
X102250000Y-86400000D01*
X102250000Y-86000000D02*
X102250000Y-84900000D01*
X102250000Y-84500000D02*
X102250000Y-83400000D01*
X102250000Y-83000000D02*
X102250000Y-81900000D01*
X102250000Y-81500000D02*
X102250000Y-80400000D01*
X102250000Y-80000000D02*
X102250000Y-78900000D01*
X102250000Y-78500000D02*
X102250000Y-77400000D01*
X102250000Y-77000000D02*
X102250000Y-75900000D01*
X102250000Y-75500000D02*
X102250000Y-74400000D01*
X102250000Y-74000000D02*
X102250000Y-72900000D01*
X102250000Y-72500000D02*
X102250000Y-71400000D01*
X102250000Y-71000000D02*
X102250000Y-69900000D01*
X102250000Y-69500000D02*
X102250000Y-68400000D01*
X102250000Y-68000000D02*
X102250000Y-66900000D01*
X102250000Y-66500000D02*
X102250000Y-65400000D01*
X102250000Y-65000000D02*
X102250000Y-63900000D01*
X102250000Y-63500000D02*
X102250000Y-62400000D01*
X102250000Y-62000000D02*
X102250000Y-60900000D01*
X102250000Y-60500000D02*
X102250000Y-59400000D01*
X102250000Y-59000000D02*
X102250000Y-57900000D01*
X102250000Y-57500000D02*
X102250000Y-56400000D01*
X102250000Y-56000000D02*
X102250000Y-54900000D01*
X102250000Y-54500000D02*
X102250000Y-53400000D01*
X102250000Y-53000000D02*
X102250000Y-51900000D01*
X102250000Y-51500000D02*
X102250000Y-50400000D01*
X102250000Y-50000000D02*
X102250000Y-48900000D01*
X102250000Y-48500000D02*
X102250000Y-47400000D01*
X102250000Y-47000000D02*
X102250000Y-45900000D01*
X102250000Y-45500000D02*
X102250000Y-44500000D01*
D11*
X127203363Y-130201276D02*
X127917648Y-130201276D01*
X127917648Y-130201276D02*
X128060505Y-130153657D01*
X128060505Y-130153657D02*
X128155744Y-130058419D01*
X128155744Y-130058419D02*
X128203363Y-129915562D01*
X128203363Y-129915562D02*
X128203363Y-129820324D01*
X128203363Y-130677467D02*
X127203363Y-130677467D01*
X127203363Y-130677467D02*
X127203363Y-131058419D01*
X127203363Y-131058419D02*
X127250982Y-131153657D01*
X127250982Y-131153657D02*
X127298601Y-131201276D01*
X127298601Y-131201276D02*
X127393839Y-131248895D01*
X127393839Y-131248895D02*
X127536696Y-131248895D01*
X127536696Y-131248895D02*
X127631934Y-131201276D01*
X127631934Y-131201276D02*
X127679553Y-131153657D01*
X127679553Y-131153657D02*
X127727172Y-131058419D01*
X127727172Y-131058419D02*
X127727172Y-130677467D01*
X127203363Y-132153657D02*
X127203363Y-131677467D01*
X127203363Y-131677467D02*
X127679553Y-131629848D01*
X127679553Y-131629848D02*
X127631934Y-131677467D01*
X127631934Y-131677467D02*
X127584315Y-131772705D01*
X127584315Y-131772705D02*
X127584315Y-132010800D01*
X127584315Y-132010800D02*
X127631934Y-132106038D01*
X127631934Y-132106038D02*
X127679553Y-132153657D01*
X127679553Y-132153657D02*
X127774791Y-132201276D01*
X127774791Y-132201276D02*
X128012886Y-132201276D01*
X128012886Y-132201276D02*
X128108124Y-132153657D01*
X128108124Y-132153657D02*
X128155744Y-132106038D01*
X128155744Y-132106038D02*
X128203363Y-132010800D01*
X128203363Y-132010800D02*
X128203363Y-131772705D01*
X128203363Y-131772705D02*
X128155744Y-131677467D01*
X128155744Y-131677467D02*
X128108124Y-131629848D01*
X128203363Y-133153657D02*
X128203363Y-132582229D01*
X128203363Y-132867943D02*
X127203363Y-132867943D01*
X127203363Y-132867943D02*
X127346220Y-132772705D01*
X127346220Y-132772705D02*
X127441458Y-132677467D01*
X127441458Y-132677467D02*
X127489077Y-132582229D01*
X173770819Y-138783076D02*
X174485104Y-138783076D01*
X174485104Y-138783076D02*
X174627961Y-138735457D01*
X174627961Y-138735457D02*
X174723200Y-138640219D01*
X174723200Y-138640219D02*
X174770819Y-138497362D01*
X174770819Y-138497362D02*
X174770819Y-138402124D01*
X174770819Y-139783076D02*
X174770819Y-139211648D01*
X174770819Y-139497362D02*
X173770819Y-139497362D01*
X173770819Y-139497362D02*
X173913676Y-139402124D01*
X173913676Y-139402124D02*
X174008914Y-139306886D01*
X174008914Y-139306886D02*
X174056533Y-139211648D01*
X174104152Y-140640219D02*
X174770819Y-140640219D01*
X173723200Y-140402124D02*
X174437485Y-140164029D01*
X174437485Y-140164029D02*
X174437485Y-140783076D01*
X166349267Y-130144676D02*
X167063552Y-130144676D01*
X167063552Y-130144676D02*
X167206409Y-130097057D01*
X167206409Y-130097057D02*
X167301648Y-130001819D01*
X167301648Y-130001819D02*
X167349267Y-129858962D01*
X167349267Y-129858962D02*
X167349267Y-129763724D01*
X167349267Y-130620867D02*
X166349267Y-130620867D01*
X166349267Y-130620867D02*
X166349267Y-131001819D01*
X166349267Y-131001819D02*
X166396886Y-131097057D01*
X166396886Y-131097057D02*
X166444505Y-131144676D01*
X166444505Y-131144676D02*
X166539743Y-131192295D01*
X166539743Y-131192295D02*
X166682600Y-131192295D01*
X166682600Y-131192295D02*
X166777838Y-131144676D01*
X166777838Y-131144676D02*
X166825457Y-131097057D01*
X166825457Y-131097057D02*
X166873076Y-131001819D01*
X166873076Y-131001819D02*
X166873076Y-130620867D01*
X166349267Y-131525629D02*
X166349267Y-132192295D01*
X166349267Y-132192295D02*
X167349267Y-131763724D01*
X166349267Y-133049438D02*
X166349267Y-132573248D01*
X166349267Y-132573248D02*
X166825457Y-132525629D01*
X166825457Y-132525629D02*
X166777838Y-132573248D01*
X166777838Y-132573248D02*
X166730219Y-132668486D01*
X166730219Y-132668486D02*
X166730219Y-132906581D01*
X166730219Y-132906581D02*
X166777838Y-133001819D01*
X166777838Y-133001819D02*
X166825457Y-133049438D01*
X166825457Y-133049438D02*
X166920695Y-133097057D01*
X166920695Y-133097057D02*
X167158790Y-133097057D01*
X167158790Y-133097057D02*
X167254028Y-133049438D01*
X167254028Y-133049438D02*
X167301648Y-133001819D01*
X167301648Y-133001819D02*
X167349267Y-132906581D01*
X167349267Y-132906581D02*
X167349267Y-132668486D01*
X167349267Y-132668486D02*
X167301648Y-132573248D01*
X167301648Y-132573248D02*
X167254028Y-132525629D01*
X151237219Y-45543076D02*
X151951504Y-45543076D01*
X151951504Y-45543076D02*
X152094361Y-45495457D01*
X152094361Y-45495457D02*
X152189600Y-45400219D01*
X152189600Y-45400219D02*
X152237219Y-45257362D01*
X152237219Y-45257362D02*
X152237219Y-45162124D01*
X152237219Y-46019267D02*
X151237219Y-46019267D01*
X151237219Y-46019267D02*
X151237219Y-46400219D01*
X151237219Y-46400219D02*
X151284838Y-46495457D01*
X151284838Y-46495457D02*
X151332457Y-46543076D01*
X151332457Y-46543076D02*
X151427695Y-46590695D01*
X151427695Y-46590695D02*
X151570552Y-46590695D01*
X151570552Y-46590695D02*
X151665790Y-46543076D01*
X151665790Y-46543076D02*
X151713409Y-46495457D01*
X151713409Y-46495457D02*
X151761028Y-46400219D01*
X151761028Y-46400219D02*
X151761028Y-46019267D01*
X151237219Y-47447838D02*
X151237219Y-47257362D01*
X151237219Y-47257362D02*
X151284838Y-47162124D01*
X151284838Y-47162124D02*
X151332457Y-47114505D01*
X151332457Y-47114505D02*
X151475314Y-47019267D01*
X151475314Y-47019267D02*
X151665790Y-46971648D01*
X151665790Y-46971648D02*
X152046742Y-46971648D01*
X152046742Y-46971648D02*
X152141980Y-47019267D01*
X152141980Y-47019267D02*
X152189600Y-47066886D01*
X152189600Y-47066886D02*
X152237219Y-47162124D01*
X152237219Y-47162124D02*
X152237219Y-47352600D01*
X152237219Y-47352600D02*
X152189600Y-47447838D01*
X152189600Y-47447838D02*
X152141980Y-47495457D01*
X152141980Y-47495457D02*
X152046742Y-47543076D01*
X152046742Y-47543076D02*
X151808647Y-47543076D01*
X151808647Y-47543076D02*
X151713409Y-47495457D01*
X151713409Y-47495457D02*
X151665790Y-47447838D01*
X151665790Y-47447838D02*
X151618171Y-47352600D01*
X151618171Y-47352600D02*
X151618171Y-47162124D01*
X151618171Y-47162124D02*
X151665790Y-47066886D01*
X151665790Y-47066886D02*
X151713409Y-47019267D01*
X151713409Y-47019267D02*
X151808647Y-46971648D01*
X151237219Y-48162124D02*
X151237219Y-48257362D01*
X151237219Y-48257362D02*
X151284838Y-48352600D01*
X151284838Y-48352600D02*
X151332457Y-48400219D01*
X151332457Y-48400219D02*
X151427695Y-48447838D01*
X151427695Y-48447838D02*
X151618171Y-48495457D01*
X151618171Y-48495457D02*
X151856266Y-48495457D01*
X151856266Y-48495457D02*
X152046742Y-48447838D01*
X152046742Y-48447838D02*
X152141980Y-48400219D01*
X152141980Y-48400219D02*
X152189600Y-48352600D01*
X152189600Y-48352600D02*
X152237219Y-48257362D01*
X152237219Y-48257362D02*
X152237219Y-48162124D01*
X152237219Y-48162124D02*
X152189600Y-48066886D01*
X152189600Y-48066886D02*
X152141980Y-48019267D01*
X152141980Y-48019267D02*
X152046742Y-47971648D01*
X152046742Y-47971648D02*
X151856266Y-47924029D01*
X151856266Y-47924029D02*
X151618171Y-47924029D01*
X151618171Y-47924029D02*
X151427695Y-47971648D01*
X151427695Y-47971648D02*
X151332457Y-48019267D01*
X151332457Y-48019267D02*
X151284838Y-48066886D01*
X151284838Y-48066886D02*
X151237219Y-48162124D01*
X158337219Y-45543076D02*
X159051504Y-45543076D01*
X159051504Y-45543076D02*
X159194361Y-45495457D01*
X159194361Y-45495457D02*
X159289600Y-45400219D01*
X159289600Y-45400219D02*
X159337219Y-45257362D01*
X159337219Y-45257362D02*
X159337219Y-45162124D01*
X159337219Y-46019267D02*
X158337219Y-46019267D01*
X158337219Y-46019267D02*
X158337219Y-46400219D01*
X158337219Y-46400219D02*
X158384838Y-46495457D01*
X158384838Y-46495457D02*
X158432457Y-46543076D01*
X158432457Y-46543076D02*
X158527695Y-46590695D01*
X158527695Y-46590695D02*
X158670552Y-46590695D01*
X158670552Y-46590695D02*
X158765790Y-46543076D01*
X158765790Y-46543076D02*
X158813409Y-46495457D01*
X158813409Y-46495457D02*
X158861028Y-46400219D01*
X158861028Y-46400219D02*
X158861028Y-46019267D01*
X158337219Y-47495457D02*
X158337219Y-47019267D01*
X158337219Y-47019267D02*
X158813409Y-46971648D01*
X158813409Y-46971648D02*
X158765790Y-47019267D01*
X158765790Y-47019267D02*
X158718171Y-47114505D01*
X158718171Y-47114505D02*
X158718171Y-47352600D01*
X158718171Y-47352600D02*
X158765790Y-47447838D01*
X158765790Y-47447838D02*
X158813409Y-47495457D01*
X158813409Y-47495457D02*
X158908647Y-47543076D01*
X158908647Y-47543076D02*
X159146742Y-47543076D01*
X159146742Y-47543076D02*
X159241980Y-47495457D01*
X159241980Y-47495457D02*
X159289600Y-47447838D01*
X159289600Y-47447838D02*
X159337219Y-47352600D01*
X159337219Y-47352600D02*
X159337219Y-47114505D01*
X159337219Y-47114505D02*
X159289600Y-47019267D01*
X159289600Y-47019267D02*
X159241980Y-46971648D01*
X158765790Y-48114505D02*
X158718171Y-48019267D01*
X158718171Y-48019267D02*
X158670552Y-47971648D01*
X158670552Y-47971648D02*
X158575314Y-47924029D01*
X158575314Y-47924029D02*
X158527695Y-47924029D01*
X158527695Y-47924029D02*
X158432457Y-47971648D01*
X158432457Y-47971648D02*
X158384838Y-48019267D01*
X158384838Y-48019267D02*
X158337219Y-48114505D01*
X158337219Y-48114505D02*
X158337219Y-48304981D01*
X158337219Y-48304981D02*
X158384838Y-48400219D01*
X158384838Y-48400219D02*
X158432457Y-48447838D01*
X158432457Y-48447838D02*
X158527695Y-48495457D01*
X158527695Y-48495457D02*
X158575314Y-48495457D01*
X158575314Y-48495457D02*
X158670552Y-48447838D01*
X158670552Y-48447838D02*
X158718171Y-48400219D01*
X158718171Y-48400219D02*
X158765790Y-48304981D01*
X158765790Y-48304981D02*
X158765790Y-48114505D01*
X158765790Y-48114505D02*
X158813409Y-48019267D01*
X158813409Y-48019267D02*
X158861028Y-47971648D01*
X158861028Y-47971648D02*
X158956266Y-47924029D01*
X158956266Y-47924029D02*
X159146742Y-47924029D01*
X159146742Y-47924029D02*
X159241980Y-47971648D01*
X159241980Y-47971648D02*
X159289600Y-48019267D01*
X159289600Y-48019267D02*
X159337219Y-48114505D01*
X159337219Y-48114505D02*
X159337219Y-48304981D01*
X159337219Y-48304981D02*
X159289600Y-48400219D01*
X159289600Y-48400219D02*
X159241980Y-48447838D01*
X159241980Y-48447838D02*
X159146742Y-48495457D01*
X159146742Y-48495457D02*
X158956266Y-48495457D01*
X158956266Y-48495457D02*
X158861028Y-48447838D01*
X158861028Y-48447838D02*
X158813409Y-48400219D01*
X158813409Y-48400219D02*
X158765790Y-48304981D01*
X130288219Y-45771676D02*
X131002504Y-45771676D01*
X131002504Y-45771676D02*
X131145361Y-45724057D01*
X131145361Y-45724057D02*
X131240600Y-45628819D01*
X131240600Y-45628819D02*
X131288219Y-45485962D01*
X131288219Y-45485962D02*
X131288219Y-45390724D01*
X131288219Y-46247867D02*
X130288219Y-46247867D01*
X130288219Y-46247867D02*
X130288219Y-46628819D01*
X130288219Y-46628819D02*
X130335838Y-46724057D01*
X130335838Y-46724057D02*
X130383457Y-46771676D01*
X130383457Y-46771676D02*
X130478695Y-46819295D01*
X130478695Y-46819295D02*
X130621552Y-46819295D01*
X130621552Y-46819295D02*
X130716790Y-46771676D01*
X130716790Y-46771676D02*
X130764409Y-46724057D01*
X130764409Y-46724057D02*
X130812028Y-46628819D01*
X130812028Y-46628819D02*
X130812028Y-46247867D01*
X130288219Y-47676438D02*
X130288219Y-47485962D01*
X130288219Y-47485962D02*
X130335838Y-47390724D01*
X130335838Y-47390724D02*
X130383457Y-47343105D01*
X130383457Y-47343105D02*
X130526314Y-47247867D01*
X130526314Y-47247867D02*
X130716790Y-47200248D01*
X130716790Y-47200248D02*
X131097742Y-47200248D01*
X131097742Y-47200248D02*
X131192980Y-47247867D01*
X131192980Y-47247867D02*
X131240600Y-47295486D01*
X131240600Y-47295486D02*
X131288219Y-47390724D01*
X131288219Y-47390724D02*
X131288219Y-47581200D01*
X131288219Y-47581200D02*
X131240600Y-47676438D01*
X131240600Y-47676438D02*
X131192980Y-47724057D01*
X131192980Y-47724057D02*
X131097742Y-47771676D01*
X131097742Y-47771676D02*
X130859647Y-47771676D01*
X130859647Y-47771676D02*
X130764409Y-47724057D01*
X130764409Y-47724057D02*
X130716790Y-47676438D01*
X130716790Y-47676438D02*
X130669171Y-47581200D01*
X130669171Y-47581200D02*
X130669171Y-47390724D01*
X130669171Y-47390724D02*
X130716790Y-47295486D01*
X130716790Y-47295486D02*
X130764409Y-47247867D01*
X130764409Y-47247867D02*
X130859647Y-47200248D01*
X130288219Y-48628819D02*
X130288219Y-48438343D01*
X130288219Y-48438343D02*
X130335838Y-48343105D01*
X130335838Y-48343105D02*
X130383457Y-48295486D01*
X130383457Y-48295486D02*
X130526314Y-48200248D01*
X130526314Y-48200248D02*
X130716790Y-48152629D01*
X130716790Y-48152629D02*
X131097742Y-48152629D01*
X131097742Y-48152629D02*
X131192980Y-48200248D01*
X131192980Y-48200248D02*
X131240600Y-48247867D01*
X131240600Y-48247867D02*
X131288219Y-48343105D01*
X131288219Y-48343105D02*
X131288219Y-48533581D01*
X131288219Y-48533581D02*
X131240600Y-48628819D01*
X131240600Y-48628819D02*
X131192980Y-48676438D01*
X131192980Y-48676438D02*
X131097742Y-48724057D01*
X131097742Y-48724057D02*
X130859647Y-48724057D01*
X130859647Y-48724057D02*
X130764409Y-48676438D01*
X130764409Y-48676438D02*
X130716790Y-48628819D01*
X130716790Y-48628819D02*
X130669171Y-48533581D01*
X130669171Y-48533581D02*
X130669171Y-48343105D01*
X130669171Y-48343105D02*
X130716790Y-48247867D01*
X130716790Y-48247867D02*
X130764409Y-48200248D01*
X130764409Y-48200248D02*
X130859647Y-48152629D01*
X123188219Y-45771676D02*
X123902504Y-45771676D01*
X123902504Y-45771676D02*
X124045361Y-45724057D01*
X124045361Y-45724057D02*
X124140600Y-45628819D01*
X124140600Y-45628819D02*
X124188219Y-45485962D01*
X124188219Y-45485962D02*
X124188219Y-45390724D01*
X124188219Y-46247867D02*
X123188219Y-46247867D01*
X123188219Y-46247867D02*
X123188219Y-46628819D01*
X123188219Y-46628819D02*
X123235838Y-46724057D01*
X123235838Y-46724057D02*
X123283457Y-46771676D01*
X123283457Y-46771676D02*
X123378695Y-46819295D01*
X123378695Y-46819295D02*
X123521552Y-46819295D01*
X123521552Y-46819295D02*
X123616790Y-46771676D01*
X123616790Y-46771676D02*
X123664409Y-46724057D01*
X123664409Y-46724057D02*
X123712028Y-46628819D01*
X123712028Y-46628819D02*
X123712028Y-46247867D01*
X123188219Y-47676438D02*
X123188219Y-47485962D01*
X123188219Y-47485962D02*
X123235838Y-47390724D01*
X123235838Y-47390724D02*
X123283457Y-47343105D01*
X123283457Y-47343105D02*
X123426314Y-47247867D01*
X123426314Y-47247867D02*
X123616790Y-47200248D01*
X123616790Y-47200248D02*
X123997742Y-47200248D01*
X123997742Y-47200248D02*
X124092980Y-47247867D01*
X124092980Y-47247867D02*
X124140600Y-47295486D01*
X124140600Y-47295486D02*
X124188219Y-47390724D01*
X124188219Y-47390724D02*
X124188219Y-47581200D01*
X124188219Y-47581200D02*
X124140600Y-47676438D01*
X124140600Y-47676438D02*
X124092980Y-47724057D01*
X124092980Y-47724057D02*
X123997742Y-47771676D01*
X123997742Y-47771676D02*
X123759647Y-47771676D01*
X123759647Y-47771676D02*
X123664409Y-47724057D01*
X123664409Y-47724057D02*
X123616790Y-47676438D01*
X123616790Y-47676438D02*
X123569171Y-47581200D01*
X123569171Y-47581200D02*
X123569171Y-47390724D01*
X123569171Y-47390724D02*
X123616790Y-47295486D01*
X123616790Y-47295486D02*
X123664409Y-47247867D01*
X123664409Y-47247867D02*
X123759647Y-47200248D01*
X123616790Y-48343105D02*
X123569171Y-48247867D01*
X123569171Y-48247867D02*
X123521552Y-48200248D01*
X123521552Y-48200248D02*
X123426314Y-48152629D01*
X123426314Y-48152629D02*
X123378695Y-48152629D01*
X123378695Y-48152629D02*
X123283457Y-48200248D01*
X123283457Y-48200248D02*
X123235838Y-48247867D01*
X123235838Y-48247867D02*
X123188219Y-48343105D01*
X123188219Y-48343105D02*
X123188219Y-48533581D01*
X123188219Y-48533581D02*
X123235838Y-48628819D01*
X123235838Y-48628819D02*
X123283457Y-48676438D01*
X123283457Y-48676438D02*
X123378695Y-48724057D01*
X123378695Y-48724057D02*
X123426314Y-48724057D01*
X123426314Y-48724057D02*
X123521552Y-48676438D01*
X123521552Y-48676438D02*
X123569171Y-48628819D01*
X123569171Y-48628819D02*
X123616790Y-48533581D01*
X123616790Y-48533581D02*
X123616790Y-48343105D01*
X123616790Y-48343105D02*
X123664409Y-48247867D01*
X123664409Y-48247867D02*
X123712028Y-48200248D01*
X123712028Y-48200248D02*
X123807266Y-48152629D01*
X123807266Y-48152629D02*
X123997742Y-48152629D01*
X123997742Y-48152629D02*
X124092980Y-48200248D01*
X124092980Y-48200248D02*
X124140600Y-48247867D01*
X124140600Y-48247867D02*
X124188219Y-48343105D01*
X124188219Y-48343105D02*
X124188219Y-48533581D01*
X124188219Y-48533581D02*
X124140600Y-48628819D01*
X124140600Y-48628819D02*
X124092980Y-48676438D01*
X124092980Y-48676438D02*
X123997742Y-48724057D01*
X123997742Y-48724057D02*
X123807266Y-48724057D01*
X123807266Y-48724057D02*
X123712028Y-48676438D01*
X123712028Y-48676438D02*
X123664409Y-48628819D01*
X123664409Y-48628819D02*
X123616790Y-48533581D01*
X126738219Y-45771676D02*
X127452504Y-45771676D01*
X127452504Y-45771676D02*
X127595361Y-45724057D01*
X127595361Y-45724057D02*
X127690600Y-45628819D01*
X127690600Y-45628819D02*
X127738219Y-45485962D01*
X127738219Y-45485962D02*
X127738219Y-45390724D01*
X127738219Y-46247867D02*
X126738219Y-46247867D01*
X126738219Y-46247867D02*
X126738219Y-46628819D01*
X126738219Y-46628819D02*
X126785838Y-46724057D01*
X126785838Y-46724057D02*
X126833457Y-46771676D01*
X126833457Y-46771676D02*
X126928695Y-46819295D01*
X126928695Y-46819295D02*
X127071552Y-46819295D01*
X127071552Y-46819295D02*
X127166790Y-46771676D01*
X127166790Y-46771676D02*
X127214409Y-46724057D01*
X127214409Y-46724057D02*
X127262028Y-46628819D01*
X127262028Y-46628819D02*
X127262028Y-46247867D01*
X126738219Y-47676438D02*
X126738219Y-47485962D01*
X126738219Y-47485962D02*
X126785838Y-47390724D01*
X126785838Y-47390724D02*
X126833457Y-47343105D01*
X126833457Y-47343105D02*
X126976314Y-47247867D01*
X126976314Y-47247867D02*
X127166790Y-47200248D01*
X127166790Y-47200248D02*
X127547742Y-47200248D01*
X127547742Y-47200248D02*
X127642980Y-47247867D01*
X127642980Y-47247867D02*
X127690600Y-47295486D01*
X127690600Y-47295486D02*
X127738219Y-47390724D01*
X127738219Y-47390724D02*
X127738219Y-47581200D01*
X127738219Y-47581200D02*
X127690600Y-47676438D01*
X127690600Y-47676438D02*
X127642980Y-47724057D01*
X127642980Y-47724057D02*
X127547742Y-47771676D01*
X127547742Y-47771676D02*
X127309647Y-47771676D01*
X127309647Y-47771676D02*
X127214409Y-47724057D01*
X127214409Y-47724057D02*
X127166790Y-47676438D01*
X127166790Y-47676438D02*
X127119171Y-47581200D01*
X127119171Y-47581200D02*
X127119171Y-47390724D01*
X127119171Y-47390724D02*
X127166790Y-47295486D01*
X127166790Y-47295486D02*
X127214409Y-47247867D01*
X127214409Y-47247867D02*
X127309647Y-47200248D01*
X126738219Y-48105010D02*
X126738219Y-48771676D01*
X126738219Y-48771676D02*
X127738219Y-48343105D01*
X152368587Y-130155076D02*
X153082872Y-130155076D01*
X153082872Y-130155076D02*
X153225729Y-130107457D01*
X153225729Y-130107457D02*
X153320968Y-130012219D01*
X153320968Y-130012219D02*
X153368587Y-129869362D01*
X153368587Y-129869362D02*
X153368587Y-129774124D01*
X153368587Y-130631267D02*
X152368587Y-130631267D01*
X152368587Y-130631267D02*
X152368587Y-131012219D01*
X152368587Y-131012219D02*
X152416206Y-131107457D01*
X152416206Y-131107457D02*
X152463825Y-131155076D01*
X152463825Y-131155076D02*
X152559063Y-131202695D01*
X152559063Y-131202695D02*
X152701920Y-131202695D01*
X152701920Y-131202695D02*
X152797158Y-131155076D01*
X152797158Y-131155076D02*
X152844777Y-131107457D01*
X152844777Y-131107457D02*
X152892396Y-131012219D01*
X152892396Y-131012219D02*
X152892396Y-130631267D01*
X152797158Y-131774124D02*
X152749539Y-131678886D01*
X152749539Y-131678886D02*
X152701920Y-131631267D01*
X152701920Y-131631267D02*
X152606682Y-131583648D01*
X152606682Y-131583648D02*
X152559063Y-131583648D01*
X152559063Y-131583648D02*
X152463825Y-131631267D01*
X152463825Y-131631267D02*
X152416206Y-131678886D01*
X152416206Y-131678886D02*
X152368587Y-131774124D01*
X152368587Y-131774124D02*
X152368587Y-131964600D01*
X152368587Y-131964600D02*
X152416206Y-132059838D01*
X152416206Y-132059838D02*
X152463825Y-132107457D01*
X152463825Y-132107457D02*
X152559063Y-132155076D01*
X152559063Y-132155076D02*
X152606682Y-132155076D01*
X152606682Y-132155076D02*
X152701920Y-132107457D01*
X152701920Y-132107457D02*
X152749539Y-132059838D01*
X152749539Y-132059838D02*
X152797158Y-131964600D01*
X152797158Y-131964600D02*
X152797158Y-131774124D01*
X152797158Y-131774124D02*
X152844777Y-131678886D01*
X152844777Y-131678886D02*
X152892396Y-131631267D01*
X152892396Y-131631267D02*
X152987634Y-131583648D01*
X152987634Y-131583648D02*
X153178110Y-131583648D01*
X153178110Y-131583648D02*
X153273348Y-131631267D01*
X153273348Y-131631267D02*
X153320968Y-131678886D01*
X153320968Y-131678886D02*
X153368587Y-131774124D01*
X153368587Y-131774124D02*
X153368587Y-131964600D01*
X153368587Y-131964600D02*
X153320968Y-132059838D01*
X153320968Y-132059838D02*
X153273348Y-132107457D01*
X153273348Y-132107457D02*
X153178110Y-132155076D01*
X153178110Y-132155076D02*
X152987634Y-132155076D01*
X152987634Y-132155076D02*
X152892396Y-132107457D01*
X152892396Y-132107457D02*
X152844777Y-132059838D01*
X152844777Y-132059838D02*
X152797158Y-131964600D01*
X152368587Y-132774124D02*
X152368587Y-132869362D01*
X152368587Y-132869362D02*
X152416206Y-132964600D01*
X152416206Y-132964600D02*
X152463825Y-133012219D01*
X152463825Y-133012219D02*
X152559063Y-133059838D01*
X152559063Y-133059838D02*
X152749539Y-133107457D01*
X152749539Y-133107457D02*
X152987634Y-133107457D01*
X152987634Y-133107457D02*
X153178110Y-133059838D01*
X153178110Y-133059838D02*
X153273348Y-133012219D01*
X153273348Y-133012219D02*
X153320968Y-132964600D01*
X153320968Y-132964600D02*
X153368587Y-132869362D01*
X153368587Y-132869362D02*
X153368587Y-132774124D01*
X153368587Y-132774124D02*
X153320968Y-132678886D01*
X153320968Y-132678886D02*
X153273348Y-132631267D01*
X153273348Y-132631267D02*
X153178110Y-132583648D01*
X153178110Y-132583648D02*
X152987634Y-132536029D01*
X152987634Y-132536029D02*
X152749539Y-132536029D01*
X152749539Y-132536029D02*
X152559063Y-132583648D01*
X152559063Y-132583648D02*
X152463825Y-132631267D01*
X152463825Y-132631267D02*
X152416206Y-132678886D01*
X152416206Y-132678886D02*
X152368587Y-132774124D01*
X165437219Y-45543076D02*
X166151504Y-45543076D01*
X166151504Y-45543076D02*
X166294361Y-45495457D01*
X166294361Y-45495457D02*
X166389600Y-45400219D01*
X166389600Y-45400219D02*
X166437219Y-45257362D01*
X166437219Y-45257362D02*
X166437219Y-45162124D01*
X166437219Y-46019267D02*
X165437219Y-46019267D01*
X165437219Y-46019267D02*
X165437219Y-46400219D01*
X165437219Y-46400219D02*
X165484838Y-46495457D01*
X165484838Y-46495457D02*
X165532457Y-46543076D01*
X165532457Y-46543076D02*
X165627695Y-46590695D01*
X165627695Y-46590695D02*
X165770552Y-46590695D01*
X165770552Y-46590695D02*
X165865790Y-46543076D01*
X165865790Y-46543076D02*
X165913409Y-46495457D01*
X165913409Y-46495457D02*
X165961028Y-46400219D01*
X165961028Y-46400219D02*
X165961028Y-46019267D01*
X165437219Y-47495457D02*
X165437219Y-47019267D01*
X165437219Y-47019267D02*
X165913409Y-46971648D01*
X165913409Y-46971648D02*
X165865790Y-47019267D01*
X165865790Y-47019267D02*
X165818171Y-47114505D01*
X165818171Y-47114505D02*
X165818171Y-47352600D01*
X165818171Y-47352600D02*
X165865790Y-47447838D01*
X165865790Y-47447838D02*
X165913409Y-47495457D01*
X165913409Y-47495457D02*
X166008647Y-47543076D01*
X166008647Y-47543076D02*
X166246742Y-47543076D01*
X166246742Y-47543076D02*
X166341980Y-47495457D01*
X166341980Y-47495457D02*
X166389600Y-47447838D01*
X166389600Y-47447838D02*
X166437219Y-47352600D01*
X166437219Y-47352600D02*
X166437219Y-47114505D01*
X166437219Y-47114505D02*
X166389600Y-47019267D01*
X166389600Y-47019267D02*
X166341980Y-46971648D01*
X165437219Y-48400219D02*
X165437219Y-48209743D01*
X165437219Y-48209743D02*
X165484838Y-48114505D01*
X165484838Y-48114505D02*
X165532457Y-48066886D01*
X165532457Y-48066886D02*
X165675314Y-47971648D01*
X165675314Y-47971648D02*
X165865790Y-47924029D01*
X165865790Y-47924029D02*
X166246742Y-47924029D01*
X166246742Y-47924029D02*
X166341980Y-47971648D01*
X166341980Y-47971648D02*
X166389600Y-48019267D01*
X166389600Y-48019267D02*
X166437219Y-48114505D01*
X166437219Y-48114505D02*
X166437219Y-48304981D01*
X166437219Y-48304981D02*
X166389600Y-48400219D01*
X166389600Y-48400219D02*
X166341980Y-48447838D01*
X166341980Y-48447838D02*
X166246742Y-48495457D01*
X166246742Y-48495457D02*
X166008647Y-48495457D01*
X166008647Y-48495457D02*
X165913409Y-48447838D01*
X165913409Y-48447838D02*
X165865790Y-48400219D01*
X165865790Y-48400219D02*
X165818171Y-48304981D01*
X165818171Y-48304981D02*
X165818171Y-48114505D01*
X165818171Y-48114505D02*
X165865790Y-48019267D01*
X165865790Y-48019267D02*
X165913409Y-47971648D01*
X165913409Y-47971648D02*
X166008647Y-47924029D01*
X133487219Y-45543076D02*
X134201504Y-45543076D01*
X134201504Y-45543076D02*
X134344361Y-45495457D01*
X134344361Y-45495457D02*
X134439600Y-45400219D01*
X134439600Y-45400219D02*
X134487219Y-45257362D01*
X134487219Y-45257362D02*
X134487219Y-45162124D01*
X134487219Y-46019267D02*
X133487219Y-46019267D01*
X133487219Y-46019267D02*
X133487219Y-46400219D01*
X133487219Y-46400219D02*
X133534838Y-46495457D01*
X133534838Y-46495457D02*
X133582457Y-46543076D01*
X133582457Y-46543076D02*
X133677695Y-46590695D01*
X133677695Y-46590695D02*
X133820552Y-46590695D01*
X133820552Y-46590695D02*
X133915790Y-46543076D01*
X133915790Y-46543076D02*
X133963409Y-46495457D01*
X133963409Y-46495457D02*
X134011028Y-46400219D01*
X134011028Y-46400219D02*
X134011028Y-46019267D01*
X133487219Y-47447838D02*
X133487219Y-47257362D01*
X133487219Y-47257362D02*
X133534838Y-47162124D01*
X133534838Y-47162124D02*
X133582457Y-47114505D01*
X133582457Y-47114505D02*
X133725314Y-47019267D01*
X133725314Y-47019267D02*
X133915790Y-46971648D01*
X133915790Y-46971648D02*
X134296742Y-46971648D01*
X134296742Y-46971648D02*
X134391980Y-47019267D01*
X134391980Y-47019267D02*
X134439600Y-47066886D01*
X134439600Y-47066886D02*
X134487219Y-47162124D01*
X134487219Y-47162124D02*
X134487219Y-47352600D01*
X134487219Y-47352600D02*
X134439600Y-47447838D01*
X134439600Y-47447838D02*
X134391980Y-47495457D01*
X134391980Y-47495457D02*
X134296742Y-47543076D01*
X134296742Y-47543076D02*
X134058647Y-47543076D01*
X134058647Y-47543076D02*
X133963409Y-47495457D01*
X133963409Y-47495457D02*
X133915790Y-47447838D01*
X133915790Y-47447838D02*
X133868171Y-47352600D01*
X133868171Y-47352600D02*
X133868171Y-47162124D01*
X133868171Y-47162124D02*
X133915790Y-47066886D01*
X133915790Y-47066886D02*
X133963409Y-47019267D01*
X133963409Y-47019267D02*
X134058647Y-46971648D01*
X133487219Y-48447838D02*
X133487219Y-47971648D01*
X133487219Y-47971648D02*
X133963409Y-47924029D01*
X133963409Y-47924029D02*
X133915790Y-47971648D01*
X133915790Y-47971648D02*
X133868171Y-48066886D01*
X133868171Y-48066886D02*
X133868171Y-48304981D01*
X133868171Y-48304981D02*
X133915790Y-48400219D01*
X133915790Y-48400219D02*
X133963409Y-48447838D01*
X133963409Y-48447838D02*
X134058647Y-48495457D01*
X134058647Y-48495457D02*
X134296742Y-48495457D01*
X134296742Y-48495457D02*
X134391980Y-48447838D01*
X134391980Y-48447838D02*
X134439600Y-48400219D01*
X134439600Y-48400219D02*
X134487219Y-48304981D01*
X134487219Y-48304981D02*
X134487219Y-48066886D01*
X134487219Y-48066886D02*
X134439600Y-47971648D01*
X134439600Y-47971648D02*
X134391980Y-47924029D01*
X116018819Y-130201276D02*
X116733104Y-130201276D01*
X116733104Y-130201276D02*
X116875961Y-130153657D01*
X116875961Y-130153657D02*
X116971200Y-130058419D01*
X116971200Y-130058419D02*
X117018819Y-129915562D01*
X117018819Y-129915562D02*
X117018819Y-129820324D01*
X117018819Y-130677467D02*
X116018819Y-130677467D01*
X116018819Y-130677467D02*
X116018819Y-131058419D01*
X116018819Y-131058419D02*
X116066438Y-131153657D01*
X116066438Y-131153657D02*
X116114057Y-131201276D01*
X116114057Y-131201276D02*
X116209295Y-131248895D01*
X116209295Y-131248895D02*
X116352152Y-131248895D01*
X116352152Y-131248895D02*
X116447390Y-131201276D01*
X116447390Y-131201276D02*
X116495009Y-131153657D01*
X116495009Y-131153657D02*
X116542628Y-131058419D01*
X116542628Y-131058419D02*
X116542628Y-130677467D01*
X116018819Y-132153657D02*
X116018819Y-131677467D01*
X116018819Y-131677467D02*
X116495009Y-131629848D01*
X116495009Y-131629848D02*
X116447390Y-131677467D01*
X116447390Y-131677467D02*
X116399771Y-131772705D01*
X116399771Y-131772705D02*
X116399771Y-132010800D01*
X116399771Y-132010800D02*
X116447390Y-132106038D01*
X116447390Y-132106038D02*
X116495009Y-132153657D01*
X116495009Y-132153657D02*
X116590247Y-132201276D01*
X116590247Y-132201276D02*
X116828342Y-132201276D01*
X116828342Y-132201276D02*
X116923580Y-132153657D01*
X116923580Y-132153657D02*
X116971200Y-132106038D01*
X116971200Y-132106038D02*
X117018819Y-132010800D01*
X117018819Y-132010800D02*
X117018819Y-131772705D01*
X117018819Y-131772705D02*
X116971200Y-131677467D01*
X116971200Y-131677467D02*
X116923580Y-131629848D01*
X116018819Y-133106038D02*
X116018819Y-132629848D01*
X116018819Y-132629848D02*
X116495009Y-132582229D01*
X116495009Y-132582229D02*
X116447390Y-132629848D01*
X116447390Y-132629848D02*
X116399771Y-132725086D01*
X116399771Y-132725086D02*
X116399771Y-132963181D01*
X116399771Y-132963181D02*
X116447390Y-133058419D01*
X116447390Y-133058419D02*
X116495009Y-133106038D01*
X116495009Y-133106038D02*
X116590247Y-133153657D01*
X116590247Y-133153657D02*
X116828342Y-133153657D01*
X116828342Y-133153657D02*
X116923580Y-133106038D01*
X116923580Y-133106038D02*
X116971200Y-133058419D01*
X116971200Y-133058419D02*
X117018819Y-132963181D01*
X117018819Y-132963181D02*
X117018819Y-132725086D01*
X117018819Y-132725086D02*
X116971200Y-132629848D01*
X116971200Y-132629848D02*
X116923580Y-132582229D01*
X132795635Y-130201276D02*
X133509920Y-130201276D01*
X133509920Y-130201276D02*
X133652777Y-130153657D01*
X133652777Y-130153657D02*
X133748016Y-130058419D01*
X133748016Y-130058419D02*
X133795635Y-129915562D01*
X133795635Y-129915562D02*
X133795635Y-129820324D01*
X133795635Y-130677467D02*
X132795635Y-130677467D01*
X132795635Y-130677467D02*
X132795635Y-131058419D01*
X132795635Y-131058419D02*
X132843254Y-131153657D01*
X132843254Y-131153657D02*
X132890873Y-131201276D01*
X132890873Y-131201276D02*
X132986111Y-131248895D01*
X132986111Y-131248895D02*
X133128968Y-131248895D01*
X133128968Y-131248895D02*
X133224206Y-131201276D01*
X133224206Y-131201276D02*
X133271825Y-131153657D01*
X133271825Y-131153657D02*
X133319444Y-131058419D01*
X133319444Y-131058419D02*
X133319444Y-130677467D01*
X133128968Y-132106038D02*
X133795635Y-132106038D01*
X132748016Y-131867943D02*
X133462301Y-131629848D01*
X133462301Y-131629848D02*
X133462301Y-132248895D01*
X133795635Y-132677467D02*
X133795635Y-132867943D01*
X133795635Y-132867943D02*
X133748016Y-132963181D01*
X133748016Y-132963181D02*
X133700396Y-133010800D01*
X133700396Y-133010800D02*
X133557539Y-133106038D01*
X133557539Y-133106038D02*
X133367063Y-133153657D01*
X133367063Y-133153657D02*
X132986111Y-133153657D01*
X132986111Y-133153657D02*
X132890873Y-133106038D01*
X132890873Y-133106038D02*
X132843254Y-133058419D01*
X132843254Y-133058419D02*
X132795635Y-132963181D01*
X132795635Y-132963181D02*
X132795635Y-132772705D01*
X132795635Y-132772705D02*
X132843254Y-132677467D01*
X132843254Y-132677467D02*
X132890873Y-132629848D01*
X132890873Y-132629848D02*
X132986111Y-132582229D01*
X132986111Y-132582229D02*
X133224206Y-132582229D01*
X133224206Y-132582229D02*
X133319444Y-132629848D01*
X133319444Y-132629848D02*
X133367063Y-132677467D01*
X133367063Y-132677467D02*
X133414682Y-132772705D01*
X133414682Y-132772705D02*
X133414682Y-132963181D01*
X133414682Y-132963181D02*
X133367063Y-133058419D01*
X133367063Y-133058419D02*
X133319444Y-133106038D01*
X133319444Y-133106038D02*
X133224206Y-133153657D01*
X173770819Y-38283076D02*
X174485104Y-38283076D01*
X174485104Y-38283076D02*
X174627961Y-38235457D01*
X174627961Y-38235457D02*
X174723200Y-38140219D01*
X174723200Y-38140219D02*
X174770819Y-37997362D01*
X174770819Y-37997362D02*
X174770819Y-37902124D01*
X174770819Y-39283076D02*
X174770819Y-38711648D01*
X174770819Y-38997362D02*
X173770819Y-38997362D01*
X173770819Y-38997362D02*
X173913676Y-38902124D01*
X173913676Y-38902124D02*
X174008914Y-38806886D01*
X174008914Y-38806886D02*
X174056533Y-38711648D01*
X173770819Y-40187838D02*
X173770819Y-39711648D01*
X173770819Y-39711648D02*
X174247009Y-39664029D01*
X174247009Y-39664029D02*
X174199390Y-39711648D01*
X174199390Y-39711648D02*
X174151771Y-39806886D01*
X174151771Y-39806886D02*
X174151771Y-40044981D01*
X174151771Y-40044981D02*
X174199390Y-40140219D01*
X174199390Y-40140219D02*
X174247009Y-40187838D01*
X174247009Y-40187838D02*
X174342247Y-40235457D01*
X174342247Y-40235457D02*
X174580342Y-40235457D01*
X174580342Y-40235457D02*
X174675580Y-40187838D01*
X174675580Y-40187838D02*
X174723200Y-40140219D01*
X174723200Y-40140219D02*
X174770819Y-40044981D01*
X174770819Y-40044981D02*
X174770819Y-39806886D01*
X174770819Y-39806886D02*
X174723200Y-39711648D01*
X174723200Y-39711648D02*
X174675580Y-39664029D01*
X183412523Y-139666219D02*
X183412523Y-140380504D01*
X183412523Y-140380504D02*
X183460142Y-140523361D01*
X183460142Y-140523361D02*
X183555380Y-140618600D01*
X183555380Y-140618600D02*
X183698237Y-140666219D01*
X183698237Y-140666219D02*
X183793475Y-140666219D01*
X182936332Y-140666219D02*
X182936332Y-139666219D01*
X182936332Y-139666219D02*
X182555380Y-139666219D01*
X182555380Y-139666219D02*
X182460142Y-139713838D01*
X182460142Y-139713838D02*
X182412523Y-139761457D01*
X182412523Y-139761457D02*
X182364904Y-139856695D01*
X182364904Y-139856695D02*
X182364904Y-139999552D01*
X182364904Y-139999552D02*
X182412523Y-140094790D01*
X182412523Y-140094790D02*
X182460142Y-140142409D01*
X182460142Y-140142409D02*
X182555380Y-140190028D01*
X182555380Y-140190028D02*
X182936332Y-140190028D01*
X181412523Y-140666219D02*
X181983951Y-140666219D01*
X181698237Y-140666219D02*
X181698237Y-139666219D01*
X181698237Y-139666219D02*
X181793475Y-139809076D01*
X181793475Y-139809076D02*
X181888713Y-139904314D01*
X181888713Y-139904314D02*
X181983951Y-139951933D01*
X180555380Y-139666219D02*
X180745856Y-139666219D01*
X180745856Y-139666219D02*
X180841094Y-139713838D01*
X180841094Y-139713838D02*
X180888713Y-139761457D01*
X180888713Y-139761457D02*
X180983951Y-139904314D01*
X180983951Y-139904314D02*
X181031570Y-140094790D01*
X181031570Y-140094790D02*
X181031570Y-140475742D01*
X181031570Y-140475742D02*
X180983951Y-140570980D01*
X180983951Y-140570980D02*
X180936332Y-140618600D01*
X180936332Y-140618600D02*
X180841094Y-140666219D01*
X180841094Y-140666219D02*
X180650618Y-140666219D01*
X180650618Y-140666219D02*
X180555380Y-140618600D01*
X180555380Y-140618600D02*
X180507761Y-140570980D01*
X180507761Y-140570980D02*
X180460142Y-140475742D01*
X180460142Y-140475742D02*
X180460142Y-140237647D01*
X180460142Y-140237647D02*
X180507761Y-140142409D01*
X180507761Y-140142409D02*
X180555380Y-140094790D01*
X180555380Y-140094790D02*
X180650618Y-140047171D01*
X180650618Y-140047171D02*
X180841094Y-140047171D01*
X180841094Y-140047171D02*
X180936332Y-140094790D01*
X180936332Y-140094790D02*
X180983951Y-140142409D01*
X180983951Y-140142409D02*
X181031570Y-140237647D01*
X157960859Y-130155076D02*
X158675144Y-130155076D01*
X158675144Y-130155076D02*
X158818001Y-130107457D01*
X158818001Y-130107457D02*
X158913240Y-130012219D01*
X158913240Y-130012219D02*
X158960859Y-129869362D01*
X158960859Y-129869362D02*
X158960859Y-129774124D01*
X158960859Y-130631267D02*
X157960859Y-130631267D01*
X157960859Y-130631267D02*
X157960859Y-131012219D01*
X157960859Y-131012219D02*
X158008478Y-131107457D01*
X158008478Y-131107457D02*
X158056097Y-131155076D01*
X158056097Y-131155076D02*
X158151335Y-131202695D01*
X158151335Y-131202695D02*
X158294192Y-131202695D01*
X158294192Y-131202695D02*
X158389430Y-131155076D01*
X158389430Y-131155076D02*
X158437049Y-131107457D01*
X158437049Y-131107457D02*
X158484668Y-131012219D01*
X158484668Y-131012219D02*
X158484668Y-130631267D01*
X157960859Y-131536029D02*
X157960859Y-132202695D01*
X157960859Y-132202695D02*
X158960859Y-131774124D01*
X158389430Y-132726505D02*
X158341811Y-132631267D01*
X158341811Y-132631267D02*
X158294192Y-132583648D01*
X158294192Y-132583648D02*
X158198954Y-132536029D01*
X158198954Y-132536029D02*
X158151335Y-132536029D01*
X158151335Y-132536029D02*
X158056097Y-132583648D01*
X158056097Y-132583648D02*
X158008478Y-132631267D01*
X158008478Y-132631267D02*
X157960859Y-132726505D01*
X157960859Y-132726505D02*
X157960859Y-132916981D01*
X157960859Y-132916981D02*
X158008478Y-133012219D01*
X158008478Y-133012219D02*
X158056097Y-133059838D01*
X158056097Y-133059838D02*
X158151335Y-133107457D01*
X158151335Y-133107457D02*
X158198954Y-133107457D01*
X158198954Y-133107457D02*
X158294192Y-133059838D01*
X158294192Y-133059838D02*
X158341811Y-133012219D01*
X158341811Y-133012219D02*
X158389430Y-132916981D01*
X158389430Y-132916981D02*
X158389430Y-132726505D01*
X158389430Y-132726505D02*
X158437049Y-132631267D01*
X158437049Y-132631267D02*
X158484668Y-132583648D01*
X158484668Y-132583648D02*
X158579906Y-132536029D01*
X158579906Y-132536029D02*
X158770382Y-132536029D01*
X158770382Y-132536029D02*
X158865620Y-132583648D01*
X158865620Y-132583648D02*
X158913240Y-132631267D01*
X158913240Y-132631267D02*
X158960859Y-132726505D01*
X158960859Y-132726505D02*
X158960859Y-132916981D01*
X158960859Y-132916981D02*
X158913240Y-133012219D01*
X158913240Y-133012219D02*
X158865620Y-133059838D01*
X158865620Y-133059838D02*
X158770382Y-133107457D01*
X158770382Y-133107457D02*
X158579906Y-133107457D01*
X158579906Y-133107457D02*
X158484668Y-133059838D01*
X158484668Y-133059838D02*
X158437049Y-133012219D01*
X158437049Y-133012219D02*
X158389430Y-132916981D01*
X147863619Y-147295476D02*
X148577904Y-147295476D01*
X148577904Y-147295476D02*
X148720761Y-147247857D01*
X148720761Y-147247857D02*
X148816000Y-147152619D01*
X148816000Y-147152619D02*
X148863619Y-147009762D01*
X148863619Y-147009762D02*
X148863619Y-146914524D01*
X148863619Y-147771667D02*
X147863619Y-147771667D01*
X147863619Y-147771667D02*
X147863619Y-148152619D01*
X147863619Y-148152619D02*
X147911238Y-148247857D01*
X147911238Y-148247857D02*
X147958857Y-148295476D01*
X147958857Y-148295476D02*
X148054095Y-148343095D01*
X148054095Y-148343095D02*
X148196952Y-148343095D01*
X148196952Y-148343095D02*
X148292190Y-148295476D01*
X148292190Y-148295476D02*
X148339809Y-148247857D01*
X148339809Y-148247857D02*
X148387428Y-148152619D01*
X148387428Y-148152619D02*
X148387428Y-147771667D01*
X148863619Y-149295476D02*
X148863619Y-148724048D01*
X148863619Y-149009762D02*
X147863619Y-149009762D01*
X147863619Y-149009762D02*
X148006476Y-148914524D01*
X148006476Y-148914524D02*
X148101714Y-148819286D01*
X148101714Y-148819286D02*
X148149333Y-148724048D01*
X147863619Y-150200238D02*
X147863619Y-149724048D01*
X147863619Y-149724048D02*
X148339809Y-149676429D01*
X148339809Y-149676429D02*
X148292190Y-149724048D01*
X148292190Y-149724048D02*
X148244571Y-149819286D01*
X148244571Y-149819286D02*
X148244571Y-150057381D01*
X148244571Y-150057381D02*
X148292190Y-150152619D01*
X148292190Y-150152619D02*
X148339809Y-150200238D01*
X148339809Y-150200238D02*
X148435047Y-150247857D01*
X148435047Y-150247857D02*
X148673142Y-150247857D01*
X148673142Y-150247857D02*
X148768380Y-150200238D01*
X148768380Y-150200238D02*
X148816000Y-150152619D01*
X148816000Y-150152619D02*
X148863619Y-150057381D01*
X148863619Y-150057381D02*
X148863619Y-149819286D01*
X148863619Y-149819286D02*
X148816000Y-149724048D01*
X148816000Y-149724048D02*
X148768380Y-149676429D01*
X161887219Y-45543076D02*
X162601504Y-45543076D01*
X162601504Y-45543076D02*
X162744361Y-45495457D01*
X162744361Y-45495457D02*
X162839600Y-45400219D01*
X162839600Y-45400219D02*
X162887219Y-45257362D01*
X162887219Y-45257362D02*
X162887219Y-45162124D01*
X162887219Y-46019267D02*
X161887219Y-46019267D01*
X161887219Y-46019267D02*
X161887219Y-46400219D01*
X161887219Y-46400219D02*
X161934838Y-46495457D01*
X161934838Y-46495457D02*
X161982457Y-46543076D01*
X161982457Y-46543076D02*
X162077695Y-46590695D01*
X162077695Y-46590695D02*
X162220552Y-46590695D01*
X162220552Y-46590695D02*
X162315790Y-46543076D01*
X162315790Y-46543076D02*
X162363409Y-46495457D01*
X162363409Y-46495457D02*
X162411028Y-46400219D01*
X162411028Y-46400219D02*
X162411028Y-46019267D01*
X161887219Y-47495457D02*
X161887219Y-47019267D01*
X161887219Y-47019267D02*
X162363409Y-46971648D01*
X162363409Y-46971648D02*
X162315790Y-47019267D01*
X162315790Y-47019267D02*
X162268171Y-47114505D01*
X162268171Y-47114505D02*
X162268171Y-47352600D01*
X162268171Y-47352600D02*
X162315790Y-47447838D01*
X162315790Y-47447838D02*
X162363409Y-47495457D01*
X162363409Y-47495457D02*
X162458647Y-47543076D01*
X162458647Y-47543076D02*
X162696742Y-47543076D01*
X162696742Y-47543076D02*
X162791980Y-47495457D01*
X162791980Y-47495457D02*
X162839600Y-47447838D01*
X162839600Y-47447838D02*
X162887219Y-47352600D01*
X162887219Y-47352600D02*
X162887219Y-47114505D01*
X162887219Y-47114505D02*
X162839600Y-47019267D01*
X162839600Y-47019267D02*
X162791980Y-46971648D01*
X161887219Y-47876410D02*
X161887219Y-48543076D01*
X161887219Y-48543076D02*
X162887219Y-48114505D01*
X180329947Y-130140076D02*
X181044232Y-130140076D01*
X181044232Y-130140076D02*
X181187089Y-130092457D01*
X181187089Y-130092457D02*
X181282328Y-129997219D01*
X181282328Y-129997219D02*
X181329947Y-129854362D01*
X181329947Y-129854362D02*
X181329947Y-129759124D01*
X181329947Y-130616267D02*
X180329947Y-130616267D01*
X180329947Y-130616267D02*
X180329947Y-130997219D01*
X180329947Y-130997219D02*
X180377566Y-131092457D01*
X180377566Y-131092457D02*
X180425185Y-131140076D01*
X180425185Y-131140076D02*
X180520423Y-131187695D01*
X180520423Y-131187695D02*
X180663280Y-131187695D01*
X180663280Y-131187695D02*
X180758518Y-131140076D01*
X180758518Y-131140076D02*
X180806137Y-131092457D01*
X180806137Y-131092457D02*
X180853756Y-130997219D01*
X180853756Y-130997219D02*
X180853756Y-130616267D01*
X180329947Y-131521029D02*
X180329947Y-132187695D01*
X180329947Y-132187695D02*
X181329947Y-131759124D01*
X181329947Y-133092457D02*
X181329947Y-132521029D01*
X181329947Y-132806743D02*
X180329947Y-132806743D01*
X180329947Y-132806743D02*
X180472804Y-132711505D01*
X180472804Y-132711505D02*
X180568042Y-132616267D01*
X180568042Y-132616267D02*
X180615661Y-132521029D01*
X143980179Y-130155076D02*
X144694464Y-130155076D01*
X144694464Y-130155076D02*
X144837321Y-130107457D01*
X144837321Y-130107457D02*
X144932560Y-130012219D01*
X144932560Y-130012219D02*
X144980179Y-129869362D01*
X144980179Y-129869362D02*
X144980179Y-129774124D01*
X144980179Y-130631267D02*
X143980179Y-130631267D01*
X143980179Y-130631267D02*
X143980179Y-131012219D01*
X143980179Y-131012219D02*
X144027798Y-131107457D01*
X144027798Y-131107457D02*
X144075417Y-131155076D01*
X144075417Y-131155076D02*
X144170655Y-131202695D01*
X144170655Y-131202695D02*
X144313512Y-131202695D01*
X144313512Y-131202695D02*
X144408750Y-131155076D01*
X144408750Y-131155076D02*
X144456369Y-131107457D01*
X144456369Y-131107457D02*
X144503988Y-131012219D01*
X144503988Y-131012219D02*
X144503988Y-130631267D01*
X144408750Y-131774124D02*
X144361131Y-131678886D01*
X144361131Y-131678886D02*
X144313512Y-131631267D01*
X144313512Y-131631267D02*
X144218274Y-131583648D01*
X144218274Y-131583648D02*
X144170655Y-131583648D01*
X144170655Y-131583648D02*
X144075417Y-131631267D01*
X144075417Y-131631267D02*
X144027798Y-131678886D01*
X144027798Y-131678886D02*
X143980179Y-131774124D01*
X143980179Y-131774124D02*
X143980179Y-131964600D01*
X143980179Y-131964600D02*
X144027798Y-132059838D01*
X144027798Y-132059838D02*
X144075417Y-132107457D01*
X144075417Y-132107457D02*
X144170655Y-132155076D01*
X144170655Y-132155076D02*
X144218274Y-132155076D01*
X144218274Y-132155076D02*
X144313512Y-132107457D01*
X144313512Y-132107457D02*
X144361131Y-132059838D01*
X144361131Y-132059838D02*
X144408750Y-131964600D01*
X144408750Y-131964600D02*
X144408750Y-131774124D01*
X144408750Y-131774124D02*
X144456369Y-131678886D01*
X144456369Y-131678886D02*
X144503988Y-131631267D01*
X144503988Y-131631267D02*
X144599226Y-131583648D01*
X144599226Y-131583648D02*
X144789702Y-131583648D01*
X144789702Y-131583648D02*
X144884940Y-131631267D01*
X144884940Y-131631267D02*
X144932560Y-131678886D01*
X144932560Y-131678886D02*
X144980179Y-131774124D01*
X144980179Y-131774124D02*
X144980179Y-131964600D01*
X144980179Y-131964600D02*
X144932560Y-132059838D01*
X144932560Y-132059838D02*
X144884940Y-132107457D01*
X144884940Y-132107457D02*
X144789702Y-132155076D01*
X144789702Y-132155076D02*
X144599226Y-132155076D01*
X144599226Y-132155076D02*
X144503988Y-132107457D01*
X144503988Y-132107457D02*
X144456369Y-132059838D01*
X144456369Y-132059838D02*
X144408750Y-131964600D01*
X143980179Y-132488410D02*
X143980179Y-133155076D01*
X143980179Y-133155076D02*
X144980179Y-132726505D01*
X146776315Y-130155076D02*
X147490600Y-130155076D01*
X147490600Y-130155076D02*
X147633457Y-130107457D01*
X147633457Y-130107457D02*
X147728696Y-130012219D01*
X147728696Y-130012219D02*
X147776315Y-129869362D01*
X147776315Y-129869362D02*
X147776315Y-129774124D01*
X147776315Y-130631267D02*
X146776315Y-130631267D01*
X146776315Y-130631267D02*
X146776315Y-131012219D01*
X146776315Y-131012219D02*
X146823934Y-131107457D01*
X146823934Y-131107457D02*
X146871553Y-131155076D01*
X146871553Y-131155076D02*
X146966791Y-131202695D01*
X146966791Y-131202695D02*
X147109648Y-131202695D01*
X147109648Y-131202695D02*
X147204886Y-131155076D01*
X147204886Y-131155076D02*
X147252505Y-131107457D01*
X147252505Y-131107457D02*
X147300124Y-131012219D01*
X147300124Y-131012219D02*
X147300124Y-130631267D01*
X147204886Y-131774124D02*
X147157267Y-131678886D01*
X147157267Y-131678886D02*
X147109648Y-131631267D01*
X147109648Y-131631267D02*
X147014410Y-131583648D01*
X147014410Y-131583648D02*
X146966791Y-131583648D01*
X146966791Y-131583648D02*
X146871553Y-131631267D01*
X146871553Y-131631267D02*
X146823934Y-131678886D01*
X146823934Y-131678886D02*
X146776315Y-131774124D01*
X146776315Y-131774124D02*
X146776315Y-131964600D01*
X146776315Y-131964600D02*
X146823934Y-132059838D01*
X146823934Y-132059838D02*
X146871553Y-132107457D01*
X146871553Y-132107457D02*
X146966791Y-132155076D01*
X146966791Y-132155076D02*
X147014410Y-132155076D01*
X147014410Y-132155076D02*
X147109648Y-132107457D01*
X147109648Y-132107457D02*
X147157267Y-132059838D01*
X147157267Y-132059838D02*
X147204886Y-131964600D01*
X147204886Y-131964600D02*
X147204886Y-131774124D01*
X147204886Y-131774124D02*
X147252505Y-131678886D01*
X147252505Y-131678886D02*
X147300124Y-131631267D01*
X147300124Y-131631267D02*
X147395362Y-131583648D01*
X147395362Y-131583648D02*
X147585838Y-131583648D01*
X147585838Y-131583648D02*
X147681076Y-131631267D01*
X147681076Y-131631267D02*
X147728696Y-131678886D01*
X147728696Y-131678886D02*
X147776315Y-131774124D01*
X147776315Y-131774124D02*
X147776315Y-131964600D01*
X147776315Y-131964600D02*
X147728696Y-132059838D01*
X147728696Y-132059838D02*
X147681076Y-132107457D01*
X147681076Y-132107457D02*
X147585838Y-132155076D01*
X147585838Y-132155076D02*
X147395362Y-132155076D01*
X147395362Y-132155076D02*
X147300124Y-132107457D01*
X147300124Y-132107457D02*
X147252505Y-132059838D01*
X147252505Y-132059838D02*
X147204886Y-131964600D01*
X146776315Y-133012219D02*
X146776315Y-132821743D01*
X146776315Y-132821743D02*
X146823934Y-132726505D01*
X146823934Y-132726505D02*
X146871553Y-132678886D01*
X146871553Y-132678886D02*
X147014410Y-132583648D01*
X147014410Y-132583648D02*
X147204886Y-132536029D01*
X147204886Y-132536029D02*
X147585838Y-132536029D01*
X147585838Y-132536029D02*
X147681076Y-132583648D01*
X147681076Y-132583648D02*
X147728696Y-132631267D01*
X147728696Y-132631267D02*
X147776315Y-132726505D01*
X147776315Y-132726505D02*
X147776315Y-132916981D01*
X147776315Y-132916981D02*
X147728696Y-133012219D01*
X147728696Y-133012219D02*
X147681076Y-133059838D01*
X147681076Y-133059838D02*
X147585838Y-133107457D01*
X147585838Y-133107457D02*
X147347743Y-133107457D01*
X147347743Y-133107457D02*
X147252505Y-133059838D01*
X147252505Y-133059838D02*
X147204886Y-133012219D01*
X147204886Y-133012219D02*
X147157267Y-132916981D01*
X147157267Y-132916981D02*
X147157267Y-132726505D01*
X147157267Y-132726505D02*
X147204886Y-132631267D01*
X147204886Y-132631267D02*
X147252505Y-132583648D01*
X147252505Y-132583648D02*
X147347743Y-132536029D01*
X118814955Y-130201276D02*
X119529240Y-130201276D01*
X119529240Y-130201276D02*
X119672097Y-130153657D01*
X119672097Y-130153657D02*
X119767336Y-130058419D01*
X119767336Y-130058419D02*
X119814955Y-129915562D01*
X119814955Y-129915562D02*
X119814955Y-129820324D01*
X119814955Y-130677467D02*
X118814955Y-130677467D01*
X118814955Y-130677467D02*
X118814955Y-131058419D01*
X118814955Y-131058419D02*
X118862574Y-131153657D01*
X118862574Y-131153657D02*
X118910193Y-131201276D01*
X118910193Y-131201276D02*
X119005431Y-131248895D01*
X119005431Y-131248895D02*
X119148288Y-131248895D01*
X119148288Y-131248895D02*
X119243526Y-131201276D01*
X119243526Y-131201276D02*
X119291145Y-131153657D01*
X119291145Y-131153657D02*
X119338764Y-131058419D01*
X119338764Y-131058419D02*
X119338764Y-130677467D01*
X118814955Y-132153657D02*
X118814955Y-131677467D01*
X118814955Y-131677467D02*
X119291145Y-131629848D01*
X119291145Y-131629848D02*
X119243526Y-131677467D01*
X119243526Y-131677467D02*
X119195907Y-131772705D01*
X119195907Y-131772705D02*
X119195907Y-132010800D01*
X119195907Y-132010800D02*
X119243526Y-132106038D01*
X119243526Y-132106038D02*
X119291145Y-132153657D01*
X119291145Y-132153657D02*
X119386383Y-132201276D01*
X119386383Y-132201276D02*
X119624478Y-132201276D01*
X119624478Y-132201276D02*
X119719716Y-132153657D01*
X119719716Y-132153657D02*
X119767336Y-132106038D01*
X119767336Y-132106038D02*
X119814955Y-132010800D01*
X119814955Y-132010800D02*
X119814955Y-131772705D01*
X119814955Y-131772705D02*
X119767336Y-131677467D01*
X119767336Y-131677467D02*
X119719716Y-131629848D01*
X119148288Y-133058419D02*
X119814955Y-133058419D01*
X118767336Y-132820324D02*
X119481621Y-132582229D01*
X119481621Y-132582229D02*
X119481621Y-133201276D01*
X177533811Y-130129676D02*
X178248096Y-130129676D01*
X178248096Y-130129676D02*
X178390953Y-130082057D01*
X178390953Y-130082057D02*
X178486192Y-129986819D01*
X178486192Y-129986819D02*
X178533811Y-129843962D01*
X178533811Y-129843962D02*
X178533811Y-129748724D01*
X178533811Y-130605867D02*
X177533811Y-130605867D01*
X177533811Y-130605867D02*
X177533811Y-130986819D01*
X177533811Y-130986819D02*
X177581430Y-131082057D01*
X177581430Y-131082057D02*
X177629049Y-131129676D01*
X177629049Y-131129676D02*
X177724287Y-131177295D01*
X177724287Y-131177295D02*
X177867144Y-131177295D01*
X177867144Y-131177295D02*
X177962382Y-131129676D01*
X177962382Y-131129676D02*
X178010001Y-131082057D01*
X178010001Y-131082057D02*
X178057620Y-130986819D01*
X178057620Y-130986819D02*
X178057620Y-130605867D01*
X177533811Y-131510629D02*
X177533811Y-132177295D01*
X177533811Y-132177295D02*
X178533811Y-131748724D01*
X177629049Y-132510629D02*
X177581430Y-132558248D01*
X177581430Y-132558248D02*
X177533811Y-132653486D01*
X177533811Y-132653486D02*
X177533811Y-132891581D01*
X177533811Y-132891581D02*
X177581430Y-132986819D01*
X177581430Y-132986819D02*
X177629049Y-133034438D01*
X177629049Y-133034438D02*
X177724287Y-133082057D01*
X177724287Y-133082057D02*
X177819525Y-133082057D01*
X177819525Y-133082057D02*
X177962382Y-133034438D01*
X177962382Y-133034438D02*
X178533811Y-132463010D01*
X178533811Y-132463010D02*
X178533811Y-133082057D01*
X174737675Y-130129676D02*
X175451960Y-130129676D01*
X175451960Y-130129676D02*
X175594817Y-130082057D01*
X175594817Y-130082057D02*
X175690056Y-129986819D01*
X175690056Y-129986819D02*
X175737675Y-129843962D01*
X175737675Y-129843962D02*
X175737675Y-129748724D01*
X175737675Y-130605867D02*
X174737675Y-130605867D01*
X174737675Y-130605867D02*
X174737675Y-130986819D01*
X174737675Y-130986819D02*
X174785294Y-131082057D01*
X174785294Y-131082057D02*
X174832913Y-131129676D01*
X174832913Y-131129676D02*
X174928151Y-131177295D01*
X174928151Y-131177295D02*
X175071008Y-131177295D01*
X175071008Y-131177295D02*
X175166246Y-131129676D01*
X175166246Y-131129676D02*
X175213865Y-131082057D01*
X175213865Y-131082057D02*
X175261484Y-130986819D01*
X175261484Y-130986819D02*
X175261484Y-130605867D01*
X174737675Y-131510629D02*
X174737675Y-132177295D01*
X174737675Y-132177295D02*
X175737675Y-131748724D01*
X174737675Y-132463010D02*
X174737675Y-133082057D01*
X174737675Y-133082057D02*
X175118627Y-132748724D01*
X175118627Y-132748724D02*
X175118627Y-132891581D01*
X175118627Y-132891581D02*
X175166246Y-132986819D01*
X175166246Y-132986819D02*
X175213865Y-133034438D01*
X175213865Y-133034438D02*
X175309103Y-133082057D01*
X175309103Y-133082057D02*
X175547198Y-133082057D01*
X175547198Y-133082057D02*
X175642436Y-133034438D01*
X175642436Y-133034438D02*
X175690056Y-132986819D01*
X175690056Y-132986819D02*
X175737675Y-132891581D01*
X175737675Y-132891581D02*
X175737675Y-132605867D01*
X175737675Y-132605867D02*
X175690056Y-132510629D01*
X175690056Y-132510629D02*
X175642436Y-132463010D01*
X154787219Y-45543076D02*
X155501504Y-45543076D01*
X155501504Y-45543076D02*
X155644361Y-45495457D01*
X155644361Y-45495457D02*
X155739600Y-45400219D01*
X155739600Y-45400219D02*
X155787219Y-45257362D01*
X155787219Y-45257362D02*
X155787219Y-45162124D01*
X155787219Y-46019267D02*
X154787219Y-46019267D01*
X154787219Y-46019267D02*
X154787219Y-46400219D01*
X154787219Y-46400219D02*
X154834838Y-46495457D01*
X154834838Y-46495457D02*
X154882457Y-46543076D01*
X154882457Y-46543076D02*
X154977695Y-46590695D01*
X154977695Y-46590695D02*
X155120552Y-46590695D01*
X155120552Y-46590695D02*
X155215790Y-46543076D01*
X155215790Y-46543076D02*
X155263409Y-46495457D01*
X155263409Y-46495457D02*
X155311028Y-46400219D01*
X155311028Y-46400219D02*
X155311028Y-46019267D01*
X154787219Y-47495457D02*
X154787219Y-47019267D01*
X154787219Y-47019267D02*
X155263409Y-46971648D01*
X155263409Y-46971648D02*
X155215790Y-47019267D01*
X155215790Y-47019267D02*
X155168171Y-47114505D01*
X155168171Y-47114505D02*
X155168171Y-47352600D01*
X155168171Y-47352600D02*
X155215790Y-47447838D01*
X155215790Y-47447838D02*
X155263409Y-47495457D01*
X155263409Y-47495457D02*
X155358647Y-47543076D01*
X155358647Y-47543076D02*
X155596742Y-47543076D01*
X155596742Y-47543076D02*
X155691980Y-47495457D01*
X155691980Y-47495457D02*
X155739600Y-47447838D01*
X155739600Y-47447838D02*
X155787219Y-47352600D01*
X155787219Y-47352600D02*
X155787219Y-47114505D01*
X155787219Y-47114505D02*
X155739600Y-47019267D01*
X155739600Y-47019267D02*
X155691980Y-46971648D01*
X155787219Y-48019267D02*
X155787219Y-48209743D01*
X155787219Y-48209743D02*
X155739600Y-48304981D01*
X155739600Y-48304981D02*
X155691980Y-48352600D01*
X155691980Y-48352600D02*
X155549123Y-48447838D01*
X155549123Y-48447838D02*
X155358647Y-48495457D01*
X155358647Y-48495457D02*
X154977695Y-48495457D01*
X154977695Y-48495457D02*
X154882457Y-48447838D01*
X154882457Y-48447838D02*
X154834838Y-48400219D01*
X154834838Y-48400219D02*
X154787219Y-48304981D01*
X154787219Y-48304981D02*
X154787219Y-48114505D01*
X154787219Y-48114505D02*
X154834838Y-48019267D01*
X154834838Y-48019267D02*
X154882457Y-47971648D01*
X154882457Y-47971648D02*
X154977695Y-47924029D01*
X154977695Y-47924029D02*
X155215790Y-47924029D01*
X155215790Y-47924029D02*
X155311028Y-47971648D01*
X155311028Y-47971648D02*
X155358647Y-48019267D01*
X155358647Y-48019267D02*
X155406266Y-48114505D01*
X155406266Y-48114505D02*
X155406266Y-48304981D01*
X155406266Y-48304981D02*
X155358647Y-48400219D01*
X155358647Y-48400219D02*
X155311028Y-48447838D01*
X155311028Y-48447838D02*
X155215790Y-48495457D01*
X147687219Y-45543076D02*
X148401504Y-45543076D01*
X148401504Y-45543076D02*
X148544361Y-45495457D01*
X148544361Y-45495457D02*
X148639600Y-45400219D01*
X148639600Y-45400219D02*
X148687219Y-45257362D01*
X148687219Y-45257362D02*
X148687219Y-45162124D01*
X148687219Y-46019267D02*
X147687219Y-46019267D01*
X147687219Y-46019267D02*
X147687219Y-46400219D01*
X147687219Y-46400219D02*
X147734838Y-46495457D01*
X147734838Y-46495457D02*
X147782457Y-46543076D01*
X147782457Y-46543076D02*
X147877695Y-46590695D01*
X147877695Y-46590695D02*
X148020552Y-46590695D01*
X148020552Y-46590695D02*
X148115790Y-46543076D01*
X148115790Y-46543076D02*
X148163409Y-46495457D01*
X148163409Y-46495457D02*
X148211028Y-46400219D01*
X148211028Y-46400219D02*
X148211028Y-46019267D01*
X147687219Y-47447838D02*
X147687219Y-47257362D01*
X147687219Y-47257362D02*
X147734838Y-47162124D01*
X147734838Y-47162124D02*
X147782457Y-47114505D01*
X147782457Y-47114505D02*
X147925314Y-47019267D01*
X147925314Y-47019267D02*
X148115790Y-46971648D01*
X148115790Y-46971648D02*
X148496742Y-46971648D01*
X148496742Y-46971648D02*
X148591980Y-47019267D01*
X148591980Y-47019267D02*
X148639600Y-47066886D01*
X148639600Y-47066886D02*
X148687219Y-47162124D01*
X148687219Y-47162124D02*
X148687219Y-47352600D01*
X148687219Y-47352600D02*
X148639600Y-47447838D01*
X148639600Y-47447838D02*
X148591980Y-47495457D01*
X148591980Y-47495457D02*
X148496742Y-47543076D01*
X148496742Y-47543076D02*
X148258647Y-47543076D01*
X148258647Y-47543076D02*
X148163409Y-47495457D01*
X148163409Y-47495457D02*
X148115790Y-47447838D01*
X148115790Y-47447838D02*
X148068171Y-47352600D01*
X148068171Y-47352600D02*
X148068171Y-47162124D01*
X148068171Y-47162124D02*
X148115790Y-47066886D01*
X148115790Y-47066886D02*
X148163409Y-47019267D01*
X148163409Y-47019267D02*
X148258647Y-46971648D01*
X148687219Y-48495457D02*
X148687219Y-47924029D01*
X148687219Y-48209743D02*
X147687219Y-48209743D01*
X147687219Y-48209743D02*
X147830076Y-48114505D01*
X147830076Y-48114505D02*
X147925314Y-48019267D01*
X147925314Y-48019267D02*
X147972933Y-47924029D01*
X141184043Y-130252076D02*
X141898328Y-130252076D01*
X141898328Y-130252076D02*
X142041185Y-130204457D01*
X142041185Y-130204457D02*
X142136424Y-130109219D01*
X142136424Y-130109219D02*
X142184043Y-129966362D01*
X142184043Y-129966362D02*
X142184043Y-129871124D01*
X142184043Y-130728267D02*
X141184043Y-130728267D01*
X141184043Y-130728267D02*
X141184043Y-131109219D01*
X141184043Y-131109219D02*
X141231662Y-131204457D01*
X141231662Y-131204457D02*
X141279281Y-131252076D01*
X141279281Y-131252076D02*
X141374519Y-131299695D01*
X141374519Y-131299695D02*
X141517376Y-131299695D01*
X141517376Y-131299695D02*
X141612614Y-131252076D01*
X141612614Y-131252076D02*
X141660233Y-131204457D01*
X141660233Y-131204457D02*
X141707852Y-131109219D01*
X141707852Y-131109219D02*
X141707852Y-130728267D01*
X141612614Y-131871124D02*
X141564995Y-131775886D01*
X141564995Y-131775886D02*
X141517376Y-131728267D01*
X141517376Y-131728267D02*
X141422138Y-131680648D01*
X141422138Y-131680648D02*
X141374519Y-131680648D01*
X141374519Y-131680648D02*
X141279281Y-131728267D01*
X141279281Y-131728267D02*
X141231662Y-131775886D01*
X141231662Y-131775886D02*
X141184043Y-131871124D01*
X141184043Y-131871124D02*
X141184043Y-132061600D01*
X141184043Y-132061600D02*
X141231662Y-132156838D01*
X141231662Y-132156838D02*
X141279281Y-132204457D01*
X141279281Y-132204457D02*
X141374519Y-132252076D01*
X141374519Y-132252076D02*
X141422138Y-132252076D01*
X141422138Y-132252076D02*
X141517376Y-132204457D01*
X141517376Y-132204457D02*
X141564995Y-132156838D01*
X141564995Y-132156838D02*
X141612614Y-132061600D01*
X141612614Y-132061600D02*
X141612614Y-131871124D01*
X141612614Y-131871124D02*
X141660233Y-131775886D01*
X141660233Y-131775886D02*
X141707852Y-131728267D01*
X141707852Y-131728267D02*
X141803090Y-131680648D01*
X141803090Y-131680648D02*
X141993566Y-131680648D01*
X141993566Y-131680648D02*
X142088804Y-131728267D01*
X142088804Y-131728267D02*
X142136424Y-131775886D01*
X142136424Y-131775886D02*
X142184043Y-131871124D01*
X142184043Y-131871124D02*
X142184043Y-132061600D01*
X142184043Y-132061600D02*
X142136424Y-132156838D01*
X142136424Y-132156838D02*
X142088804Y-132204457D01*
X142088804Y-132204457D02*
X141993566Y-132252076D01*
X141993566Y-132252076D02*
X141803090Y-132252076D01*
X141803090Y-132252076D02*
X141707852Y-132204457D01*
X141707852Y-132204457D02*
X141660233Y-132156838D01*
X141660233Y-132156838D02*
X141612614Y-132061600D01*
X141184043Y-133156838D02*
X141184043Y-132680648D01*
X141184043Y-132680648D02*
X141660233Y-132633029D01*
X141660233Y-132633029D02*
X141612614Y-132680648D01*
X141612614Y-132680648D02*
X141564995Y-132775886D01*
X141564995Y-132775886D02*
X141564995Y-133013981D01*
X141564995Y-133013981D02*
X141612614Y-133109219D01*
X141612614Y-133109219D02*
X141660233Y-133156838D01*
X141660233Y-133156838D02*
X141755471Y-133204457D01*
X141755471Y-133204457D02*
X141993566Y-133204457D01*
X141993566Y-133204457D02*
X142088804Y-133156838D01*
X142088804Y-133156838D02*
X142136424Y-133109219D01*
X142136424Y-133109219D02*
X142184043Y-133013981D01*
X142184043Y-133013981D02*
X142184043Y-132775886D01*
X142184043Y-132775886D02*
X142136424Y-132680648D01*
X142136424Y-132680648D02*
X142088804Y-132633029D01*
X116088219Y-45771676D02*
X116802504Y-45771676D01*
X116802504Y-45771676D02*
X116945361Y-45724057D01*
X116945361Y-45724057D02*
X117040600Y-45628819D01*
X117040600Y-45628819D02*
X117088219Y-45485962D01*
X117088219Y-45485962D02*
X117088219Y-45390724D01*
X117088219Y-46247867D02*
X116088219Y-46247867D01*
X116088219Y-46247867D02*
X116088219Y-46628819D01*
X116088219Y-46628819D02*
X116135838Y-46724057D01*
X116135838Y-46724057D02*
X116183457Y-46771676D01*
X116183457Y-46771676D02*
X116278695Y-46819295D01*
X116278695Y-46819295D02*
X116421552Y-46819295D01*
X116421552Y-46819295D02*
X116516790Y-46771676D01*
X116516790Y-46771676D02*
X116564409Y-46724057D01*
X116564409Y-46724057D02*
X116612028Y-46628819D01*
X116612028Y-46628819D02*
X116612028Y-46247867D01*
X116088219Y-47152629D02*
X116088219Y-47819295D01*
X116088219Y-47819295D02*
X117088219Y-47390724D01*
X116088219Y-48390724D02*
X116088219Y-48485962D01*
X116088219Y-48485962D02*
X116135838Y-48581200D01*
X116135838Y-48581200D02*
X116183457Y-48628819D01*
X116183457Y-48628819D02*
X116278695Y-48676438D01*
X116278695Y-48676438D02*
X116469171Y-48724057D01*
X116469171Y-48724057D02*
X116707266Y-48724057D01*
X116707266Y-48724057D02*
X116897742Y-48676438D01*
X116897742Y-48676438D02*
X116992980Y-48628819D01*
X116992980Y-48628819D02*
X117040600Y-48581200D01*
X117040600Y-48581200D02*
X117088219Y-48485962D01*
X117088219Y-48485962D02*
X117088219Y-48390724D01*
X117088219Y-48390724D02*
X117040600Y-48295486D01*
X117040600Y-48295486D02*
X116992980Y-48247867D01*
X116992980Y-48247867D02*
X116897742Y-48200248D01*
X116897742Y-48200248D02*
X116707266Y-48152629D01*
X116707266Y-48152629D02*
X116469171Y-48152629D01*
X116469171Y-48152629D02*
X116278695Y-48200248D01*
X116278695Y-48200248D02*
X116183457Y-48247867D01*
X116183457Y-48247867D02*
X116135838Y-48295486D01*
X116135838Y-48295486D02*
X116088219Y-48390724D01*
X144137219Y-45543076D02*
X144851504Y-45543076D01*
X144851504Y-45543076D02*
X144994361Y-45495457D01*
X144994361Y-45495457D02*
X145089600Y-45400219D01*
X145089600Y-45400219D02*
X145137219Y-45257362D01*
X145137219Y-45257362D02*
X145137219Y-45162124D01*
X145137219Y-46019267D02*
X144137219Y-46019267D01*
X144137219Y-46019267D02*
X144137219Y-46400219D01*
X144137219Y-46400219D02*
X144184838Y-46495457D01*
X144184838Y-46495457D02*
X144232457Y-46543076D01*
X144232457Y-46543076D02*
X144327695Y-46590695D01*
X144327695Y-46590695D02*
X144470552Y-46590695D01*
X144470552Y-46590695D02*
X144565790Y-46543076D01*
X144565790Y-46543076D02*
X144613409Y-46495457D01*
X144613409Y-46495457D02*
X144661028Y-46400219D01*
X144661028Y-46400219D02*
X144661028Y-46019267D01*
X144137219Y-47447838D02*
X144137219Y-47257362D01*
X144137219Y-47257362D02*
X144184838Y-47162124D01*
X144184838Y-47162124D02*
X144232457Y-47114505D01*
X144232457Y-47114505D02*
X144375314Y-47019267D01*
X144375314Y-47019267D02*
X144565790Y-46971648D01*
X144565790Y-46971648D02*
X144946742Y-46971648D01*
X144946742Y-46971648D02*
X145041980Y-47019267D01*
X145041980Y-47019267D02*
X145089600Y-47066886D01*
X145089600Y-47066886D02*
X145137219Y-47162124D01*
X145137219Y-47162124D02*
X145137219Y-47352600D01*
X145137219Y-47352600D02*
X145089600Y-47447838D01*
X145089600Y-47447838D02*
X145041980Y-47495457D01*
X145041980Y-47495457D02*
X144946742Y-47543076D01*
X144946742Y-47543076D02*
X144708647Y-47543076D01*
X144708647Y-47543076D02*
X144613409Y-47495457D01*
X144613409Y-47495457D02*
X144565790Y-47447838D01*
X144565790Y-47447838D02*
X144518171Y-47352600D01*
X144518171Y-47352600D02*
X144518171Y-47162124D01*
X144518171Y-47162124D02*
X144565790Y-47066886D01*
X144565790Y-47066886D02*
X144613409Y-47019267D01*
X144613409Y-47019267D02*
X144708647Y-46971648D01*
X144232457Y-47924029D02*
X144184838Y-47971648D01*
X144184838Y-47971648D02*
X144137219Y-48066886D01*
X144137219Y-48066886D02*
X144137219Y-48304981D01*
X144137219Y-48304981D02*
X144184838Y-48400219D01*
X144184838Y-48400219D02*
X144232457Y-48447838D01*
X144232457Y-48447838D02*
X144327695Y-48495457D01*
X144327695Y-48495457D02*
X144422933Y-48495457D01*
X144422933Y-48495457D02*
X144565790Y-48447838D01*
X144565790Y-48447838D02*
X145137219Y-47876410D01*
X145137219Y-47876410D02*
X145137219Y-48495457D01*
X129999499Y-130201276D02*
X130713784Y-130201276D01*
X130713784Y-130201276D02*
X130856641Y-130153657D01*
X130856641Y-130153657D02*
X130951880Y-130058419D01*
X130951880Y-130058419D02*
X130999499Y-129915562D01*
X130999499Y-129915562D02*
X130999499Y-129820324D01*
X130999499Y-130677467D02*
X129999499Y-130677467D01*
X129999499Y-130677467D02*
X129999499Y-131058419D01*
X129999499Y-131058419D02*
X130047118Y-131153657D01*
X130047118Y-131153657D02*
X130094737Y-131201276D01*
X130094737Y-131201276D02*
X130189975Y-131248895D01*
X130189975Y-131248895D02*
X130332832Y-131248895D01*
X130332832Y-131248895D02*
X130428070Y-131201276D01*
X130428070Y-131201276D02*
X130475689Y-131153657D01*
X130475689Y-131153657D02*
X130523308Y-131058419D01*
X130523308Y-131058419D02*
X130523308Y-130677467D01*
X129999499Y-132153657D02*
X129999499Y-131677467D01*
X129999499Y-131677467D02*
X130475689Y-131629848D01*
X130475689Y-131629848D02*
X130428070Y-131677467D01*
X130428070Y-131677467D02*
X130380451Y-131772705D01*
X130380451Y-131772705D02*
X130380451Y-132010800D01*
X130380451Y-132010800D02*
X130428070Y-132106038D01*
X130428070Y-132106038D02*
X130475689Y-132153657D01*
X130475689Y-132153657D02*
X130570927Y-132201276D01*
X130570927Y-132201276D02*
X130809022Y-132201276D01*
X130809022Y-132201276D02*
X130904260Y-132153657D01*
X130904260Y-132153657D02*
X130951880Y-132106038D01*
X130951880Y-132106038D02*
X130999499Y-132010800D01*
X130999499Y-132010800D02*
X130999499Y-131772705D01*
X130999499Y-131772705D02*
X130951880Y-131677467D01*
X130951880Y-131677467D02*
X130904260Y-131629848D01*
X129999499Y-132820324D02*
X129999499Y-132915562D01*
X129999499Y-132915562D02*
X130047118Y-133010800D01*
X130047118Y-133010800D02*
X130094737Y-133058419D01*
X130094737Y-133058419D02*
X130189975Y-133106038D01*
X130189975Y-133106038D02*
X130380451Y-133153657D01*
X130380451Y-133153657D02*
X130618546Y-133153657D01*
X130618546Y-133153657D02*
X130809022Y-133106038D01*
X130809022Y-133106038D02*
X130904260Y-133058419D01*
X130904260Y-133058419D02*
X130951880Y-133010800D01*
X130951880Y-133010800D02*
X130999499Y-132915562D01*
X130999499Y-132915562D02*
X130999499Y-132820324D01*
X130999499Y-132820324D02*
X130951880Y-132725086D01*
X130951880Y-132725086D02*
X130904260Y-132677467D01*
X130904260Y-132677467D02*
X130809022Y-132629848D01*
X130809022Y-132629848D02*
X130618546Y-132582229D01*
X130618546Y-132582229D02*
X130380451Y-132582229D01*
X130380451Y-132582229D02*
X130189975Y-132629848D01*
X130189975Y-132629848D02*
X130094737Y-132677467D01*
X130094737Y-132677467D02*
X130047118Y-132725086D01*
X130047118Y-132725086D02*
X129999499Y-132820324D01*
X121611091Y-130201276D02*
X122325376Y-130201276D01*
X122325376Y-130201276D02*
X122468233Y-130153657D01*
X122468233Y-130153657D02*
X122563472Y-130058419D01*
X122563472Y-130058419D02*
X122611091Y-129915562D01*
X122611091Y-129915562D02*
X122611091Y-129820324D01*
X122611091Y-130677467D02*
X121611091Y-130677467D01*
X121611091Y-130677467D02*
X121611091Y-131058419D01*
X121611091Y-131058419D02*
X121658710Y-131153657D01*
X121658710Y-131153657D02*
X121706329Y-131201276D01*
X121706329Y-131201276D02*
X121801567Y-131248895D01*
X121801567Y-131248895D02*
X121944424Y-131248895D01*
X121944424Y-131248895D02*
X122039662Y-131201276D01*
X122039662Y-131201276D02*
X122087281Y-131153657D01*
X122087281Y-131153657D02*
X122134900Y-131058419D01*
X122134900Y-131058419D02*
X122134900Y-130677467D01*
X121611091Y-132153657D02*
X121611091Y-131677467D01*
X121611091Y-131677467D02*
X122087281Y-131629848D01*
X122087281Y-131629848D02*
X122039662Y-131677467D01*
X122039662Y-131677467D02*
X121992043Y-131772705D01*
X121992043Y-131772705D02*
X121992043Y-132010800D01*
X121992043Y-132010800D02*
X122039662Y-132106038D01*
X122039662Y-132106038D02*
X122087281Y-132153657D01*
X122087281Y-132153657D02*
X122182519Y-132201276D01*
X122182519Y-132201276D02*
X122420614Y-132201276D01*
X122420614Y-132201276D02*
X122515852Y-132153657D01*
X122515852Y-132153657D02*
X122563472Y-132106038D01*
X122563472Y-132106038D02*
X122611091Y-132010800D01*
X122611091Y-132010800D02*
X122611091Y-131772705D01*
X122611091Y-131772705D02*
X122563472Y-131677467D01*
X122563472Y-131677467D02*
X122515852Y-131629848D01*
X121611091Y-132534610D02*
X121611091Y-133153657D01*
X121611091Y-133153657D02*
X121992043Y-132820324D01*
X121992043Y-132820324D02*
X121992043Y-132963181D01*
X121992043Y-132963181D02*
X122039662Y-133058419D01*
X122039662Y-133058419D02*
X122087281Y-133106038D01*
X122087281Y-133106038D02*
X122182519Y-133153657D01*
X122182519Y-133153657D02*
X122420614Y-133153657D01*
X122420614Y-133153657D02*
X122515852Y-133106038D01*
X122515852Y-133106038D02*
X122563472Y-133058419D01*
X122563472Y-133058419D02*
X122611091Y-132963181D01*
X122611091Y-132963181D02*
X122611091Y-132677467D01*
X122611091Y-132677467D02*
X122563472Y-132582229D01*
X122563472Y-132582229D02*
X122515852Y-132534610D01*
X140587219Y-45543076D02*
X141301504Y-45543076D01*
X141301504Y-45543076D02*
X141444361Y-45495457D01*
X141444361Y-45495457D02*
X141539600Y-45400219D01*
X141539600Y-45400219D02*
X141587219Y-45257362D01*
X141587219Y-45257362D02*
X141587219Y-45162124D01*
X141587219Y-46019267D02*
X140587219Y-46019267D01*
X140587219Y-46019267D02*
X140587219Y-46400219D01*
X140587219Y-46400219D02*
X140634838Y-46495457D01*
X140634838Y-46495457D02*
X140682457Y-46543076D01*
X140682457Y-46543076D02*
X140777695Y-46590695D01*
X140777695Y-46590695D02*
X140920552Y-46590695D01*
X140920552Y-46590695D02*
X141015790Y-46543076D01*
X141015790Y-46543076D02*
X141063409Y-46495457D01*
X141063409Y-46495457D02*
X141111028Y-46400219D01*
X141111028Y-46400219D02*
X141111028Y-46019267D01*
X140587219Y-47447838D02*
X140587219Y-47257362D01*
X140587219Y-47257362D02*
X140634838Y-47162124D01*
X140634838Y-47162124D02*
X140682457Y-47114505D01*
X140682457Y-47114505D02*
X140825314Y-47019267D01*
X140825314Y-47019267D02*
X141015790Y-46971648D01*
X141015790Y-46971648D02*
X141396742Y-46971648D01*
X141396742Y-46971648D02*
X141491980Y-47019267D01*
X141491980Y-47019267D02*
X141539600Y-47066886D01*
X141539600Y-47066886D02*
X141587219Y-47162124D01*
X141587219Y-47162124D02*
X141587219Y-47352600D01*
X141587219Y-47352600D02*
X141539600Y-47447838D01*
X141539600Y-47447838D02*
X141491980Y-47495457D01*
X141491980Y-47495457D02*
X141396742Y-47543076D01*
X141396742Y-47543076D02*
X141158647Y-47543076D01*
X141158647Y-47543076D02*
X141063409Y-47495457D01*
X141063409Y-47495457D02*
X141015790Y-47447838D01*
X141015790Y-47447838D02*
X140968171Y-47352600D01*
X140968171Y-47352600D02*
X140968171Y-47162124D01*
X140968171Y-47162124D02*
X141015790Y-47066886D01*
X141015790Y-47066886D02*
X141063409Y-47019267D01*
X141063409Y-47019267D02*
X141158647Y-46971648D01*
X140587219Y-47876410D02*
X140587219Y-48495457D01*
X140587219Y-48495457D02*
X140968171Y-48162124D01*
X140968171Y-48162124D02*
X140968171Y-48304981D01*
X140968171Y-48304981D02*
X141015790Y-48400219D01*
X141015790Y-48400219D02*
X141063409Y-48447838D01*
X141063409Y-48447838D02*
X141158647Y-48495457D01*
X141158647Y-48495457D02*
X141396742Y-48495457D01*
X141396742Y-48495457D02*
X141491980Y-48447838D01*
X141491980Y-48447838D02*
X141539600Y-48400219D01*
X141539600Y-48400219D02*
X141587219Y-48304981D01*
X141587219Y-48304981D02*
X141587219Y-48019267D01*
X141587219Y-48019267D02*
X141539600Y-47924029D01*
X141539600Y-47924029D02*
X141491980Y-47876410D01*
X124407227Y-130201276D02*
X125121512Y-130201276D01*
X125121512Y-130201276D02*
X125264369Y-130153657D01*
X125264369Y-130153657D02*
X125359608Y-130058419D01*
X125359608Y-130058419D02*
X125407227Y-129915562D01*
X125407227Y-129915562D02*
X125407227Y-129820324D01*
X125407227Y-130677467D02*
X124407227Y-130677467D01*
X124407227Y-130677467D02*
X124407227Y-131058419D01*
X124407227Y-131058419D02*
X124454846Y-131153657D01*
X124454846Y-131153657D02*
X124502465Y-131201276D01*
X124502465Y-131201276D02*
X124597703Y-131248895D01*
X124597703Y-131248895D02*
X124740560Y-131248895D01*
X124740560Y-131248895D02*
X124835798Y-131201276D01*
X124835798Y-131201276D02*
X124883417Y-131153657D01*
X124883417Y-131153657D02*
X124931036Y-131058419D01*
X124931036Y-131058419D02*
X124931036Y-130677467D01*
X124407227Y-132153657D02*
X124407227Y-131677467D01*
X124407227Y-131677467D02*
X124883417Y-131629848D01*
X124883417Y-131629848D02*
X124835798Y-131677467D01*
X124835798Y-131677467D02*
X124788179Y-131772705D01*
X124788179Y-131772705D02*
X124788179Y-132010800D01*
X124788179Y-132010800D02*
X124835798Y-132106038D01*
X124835798Y-132106038D02*
X124883417Y-132153657D01*
X124883417Y-132153657D02*
X124978655Y-132201276D01*
X124978655Y-132201276D02*
X125216750Y-132201276D01*
X125216750Y-132201276D02*
X125311988Y-132153657D01*
X125311988Y-132153657D02*
X125359608Y-132106038D01*
X125359608Y-132106038D02*
X125407227Y-132010800D01*
X125407227Y-132010800D02*
X125407227Y-131772705D01*
X125407227Y-131772705D02*
X125359608Y-131677467D01*
X125359608Y-131677467D02*
X125311988Y-131629848D01*
X124502465Y-132582229D02*
X124454846Y-132629848D01*
X124454846Y-132629848D02*
X124407227Y-132725086D01*
X124407227Y-132725086D02*
X124407227Y-132963181D01*
X124407227Y-132963181D02*
X124454846Y-133058419D01*
X124454846Y-133058419D02*
X124502465Y-133106038D01*
X124502465Y-133106038D02*
X124597703Y-133153657D01*
X124597703Y-133153657D02*
X124692941Y-133153657D01*
X124692941Y-133153657D02*
X124835798Y-133106038D01*
X124835798Y-133106038D02*
X125407227Y-132534610D01*
X125407227Y-132534610D02*
X125407227Y-133153657D01*
X169145403Y-130104276D02*
X169859688Y-130104276D01*
X169859688Y-130104276D02*
X170002545Y-130056657D01*
X170002545Y-130056657D02*
X170097784Y-129961419D01*
X170097784Y-129961419D02*
X170145403Y-129818562D01*
X170145403Y-129818562D02*
X170145403Y-129723324D01*
X170145403Y-130580467D02*
X169145403Y-130580467D01*
X169145403Y-130580467D02*
X169145403Y-130961419D01*
X169145403Y-130961419D02*
X169193022Y-131056657D01*
X169193022Y-131056657D02*
X169240641Y-131104276D01*
X169240641Y-131104276D02*
X169335879Y-131151895D01*
X169335879Y-131151895D02*
X169478736Y-131151895D01*
X169478736Y-131151895D02*
X169573974Y-131104276D01*
X169573974Y-131104276D02*
X169621593Y-131056657D01*
X169621593Y-131056657D02*
X169669212Y-130961419D01*
X169669212Y-130961419D02*
X169669212Y-130580467D01*
X170145403Y-132104276D02*
X170145403Y-131532848D01*
X170145403Y-131818562D02*
X169145403Y-131818562D01*
X169145403Y-131818562D02*
X169288260Y-131723324D01*
X169288260Y-131723324D02*
X169383498Y-131628086D01*
X169383498Y-131628086D02*
X169431117Y-131532848D01*
X169478736Y-132961419D02*
X170145403Y-132961419D01*
X169097784Y-132723324D02*
X169812069Y-132485229D01*
X169812069Y-132485229D02*
X169812069Y-133104276D01*
X160756995Y-130155076D02*
X161471280Y-130155076D01*
X161471280Y-130155076D02*
X161614137Y-130107457D01*
X161614137Y-130107457D02*
X161709376Y-130012219D01*
X161709376Y-130012219D02*
X161756995Y-129869362D01*
X161756995Y-129869362D02*
X161756995Y-129774124D01*
X161756995Y-130631267D02*
X160756995Y-130631267D01*
X160756995Y-130631267D02*
X160756995Y-131012219D01*
X160756995Y-131012219D02*
X160804614Y-131107457D01*
X160804614Y-131107457D02*
X160852233Y-131155076D01*
X160852233Y-131155076D02*
X160947471Y-131202695D01*
X160947471Y-131202695D02*
X161090328Y-131202695D01*
X161090328Y-131202695D02*
X161185566Y-131155076D01*
X161185566Y-131155076D02*
X161233185Y-131107457D01*
X161233185Y-131107457D02*
X161280804Y-131012219D01*
X161280804Y-131012219D02*
X161280804Y-130631267D01*
X160756995Y-131536029D02*
X160756995Y-132202695D01*
X160756995Y-132202695D02*
X161756995Y-131774124D01*
X160756995Y-132488410D02*
X160756995Y-133155076D01*
X160756995Y-133155076D02*
X161756995Y-132726505D01*
X171941539Y-130129676D02*
X172655824Y-130129676D01*
X172655824Y-130129676D02*
X172798681Y-130082057D01*
X172798681Y-130082057D02*
X172893920Y-129986819D01*
X172893920Y-129986819D02*
X172941539Y-129843962D01*
X172941539Y-129843962D02*
X172941539Y-129748724D01*
X172941539Y-130605867D02*
X171941539Y-130605867D01*
X171941539Y-130605867D02*
X171941539Y-130986819D01*
X171941539Y-130986819D02*
X171989158Y-131082057D01*
X171989158Y-131082057D02*
X172036777Y-131129676D01*
X172036777Y-131129676D02*
X172132015Y-131177295D01*
X172132015Y-131177295D02*
X172274872Y-131177295D01*
X172274872Y-131177295D02*
X172370110Y-131129676D01*
X172370110Y-131129676D02*
X172417729Y-131082057D01*
X172417729Y-131082057D02*
X172465348Y-130986819D01*
X172465348Y-130986819D02*
X172465348Y-130605867D01*
X171941539Y-131510629D02*
X171941539Y-132177295D01*
X171941539Y-132177295D02*
X172941539Y-131748724D01*
X172274872Y-132986819D02*
X172941539Y-132986819D01*
X171893920Y-132748724D02*
X172608205Y-132510629D01*
X172608205Y-132510629D02*
X172608205Y-133129676D01*
X149572451Y-130155076D02*
X150286736Y-130155076D01*
X150286736Y-130155076D02*
X150429593Y-130107457D01*
X150429593Y-130107457D02*
X150524832Y-130012219D01*
X150524832Y-130012219D02*
X150572451Y-129869362D01*
X150572451Y-129869362D02*
X150572451Y-129774124D01*
X150572451Y-130631267D02*
X149572451Y-130631267D01*
X149572451Y-130631267D02*
X149572451Y-131012219D01*
X149572451Y-131012219D02*
X149620070Y-131107457D01*
X149620070Y-131107457D02*
X149667689Y-131155076D01*
X149667689Y-131155076D02*
X149762927Y-131202695D01*
X149762927Y-131202695D02*
X149905784Y-131202695D01*
X149905784Y-131202695D02*
X150001022Y-131155076D01*
X150001022Y-131155076D02*
X150048641Y-131107457D01*
X150048641Y-131107457D02*
X150096260Y-131012219D01*
X150096260Y-131012219D02*
X150096260Y-130631267D01*
X150001022Y-131774124D02*
X149953403Y-131678886D01*
X149953403Y-131678886D02*
X149905784Y-131631267D01*
X149905784Y-131631267D02*
X149810546Y-131583648D01*
X149810546Y-131583648D02*
X149762927Y-131583648D01*
X149762927Y-131583648D02*
X149667689Y-131631267D01*
X149667689Y-131631267D02*
X149620070Y-131678886D01*
X149620070Y-131678886D02*
X149572451Y-131774124D01*
X149572451Y-131774124D02*
X149572451Y-131964600D01*
X149572451Y-131964600D02*
X149620070Y-132059838D01*
X149620070Y-132059838D02*
X149667689Y-132107457D01*
X149667689Y-132107457D02*
X149762927Y-132155076D01*
X149762927Y-132155076D02*
X149810546Y-132155076D01*
X149810546Y-132155076D02*
X149905784Y-132107457D01*
X149905784Y-132107457D02*
X149953403Y-132059838D01*
X149953403Y-132059838D02*
X150001022Y-131964600D01*
X150001022Y-131964600D02*
X150001022Y-131774124D01*
X150001022Y-131774124D02*
X150048641Y-131678886D01*
X150048641Y-131678886D02*
X150096260Y-131631267D01*
X150096260Y-131631267D02*
X150191498Y-131583648D01*
X150191498Y-131583648D02*
X150381974Y-131583648D01*
X150381974Y-131583648D02*
X150477212Y-131631267D01*
X150477212Y-131631267D02*
X150524832Y-131678886D01*
X150524832Y-131678886D02*
X150572451Y-131774124D01*
X150572451Y-131774124D02*
X150572451Y-131964600D01*
X150572451Y-131964600D02*
X150524832Y-132059838D01*
X150524832Y-132059838D02*
X150477212Y-132107457D01*
X150477212Y-132107457D02*
X150381974Y-132155076D01*
X150381974Y-132155076D02*
X150191498Y-132155076D01*
X150191498Y-132155076D02*
X150096260Y-132107457D01*
X150096260Y-132107457D02*
X150048641Y-132059838D01*
X150048641Y-132059838D02*
X150001022Y-131964600D01*
X150572451Y-133107457D02*
X150572451Y-132536029D01*
X150572451Y-132821743D02*
X149572451Y-132821743D01*
X149572451Y-132821743D02*
X149715308Y-132726505D01*
X149715308Y-132726505D02*
X149810546Y-132631267D01*
X149810546Y-132631267D02*
X149858165Y-132536029D01*
X163553131Y-130144676D02*
X164267416Y-130144676D01*
X164267416Y-130144676D02*
X164410273Y-130097057D01*
X164410273Y-130097057D02*
X164505512Y-130001819D01*
X164505512Y-130001819D02*
X164553131Y-129858962D01*
X164553131Y-129858962D02*
X164553131Y-129763724D01*
X164553131Y-130620867D02*
X163553131Y-130620867D01*
X163553131Y-130620867D02*
X163553131Y-131001819D01*
X163553131Y-131001819D02*
X163600750Y-131097057D01*
X163600750Y-131097057D02*
X163648369Y-131144676D01*
X163648369Y-131144676D02*
X163743607Y-131192295D01*
X163743607Y-131192295D02*
X163886464Y-131192295D01*
X163886464Y-131192295D02*
X163981702Y-131144676D01*
X163981702Y-131144676D02*
X164029321Y-131097057D01*
X164029321Y-131097057D02*
X164076940Y-131001819D01*
X164076940Y-131001819D02*
X164076940Y-130620867D01*
X163553131Y-131525629D02*
X163553131Y-132192295D01*
X163553131Y-132192295D02*
X164553131Y-131763724D01*
X163553131Y-133001819D02*
X163553131Y-132811343D01*
X163553131Y-132811343D02*
X163600750Y-132716105D01*
X163600750Y-132716105D02*
X163648369Y-132668486D01*
X163648369Y-132668486D02*
X163791226Y-132573248D01*
X163791226Y-132573248D02*
X163981702Y-132525629D01*
X163981702Y-132525629D02*
X164362654Y-132525629D01*
X164362654Y-132525629D02*
X164457892Y-132573248D01*
X164457892Y-132573248D02*
X164505512Y-132620867D01*
X164505512Y-132620867D02*
X164553131Y-132716105D01*
X164553131Y-132716105D02*
X164553131Y-132906581D01*
X164553131Y-132906581D02*
X164505512Y-133001819D01*
X164505512Y-133001819D02*
X164457892Y-133049438D01*
X164457892Y-133049438D02*
X164362654Y-133097057D01*
X164362654Y-133097057D02*
X164124559Y-133097057D01*
X164124559Y-133097057D02*
X164029321Y-133049438D01*
X164029321Y-133049438D02*
X163981702Y-133001819D01*
X163981702Y-133001819D02*
X163934083Y-132906581D01*
X163934083Y-132906581D02*
X163934083Y-132716105D01*
X163934083Y-132716105D02*
X163981702Y-132620867D01*
X163981702Y-132620867D02*
X164029321Y-132573248D01*
X164029321Y-132573248D02*
X164124559Y-132525629D01*
X119638219Y-45771676D02*
X120352504Y-45771676D01*
X120352504Y-45771676D02*
X120495361Y-45724057D01*
X120495361Y-45724057D02*
X120590600Y-45628819D01*
X120590600Y-45628819D02*
X120638219Y-45485962D01*
X120638219Y-45485962D02*
X120638219Y-45390724D01*
X120638219Y-46247867D02*
X119638219Y-46247867D01*
X119638219Y-46247867D02*
X119638219Y-46628819D01*
X119638219Y-46628819D02*
X119685838Y-46724057D01*
X119685838Y-46724057D02*
X119733457Y-46771676D01*
X119733457Y-46771676D02*
X119828695Y-46819295D01*
X119828695Y-46819295D02*
X119971552Y-46819295D01*
X119971552Y-46819295D02*
X120066790Y-46771676D01*
X120066790Y-46771676D02*
X120114409Y-46724057D01*
X120114409Y-46724057D02*
X120162028Y-46628819D01*
X120162028Y-46628819D02*
X120162028Y-46247867D01*
X119638219Y-47676438D02*
X119638219Y-47485962D01*
X119638219Y-47485962D02*
X119685838Y-47390724D01*
X119685838Y-47390724D02*
X119733457Y-47343105D01*
X119733457Y-47343105D02*
X119876314Y-47247867D01*
X119876314Y-47247867D02*
X120066790Y-47200248D01*
X120066790Y-47200248D02*
X120447742Y-47200248D01*
X120447742Y-47200248D02*
X120542980Y-47247867D01*
X120542980Y-47247867D02*
X120590600Y-47295486D01*
X120590600Y-47295486D02*
X120638219Y-47390724D01*
X120638219Y-47390724D02*
X120638219Y-47581200D01*
X120638219Y-47581200D02*
X120590600Y-47676438D01*
X120590600Y-47676438D02*
X120542980Y-47724057D01*
X120542980Y-47724057D02*
X120447742Y-47771676D01*
X120447742Y-47771676D02*
X120209647Y-47771676D01*
X120209647Y-47771676D02*
X120114409Y-47724057D01*
X120114409Y-47724057D02*
X120066790Y-47676438D01*
X120066790Y-47676438D02*
X120019171Y-47581200D01*
X120019171Y-47581200D02*
X120019171Y-47390724D01*
X120019171Y-47390724D02*
X120066790Y-47295486D01*
X120066790Y-47295486D02*
X120114409Y-47247867D01*
X120114409Y-47247867D02*
X120209647Y-47200248D01*
X120638219Y-48247867D02*
X120638219Y-48438343D01*
X120638219Y-48438343D02*
X120590600Y-48533581D01*
X120590600Y-48533581D02*
X120542980Y-48581200D01*
X120542980Y-48581200D02*
X120400123Y-48676438D01*
X120400123Y-48676438D02*
X120209647Y-48724057D01*
X120209647Y-48724057D02*
X119828695Y-48724057D01*
X119828695Y-48724057D02*
X119733457Y-48676438D01*
X119733457Y-48676438D02*
X119685838Y-48628819D01*
X119685838Y-48628819D02*
X119638219Y-48533581D01*
X119638219Y-48533581D02*
X119638219Y-48343105D01*
X119638219Y-48343105D02*
X119685838Y-48247867D01*
X119685838Y-48247867D02*
X119733457Y-48200248D01*
X119733457Y-48200248D02*
X119828695Y-48152629D01*
X119828695Y-48152629D02*
X120066790Y-48152629D01*
X120066790Y-48152629D02*
X120162028Y-48200248D01*
X120162028Y-48200248D02*
X120209647Y-48247867D01*
X120209647Y-48247867D02*
X120257266Y-48343105D01*
X120257266Y-48343105D02*
X120257266Y-48533581D01*
X120257266Y-48533581D02*
X120209647Y-48628819D01*
X120209647Y-48628819D02*
X120162028Y-48676438D01*
X120162028Y-48676438D02*
X120066790Y-48724057D01*
X135591771Y-130201276D02*
X136306056Y-130201276D01*
X136306056Y-130201276D02*
X136448913Y-130153657D01*
X136448913Y-130153657D02*
X136544152Y-130058419D01*
X136544152Y-130058419D02*
X136591771Y-129915562D01*
X136591771Y-129915562D02*
X136591771Y-129820324D01*
X136591771Y-130677467D02*
X135591771Y-130677467D01*
X135591771Y-130677467D02*
X135591771Y-131058419D01*
X135591771Y-131058419D02*
X135639390Y-131153657D01*
X135639390Y-131153657D02*
X135687009Y-131201276D01*
X135687009Y-131201276D02*
X135782247Y-131248895D01*
X135782247Y-131248895D02*
X135925104Y-131248895D01*
X135925104Y-131248895D02*
X136020342Y-131201276D01*
X136020342Y-131201276D02*
X136067961Y-131153657D01*
X136067961Y-131153657D02*
X136115580Y-131058419D01*
X136115580Y-131058419D02*
X136115580Y-130677467D01*
X135925104Y-132106038D02*
X136591771Y-132106038D01*
X135544152Y-131867943D02*
X136258437Y-131629848D01*
X136258437Y-131629848D02*
X136258437Y-132248895D01*
X136020342Y-132772705D02*
X135972723Y-132677467D01*
X135972723Y-132677467D02*
X135925104Y-132629848D01*
X135925104Y-132629848D02*
X135829866Y-132582229D01*
X135829866Y-132582229D02*
X135782247Y-132582229D01*
X135782247Y-132582229D02*
X135687009Y-132629848D01*
X135687009Y-132629848D02*
X135639390Y-132677467D01*
X135639390Y-132677467D02*
X135591771Y-132772705D01*
X135591771Y-132772705D02*
X135591771Y-132963181D01*
X135591771Y-132963181D02*
X135639390Y-133058419D01*
X135639390Y-133058419D02*
X135687009Y-133106038D01*
X135687009Y-133106038D02*
X135782247Y-133153657D01*
X135782247Y-133153657D02*
X135829866Y-133153657D01*
X135829866Y-133153657D02*
X135925104Y-133106038D01*
X135925104Y-133106038D02*
X135972723Y-133058419D01*
X135972723Y-133058419D02*
X136020342Y-132963181D01*
X136020342Y-132963181D02*
X136020342Y-132772705D01*
X136020342Y-132772705D02*
X136067961Y-132677467D01*
X136067961Y-132677467D02*
X136115580Y-132629848D01*
X136115580Y-132629848D02*
X136210818Y-132582229D01*
X136210818Y-132582229D02*
X136401294Y-132582229D01*
X136401294Y-132582229D02*
X136496532Y-132629848D01*
X136496532Y-132629848D02*
X136544152Y-132677467D01*
X136544152Y-132677467D02*
X136591771Y-132772705D01*
X136591771Y-132772705D02*
X136591771Y-132963181D01*
X136591771Y-132963181D02*
X136544152Y-133058419D01*
X136544152Y-133058419D02*
X136496532Y-133106038D01*
X136496532Y-133106038D02*
X136401294Y-133153657D01*
X136401294Y-133153657D02*
X136210818Y-133153657D01*
X136210818Y-133153657D02*
X136115580Y-133106038D01*
X136115580Y-133106038D02*
X136067961Y-133058419D01*
X136067961Y-133058419D02*
X136020342Y-132963181D01*
X155164723Y-130155076D02*
X155879008Y-130155076D01*
X155879008Y-130155076D02*
X156021865Y-130107457D01*
X156021865Y-130107457D02*
X156117104Y-130012219D01*
X156117104Y-130012219D02*
X156164723Y-129869362D01*
X156164723Y-129869362D02*
X156164723Y-129774124D01*
X156164723Y-130631267D02*
X155164723Y-130631267D01*
X155164723Y-130631267D02*
X155164723Y-131012219D01*
X155164723Y-131012219D02*
X155212342Y-131107457D01*
X155212342Y-131107457D02*
X155259961Y-131155076D01*
X155259961Y-131155076D02*
X155355199Y-131202695D01*
X155355199Y-131202695D02*
X155498056Y-131202695D01*
X155498056Y-131202695D02*
X155593294Y-131155076D01*
X155593294Y-131155076D02*
X155640913Y-131107457D01*
X155640913Y-131107457D02*
X155688532Y-131012219D01*
X155688532Y-131012219D02*
X155688532Y-130631267D01*
X155164723Y-131536029D02*
X155164723Y-132202695D01*
X155164723Y-132202695D02*
X156164723Y-131774124D01*
X156164723Y-132631267D02*
X156164723Y-132821743D01*
X156164723Y-132821743D02*
X156117104Y-132916981D01*
X156117104Y-132916981D02*
X156069484Y-132964600D01*
X156069484Y-132964600D02*
X155926627Y-133059838D01*
X155926627Y-133059838D02*
X155736151Y-133107457D01*
X155736151Y-133107457D02*
X155355199Y-133107457D01*
X155355199Y-133107457D02*
X155259961Y-133059838D01*
X155259961Y-133059838D02*
X155212342Y-133012219D01*
X155212342Y-133012219D02*
X155164723Y-132916981D01*
X155164723Y-132916981D02*
X155164723Y-132726505D01*
X155164723Y-132726505D02*
X155212342Y-132631267D01*
X155212342Y-132631267D02*
X155259961Y-132583648D01*
X155259961Y-132583648D02*
X155355199Y-132536029D01*
X155355199Y-132536029D02*
X155593294Y-132536029D01*
X155593294Y-132536029D02*
X155688532Y-132583648D01*
X155688532Y-132583648D02*
X155736151Y-132631267D01*
X155736151Y-132631267D02*
X155783770Y-132726505D01*
X155783770Y-132726505D02*
X155783770Y-132916981D01*
X155783770Y-132916981D02*
X155736151Y-133012219D01*
X155736151Y-133012219D02*
X155688532Y-133059838D01*
X155688532Y-133059838D02*
X155593294Y-133107457D01*
X138387907Y-130201276D02*
X139102192Y-130201276D01*
X139102192Y-130201276D02*
X139245049Y-130153657D01*
X139245049Y-130153657D02*
X139340288Y-130058419D01*
X139340288Y-130058419D02*
X139387907Y-129915562D01*
X139387907Y-129915562D02*
X139387907Y-129820324D01*
X139387907Y-130677467D02*
X138387907Y-130677467D01*
X138387907Y-130677467D02*
X138387907Y-131058419D01*
X138387907Y-131058419D02*
X138435526Y-131153657D01*
X138435526Y-131153657D02*
X138483145Y-131201276D01*
X138483145Y-131201276D02*
X138578383Y-131248895D01*
X138578383Y-131248895D02*
X138721240Y-131248895D01*
X138721240Y-131248895D02*
X138816478Y-131201276D01*
X138816478Y-131201276D02*
X138864097Y-131153657D01*
X138864097Y-131153657D02*
X138911716Y-131058419D01*
X138911716Y-131058419D02*
X138911716Y-130677467D01*
X138721240Y-132106038D02*
X139387907Y-132106038D01*
X138340288Y-131867943D02*
X139054573Y-131629848D01*
X139054573Y-131629848D02*
X139054573Y-132248895D01*
X138387907Y-132534610D02*
X138387907Y-133201276D01*
X138387907Y-133201276D02*
X139387907Y-132772705D01*
X137037219Y-45543076D02*
X137751504Y-45543076D01*
X137751504Y-45543076D02*
X137894361Y-45495457D01*
X137894361Y-45495457D02*
X137989600Y-45400219D01*
X137989600Y-45400219D02*
X138037219Y-45257362D01*
X138037219Y-45257362D02*
X138037219Y-45162124D01*
X138037219Y-46019267D02*
X137037219Y-46019267D01*
X137037219Y-46019267D02*
X137037219Y-46400219D01*
X137037219Y-46400219D02*
X137084838Y-46495457D01*
X137084838Y-46495457D02*
X137132457Y-46543076D01*
X137132457Y-46543076D02*
X137227695Y-46590695D01*
X137227695Y-46590695D02*
X137370552Y-46590695D01*
X137370552Y-46590695D02*
X137465790Y-46543076D01*
X137465790Y-46543076D02*
X137513409Y-46495457D01*
X137513409Y-46495457D02*
X137561028Y-46400219D01*
X137561028Y-46400219D02*
X137561028Y-46019267D01*
X137037219Y-47447838D02*
X137037219Y-47257362D01*
X137037219Y-47257362D02*
X137084838Y-47162124D01*
X137084838Y-47162124D02*
X137132457Y-47114505D01*
X137132457Y-47114505D02*
X137275314Y-47019267D01*
X137275314Y-47019267D02*
X137465790Y-46971648D01*
X137465790Y-46971648D02*
X137846742Y-46971648D01*
X137846742Y-46971648D02*
X137941980Y-47019267D01*
X137941980Y-47019267D02*
X137989600Y-47066886D01*
X137989600Y-47066886D02*
X138037219Y-47162124D01*
X138037219Y-47162124D02*
X138037219Y-47352600D01*
X138037219Y-47352600D02*
X137989600Y-47447838D01*
X137989600Y-47447838D02*
X137941980Y-47495457D01*
X137941980Y-47495457D02*
X137846742Y-47543076D01*
X137846742Y-47543076D02*
X137608647Y-47543076D01*
X137608647Y-47543076D02*
X137513409Y-47495457D01*
X137513409Y-47495457D02*
X137465790Y-47447838D01*
X137465790Y-47447838D02*
X137418171Y-47352600D01*
X137418171Y-47352600D02*
X137418171Y-47162124D01*
X137418171Y-47162124D02*
X137465790Y-47066886D01*
X137465790Y-47066886D02*
X137513409Y-47019267D01*
X137513409Y-47019267D02*
X137608647Y-46971648D01*
X137370552Y-48400219D02*
X138037219Y-48400219D01*
X136989600Y-48162124D02*
X137703885Y-47924029D01*
X137703885Y-47924029D02*
X137703885Y-48543076D01*
D12*
%TO.C,JP51*%
X128548544Y-132210800D02*
X128548544Y-130810800D01*
X129248544Y-130110800D02*
X129848544Y-130110800D01*
X129848544Y-132910800D02*
X129248544Y-132910800D01*
X130548544Y-130810800D02*
X130548544Y-132210800D01*
X128548544Y-130810800D02*
G75*
G02*
X129248544Y-130110800I699999J1D01*
G01*
X129248544Y-132910800D02*
G75*
G02*
X128548544Y-132210800I0J700000D01*
G01*
X129848544Y-130110800D02*
G75*
G02*
X130548544Y-130810800I1J-699999D01*
G01*
X130548544Y-132210800D02*
G75*
G02*
X129848544Y-132910800I-700000J0D01*
G01*
%TO.C,J14*%
X122396000Y-136992600D02*
X122396000Y-142192600D01*
X122396000Y-136992600D02*
X122966000Y-136992600D01*
X122396000Y-142192600D02*
X122966000Y-142192600D01*
X124486000Y-136992600D02*
X125506000Y-136992600D01*
X124486000Y-142192600D02*
X125506000Y-142192600D01*
X127026000Y-136992600D02*
X128046000Y-136992600D01*
X127026000Y-142192600D02*
X128046000Y-142192600D01*
X129566000Y-136992600D02*
X130586000Y-136992600D01*
X129566000Y-142192600D02*
X130586000Y-142192600D01*
X132106000Y-136992600D02*
X133126000Y-136992600D01*
X132106000Y-142192600D02*
X133126000Y-142192600D01*
X134646000Y-136992600D02*
X135666000Y-136992600D01*
X134646000Y-142192600D02*
X135666000Y-142192600D01*
X137186000Y-136992600D02*
X138206000Y-136992600D01*
X137186000Y-142192600D02*
X138206000Y-142192600D01*
X139726000Y-136992600D02*
X140746000Y-136992600D01*
X139726000Y-142192600D02*
X140746000Y-142192600D01*
X142266000Y-136992600D02*
X143286000Y-136992600D01*
X142266000Y-142192600D02*
X143286000Y-142192600D01*
X144806000Y-136992600D02*
X145826000Y-136992600D01*
X144806000Y-142192600D02*
X145826000Y-142192600D01*
X147346000Y-136992600D02*
X148366000Y-136992600D01*
X147346000Y-142192600D02*
X148366000Y-142192600D01*
X149886000Y-136992600D02*
X150906000Y-136992600D01*
X149886000Y-142192600D02*
X150906000Y-142192600D01*
X152426000Y-136992600D02*
X153446000Y-136992600D01*
X152426000Y-142192600D02*
X153446000Y-142192600D01*
X154966000Y-136992600D02*
X155986000Y-136992600D01*
X154966000Y-142192600D02*
X155986000Y-142192600D01*
X157506000Y-136992600D02*
X158526000Y-136992600D01*
X157506000Y-142192600D02*
X158526000Y-142192600D01*
X160046000Y-136992600D02*
X161066000Y-136992600D01*
X160046000Y-142192600D02*
X161066000Y-142192600D01*
X162586000Y-136992600D02*
X163606000Y-136992600D01*
X162586000Y-142192600D02*
X163606000Y-142192600D01*
X165126000Y-136992600D02*
X166146000Y-136992600D01*
X165126000Y-142192600D02*
X166146000Y-142192600D01*
X167666000Y-136992600D02*
X168686000Y-136992600D01*
X167666000Y-142192600D02*
X168686000Y-142192600D01*
X170206000Y-136992600D02*
X171226000Y-136992600D01*
X170206000Y-142192600D02*
X171226000Y-142192600D01*
X172746000Y-136992600D02*
X173316000Y-136992600D01*
X172746000Y-142192600D02*
X172746000Y-143632600D01*
X172746000Y-142192600D02*
X173316000Y-142192600D01*
X173316000Y-136992600D02*
X173316000Y-142192600D01*
%TO.C,JP75*%
X167694448Y-132154200D02*
X167694448Y-130754200D01*
X168394448Y-130054200D02*
X168994448Y-130054200D01*
X168994448Y-132854200D02*
X168394448Y-132854200D01*
X169694448Y-130754200D02*
X169694448Y-132154200D01*
X167694448Y-130754200D02*
G75*
G02*
X168394448Y-130054200I699999J1D01*
G01*
X168394448Y-132854200D02*
G75*
G02*
X167694448Y-132154200I0J700000D01*
G01*
X168994448Y-130054200D02*
G75*
G02*
X169694448Y-130754200I1J-699999D01*
G01*
X169694448Y-132154200D02*
G75*
G02*
X168994448Y-132854200I-700000J0D01*
G01*
%TO.C,JP60*%
X148982400Y-47552600D02*
X148982400Y-46152600D01*
X149682400Y-45452600D02*
X150282400Y-45452600D01*
X150282400Y-48252600D02*
X149682400Y-48252600D01*
X150982400Y-46152600D02*
X150982400Y-47552600D01*
X148982400Y-46152600D02*
G75*
G02*
X149682400Y-45452600I700000J0D01*
G01*
X149682400Y-48252600D02*
G75*
G02*
X148982400Y-47552600I-1J699999D01*
G01*
X150282400Y-45452600D02*
G75*
G02*
X150982400Y-46152600I0J-700000D01*
G01*
X150982400Y-47552600D02*
G75*
G02*
X150282400Y-48252600I-699999J-1D01*
G01*
%TO.C,JP58*%
X156082400Y-47552600D02*
X156082400Y-46152600D01*
X156782400Y-45452600D02*
X157382400Y-45452600D01*
X157382400Y-48252600D02*
X156782400Y-48252600D01*
X158082400Y-46152600D02*
X158082400Y-47552600D01*
X156082400Y-46152600D02*
G75*
G02*
X156782400Y-45452600I700000J0D01*
G01*
X156782400Y-48252600D02*
G75*
G02*
X156082400Y-47552600I-1J699999D01*
G01*
X157382400Y-45452600D02*
G75*
G02*
X158082400Y-46152600I0J-700000D01*
G01*
X158082400Y-47552600D02*
G75*
G02*
X157382400Y-48252600I-699999J-1D01*
G01*
%TO.C,JP66*%
X128033400Y-47781200D02*
X128033400Y-46381200D01*
X128733400Y-45681200D02*
X129333400Y-45681200D01*
X129333400Y-48481200D02*
X128733400Y-48481200D01*
X130033400Y-46381200D02*
X130033400Y-47781200D01*
X128033400Y-46381200D02*
G75*
G02*
X128733400Y-45681200I700000J0D01*
G01*
X128733400Y-48481200D02*
G75*
G02*
X128033400Y-47781200I-1J699999D01*
G01*
X129333400Y-45681200D02*
G75*
G02*
X130033400Y-46381200I0J-700000D01*
G01*
X130033400Y-47781200D02*
G75*
G02*
X129333400Y-48481200I-699999J-1D01*
G01*
%TO.C,JP68*%
X120933400Y-47781200D02*
X120933400Y-46381200D01*
X121633400Y-45681200D02*
X122233400Y-45681200D01*
X122233400Y-48481200D02*
X121633400Y-48481200D01*
X122933400Y-46381200D02*
X122933400Y-47781200D01*
X120933400Y-46381200D02*
G75*
G02*
X121633400Y-45681200I700000J0D01*
G01*
X121633400Y-48481200D02*
G75*
G02*
X120933400Y-47781200I-1J699999D01*
G01*
X122233400Y-45681200D02*
G75*
G02*
X122933400Y-46381200I0J-700000D01*
G01*
X122933400Y-47781200D02*
G75*
G02*
X122233400Y-48481200I-699999J-1D01*
G01*
%TO.C,JP67*%
X124483400Y-47781200D02*
X124483400Y-46381200D01*
X125183400Y-45681200D02*
X125783400Y-45681200D01*
X125783400Y-48481200D02*
X125183400Y-48481200D01*
X126483400Y-46381200D02*
X126483400Y-47781200D01*
X124483400Y-46381200D02*
G75*
G02*
X125183400Y-45681200I700000J0D01*
G01*
X125183400Y-48481200D02*
G75*
G02*
X124483400Y-47781200I-1J699999D01*
G01*
X125783400Y-45681200D02*
G75*
G02*
X126483400Y-46381200I0J-700000D01*
G01*
X126483400Y-47781200D02*
G75*
G02*
X125783400Y-48481200I-699999J-1D01*
G01*
%TO.C,JP80*%
X153713768Y-132164600D02*
X153713768Y-130764600D01*
X154413768Y-130064600D02*
X155013768Y-130064600D01*
X155013768Y-132864600D02*
X154413768Y-132864600D01*
X155713768Y-130764600D02*
X155713768Y-132164600D01*
X153713768Y-130764600D02*
G75*
G02*
X154413768Y-130064600I699999J1D01*
G01*
X154413768Y-132864600D02*
G75*
G02*
X153713768Y-132164600I0J700000D01*
G01*
X155013768Y-130064600D02*
G75*
G02*
X155713768Y-130764600I1J-699999D01*
G01*
X155713768Y-132164600D02*
G75*
G02*
X155013768Y-132864600I-700000J0D01*
G01*
%TO.C,JP56*%
X163182400Y-47552600D02*
X163182400Y-46152600D01*
X163882400Y-45452600D02*
X164482400Y-45452600D01*
X164482400Y-48252600D02*
X163882400Y-48252600D01*
X165182400Y-46152600D02*
X165182400Y-47552600D01*
X163182400Y-46152600D02*
G75*
G02*
X163882400Y-45452600I700000J0D01*
G01*
X163882400Y-48252600D02*
G75*
G02*
X163182400Y-47552600I-1J699999D01*
G01*
X164482400Y-45452600D02*
G75*
G02*
X165182400Y-46152600I0J-700000D01*
G01*
X165182400Y-47552600D02*
G75*
G02*
X164482400Y-48252600I-699999J-1D01*
G01*
%TO.C,JP65*%
X131232400Y-47552600D02*
X131232400Y-46152600D01*
X131932400Y-45452600D02*
X132532400Y-45452600D01*
X132532400Y-48252600D02*
X131932400Y-48252600D01*
X133232400Y-46152600D02*
X133232400Y-47552600D01*
X131232400Y-46152600D02*
G75*
G02*
X131932400Y-45452600I700000J0D01*
G01*
X131932400Y-48252600D02*
G75*
G02*
X131232400Y-47552600I-1J699999D01*
G01*
X132532400Y-45452600D02*
G75*
G02*
X133232400Y-46152600I0J-700000D01*
G01*
X133232400Y-47552600D02*
G75*
G02*
X132532400Y-48252600I-699999J-1D01*
G01*
%TO.C,JP55*%
X117364000Y-132210800D02*
X117364000Y-130810800D01*
X118064000Y-130110800D02*
X118664000Y-130110800D01*
X118664000Y-132910800D02*
X118064000Y-132910800D01*
X119364000Y-130810800D02*
X119364000Y-132210800D01*
X117364000Y-130810800D02*
G75*
G02*
X118064000Y-130110800I699999J1D01*
G01*
X118064000Y-132910800D02*
G75*
G02*
X117364000Y-132210800I0J700000D01*
G01*
X118664000Y-130110800D02*
G75*
G02*
X119364000Y-130810800I1J-699999D01*
G01*
X119364000Y-132210800D02*
G75*
G02*
X118664000Y-132910800I-700000J0D01*
G01*
%TO.C,JP49*%
X134140816Y-132210800D02*
X134140816Y-130810800D01*
X134840816Y-130110800D02*
X135440816Y-130110800D01*
X135440816Y-132910800D02*
X134840816Y-132910800D01*
X136140816Y-130810800D02*
X136140816Y-132210800D01*
X134140816Y-130810800D02*
G75*
G02*
X134840816Y-130110800I699999J1D01*
G01*
X134840816Y-132910800D02*
G75*
G02*
X134140816Y-132210800I0J700000D01*
G01*
X135440816Y-130110800D02*
G75*
G02*
X136140816Y-130810800I1J-699999D01*
G01*
X136140816Y-132210800D02*
G75*
G02*
X135440816Y-132910800I-700000J0D01*
G01*
%TO.C,J15*%
X122396000Y-36492600D02*
X122396000Y-41692600D01*
X122396000Y-36492600D02*
X122966000Y-36492600D01*
X122396000Y-41692600D02*
X122966000Y-41692600D01*
X124486000Y-36492600D02*
X125506000Y-36492600D01*
X124486000Y-41692600D02*
X125506000Y-41692600D01*
X127026000Y-36492600D02*
X128046000Y-36492600D01*
X127026000Y-41692600D02*
X128046000Y-41692600D01*
X129566000Y-36492600D02*
X130586000Y-36492600D01*
X129566000Y-41692600D02*
X130586000Y-41692600D01*
X132106000Y-36492600D02*
X133126000Y-36492600D01*
X132106000Y-41692600D02*
X133126000Y-41692600D01*
X134646000Y-36492600D02*
X135666000Y-36492600D01*
X134646000Y-41692600D02*
X135666000Y-41692600D01*
X137186000Y-36492600D02*
X138206000Y-36492600D01*
X137186000Y-41692600D02*
X138206000Y-41692600D01*
X139726000Y-36492600D02*
X140746000Y-36492600D01*
X139726000Y-41692600D02*
X140746000Y-41692600D01*
X142266000Y-36492600D02*
X143286000Y-36492600D01*
X142266000Y-41692600D02*
X143286000Y-41692600D01*
X144806000Y-36492600D02*
X145826000Y-36492600D01*
X144806000Y-41692600D02*
X145826000Y-41692600D01*
X147346000Y-36492600D02*
X148366000Y-36492600D01*
X147346000Y-41692600D02*
X148366000Y-41692600D01*
X149886000Y-36492600D02*
X150906000Y-36492600D01*
X149886000Y-41692600D02*
X150906000Y-41692600D01*
X152426000Y-36492600D02*
X153446000Y-36492600D01*
X152426000Y-41692600D02*
X153446000Y-41692600D01*
X154966000Y-36492600D02*
X155986000Y-36492600D01*
X154966000Y-41692600D02*
X155986000Y-41692600D01*
X157506000Y-36492600D02*
X158526000Y-36492600D01*
X157506000Y-41692600D02*
X158526000Y-41692600D01*
X160046000Y-36492600D02*
X161066000Y-36492600D01*
X160046000Y-41692600D02*
X161066000Y-41692600D01*
X162586000Y-36492600D02*
X163606000Y-36492600D01*
X162586000Y-41692600D02*
X163606000Y-41692600D01*
X165126000Y-36492600D02*
X166146000Y-36492600D01*
X165126000Y-41692600D02*
X166146000Y-41692600D01*
X167666000Y-36492600D02*
X168686000Y-36492600D01*
X167666000Y-41692600D02*
X168686000Y-41692600D01*
X170206000Y-36492600D02*
X171226000Y-36492600D01*
X170206000Y-41692600D02*
X171226000Y-41692600D01*
X172746000Y-36492600D02*
X173316000Y-36492600D01*
X172746000Y-41692600D02*
X172746000Y-43132600D01*
X172746000Y-41692600D02*
X173316000Y-41692600D01*
X173316000Y-36492600D02*
X173316000Y-41692600D01*
%TO.C,JP16*%
X180703000Y-142311400D02*
X180703000Y-141711400D01*
X181403000Y-141011400D02*
X182803000Y-141011400D01*
X182803000Y-143011400D02*
X181403000Y-143011400D01*
X183503000Y-141711400D02*
X183503000Y-142311400D01*
X180703000Y-141711400D02*
G75*
G02*
X181403000Y-141011400I700000J0D01*
G01*
X181403000Y-143011400D02*
G75*
G02*
X180703000Y-142311400I0J700000D01*
G01*
X182803000Y-141011400D02*
G75*
G02*
X183503000Y-141711400I1J-699999D01*
G01*
X183503000Y-142311400D02*
G75*
G02*
X182803000Y-143011400I-699999J-1D01*
G01*
%TO.C,JP78*%
X159306040Y-132164600D02*
X159306040Y-130764600D01*
X160006040Y-130064600D02*
X160606040Y-130064600D01*
X160606040Y-132864600D02*
X160006040Y-132864600D01*
X161306040Y-130764600D02*
X161306040Y-132164600D01*
X159306040Y-130764600D02*
G75*
G02*
X160006040Y-130064600I699999J1D01*
G01*
X160006040Y-132864600D02*
G75*
G02*
X159306040Y-132164600I0J700000D01*
G01*
X160606040Y-130064600D02*
G75*
G02*
X161306040Y-130764600I1J-699999D01*
G01*
X161306040Y-132164600D02*
G75*
G02*
X160606040Y-132864600I-700000J0D01*
G01*
%TO.C,JP15*%
X145608800Y-149305000D02*
X145608800Y-147905000D01*
X146308800Y-147205000D02*
X146908800Y-147205000D01*
X146908800Y-150005000D02*
X146308800Y-150005000D01*
X147608800Y-147905000D02*
X147608800Y-149305000D01*
X145608800Y-147905000D02*
G75*
G02*
X146308800Y-147205000I700000J0D01*
G01*
X146308800Y-150005000D02*
G75*
G02*
X145608800Y-149305000I-1J699999D01*
G01*
X146908800Y-147205000D02*
G75*
G02*
X147608800Y-147905000I0J-700000D01*
G01*
X147608800Y-149305000D02*
G75*
G02*
X146908800Y-150005000I-699999J-1D01*
G01*
%TO.C,JP57*%
X159632400Y-47552600D02*
X159632400Y-46152600D01*
X160332400Y-45452600D02*
X160932400Y-45452600D01*
X160932400Y-48252600D02*
X160332400Y-48252600D01*
X161632400Y-46152600D02*
X161632400Y-47552600D01*
X159632400Y-46152600D02*
G75*
G02*
X160332400Y-45452600I700000J0D01*
G01*
X160332400Y-48252600D02*
G75*
G02*
X159632400Y-47552600I-1J699999D01*
G01*
X160932400Y-45452600D02*
G75*
G02*
X161632400Y-46152600I0J-700000D01*
G01*
X161632400Y-47552600D02*
G75*
G02*
X160932400Y-48252600I-699999J-1D01*
G01*
%TO.C,JP71*%
X181675128Y-132149600D02*
X181675128Y-130749600D01*
X182375128Y-130049600D02*
X182975128Y-130049600D01*
X182975128Y-132849600D02*
X182375128Y-132849600D01*
X183675128Y-130749600D02*
X183675128Y-132149600D01*
X181675128Y-130749600D02*
G75*
G02*
X182375128Y-130049600I699999J1D01*
G01*
X182375128Y-132849600D02*
G75*
G02*
X181675128Y-132149600I0J700000D01*
G01*
X182975128Y-130049600D02*
G75*
G02*
X183675128Y-130749600I1J-699999D01*
G01*
X183675128Y-132149600D02*
G75*
G02*
X182975128Y-132849600I-700000J0D01*
G01*
%TO.C,JP87*%
X145325360Y-132164600D02*
X145325360Y-130764600D01*
X146025360Y-130064600D02*
X146625360Y-130064600D01*
X146625360Y-132864600D02*
X146025360Y-132864600D01*
X147325360Y-130764600D02*
X147325360Y-132164600D01*
X145325360Y-130764600D02*
G75*
G02*
X146025360Y-130064600I699999J1D01*
G01*
X146025360Y-132864600D02*
G75*
G02*
X145325360Y-132164600I0J700000D01*
G01*
X146625360Y-130064600D02*
G75*
G02*
X147325360Y-130764600I1J-699999D01*
G01*
X147325360Y-132164600D02*
G75*
G02*
X146625360Y-132864600I-700000J0D01*
G01*
%TO.C,JP86*%
X148121496Y-132164600D02*
X148121496Y-130764600D01*
X148821496Y-130064600D02*
X149421496Y-130064600D01*
X149421496Y-132864600D02*
X148821496Y-132864600D01*
X150121496Y-130764600D02*
X150121496Y-132164600D01*
X148121496Y-130764600D02*
G75*
G02*
X148821496Y-130064600I699999J1D01*
G01*
X148821496Y-132864600D02*
G75*
G02*
X148121496Y-132164600I0J700000D01*
G01*
X149421496Y-130064600D02*
G75*
G02*
X150121496Y-130764600I1J-699999D01*
G01*
X150121496Y-132164600D02*
G75*
G02*
X149421496Y-132864600I-700000J0D01*
G01*
%TO.C,JP54*%
X120160136Y-132210800D02*
X120160136Y-130810800D01*
X120860136Y-130110800D02*
X121460136Y-130110800D01*
X121460136Y-132910800D02*
X120860136Y-132910800D01*
X122160136Y-130810800D02*
X122160136Y-132210800D01*
X120160136Y-130810800D02*
G75*
G02*
X120860136Y-130110800I699999J1D01*
G01*
X120860136Y-132910800D02*
G75*
G02*
X120160136Y-132210800I0J700000D01*
G01*
X121460136Y-130110800D02*
G75*
G02*
X122160136Y-130810800I1J-699999D01*
G01*
X122160136Y-132210800D02*
G75*
G02*
X121460136Y-132910800I-700000J0D01*
G01*
%TO.C,JP72*%
X178878992Y-132139200D02*
X178878992Y-130739200D01*
X179578992Y-130039200D02*
X180178992Y-130039200D01*
X180178992Y-132839200D02*
X179578992Y-132839200D01*
X180878992Y-130739200D02*
X180878992Y-132139200D01*
X178878992Y-130739200D02*
G75*
G02*
X179578992Y-130039200I699999J1D01*
G01*
X179578992Y-132839200D02*
G75*
G02*
X178878992Y-132139200I0J700000D01*
G01*
X180178992Y-130039200D02*
G75*
G02*
X180878992Y-130739200I1J-699999D01*
G01*
X180878992Y-132139200D02*
G75*
G02*
X180178992Y-132839200I-700000J0D01*
G01*
%TO.C,JP73*%
X176082856Y-132139200D02*
X176082856Y-130739200D01*
X176782856Y-130039200D02*
X177382856Y-130039200D01*
X177382856Y-132839200D02*
X176782856Y-132839200D01*
X178082856Y-130739200D02*
X178082856Y-132139200D01*
X176082856Y-130739200D02*
G75*
G02*
X176782856Y-130039200I699999J1D01*
G01*
X176782856Y-132839200D02*
G75*
G02*
X176082856Y-132139200I0J700000D01*
G01*
X177382856Y-130039200D02*
G75*
G02*
X178082856Y-130739200I1J-699999D01*
G01*
X178082856Y-132139200D02*
G75*
G02*
X177382856Y-132839200I-700000J0D01*
G01*
%TO.C,JP59*%
X152532400Y-47552600D02*
X152532400Y-46152600D01*
X153232400Y-45452600D02*
X153832400Y-45452600D01*
X153832400Y-48252600D02*
X153232400Y-48252600D01*
X154532400Y-46152600D02*
X154532400Y-47552600D01*
X152532400Y-46152600D02*
G75*
G02*
X153232400Y-45452600I700000J0D01*
G01*
X153232400Y-48252600D02*
G75*
G02*
X152532400Y-47552600I-1J699999D01*
G01*
X153832400Y-45452600D02*
G75*
G02*
X154532400Y-46152600I0J-700000D01*
G01*
X154532400Y-47552600D02*
G75*
G02*
X153832400Y-48252600I-699999J-1D01*
G01*
%TO.C,JP61*%
X145432400Y-47552600D02*
X145432400Y-46152600D01*
X146132400Y-45452600D02*
X146732400Y-45452600D01*
X146732400Y-48252600D02*
X146132400Y-48252600D01*
X147432400Y-46152600D02*
X147432400Y-47552600D01*
X145432400Y-46152600D02*
G75*
G02*
X146132400Y-45452600I700000J0D01*
G01*
X146132400Y-48252600D02*
G75*
G02*
X145432400Y-47552600I-1J699999D01*
G01*
X146732400Y-45452600D02*
G75*
G02*
X147432400Y-46152600I0J-700000D01*
G01*
X147432400Y-47552600D02*
G75*
G02*
X146732400Y-48252600I-699999J-1D01*
G01*
%TO.C,JP85*%
X142529224Y-132261600D02*
X142529224Y-130861600D01*
X143229224Y-130161600D02*
X143829224Y-130161600D01*
X143829224Y-132961600D02*
X143229224Y-132961600D01*
X144529224Y-130861600D02*
X144529224Y-132261600D01*
X142529224Y-130861600D02*
G75*
G02*
X143229224Y-130161600I699999J1D01*
G01*
X143229224Y-132961600D02*
G75*
G02*
X142529224Y-132261600I0J700000D01*
G01*
X143829224Y-130161600D02*
G75*
G02*
X144529224Y-130861600I1J-699999D01*
G01*
X144529224Y-132261600D02*
G75*
G02*
X143829224Y-132961600I-700000J0D01*
G01*
%TO.C,JP70*%
X113833400Y-47781200D02*
X113833400Y-46381200D01*
X114533400Y-45681200D02*
X115133400Y-45681200D01*
X115133400Y-48481200D02*
X114533400Y-48481200D01*
X115833400Y-46381200D02*
X115833400Y-47781200D01*
X113833400Y-46381200D02*
G75*
G02*
X114533400Y-45681200I700000J0D01*
G01*
X114533400Y-48481200D02*
G75*
G02*
X113833400Y-47781200I-1J699999D01*
G01*
X115133400Y-45681200D02*
G75*
G02*
X115833400Y-46381200I0J-700000D01*
G01*
X115833400Y-47781200D02*
G75*
G02*
X115133400Y-48481200I-699999J-1D01*
G01*
%TO.C,JP62*%
X141882400Y-47552600D02*
X141882400Y-46152600D01*
X142582400Y-45452600D02*
X143182400Y-45452600D01*
X143182400Y-48252600D02*
X142582400Y-48252600D01*
X143882400Y-46152600D02*
X143882400Y-47552600D01*
X141882400Y-46152600D02*
G75*
G02*
X142582400Y-45452600I700000J0D01*
G01*
X142582400Y-48252600D02*
G75*
G02*
X141882400Y-47552600I-1J699999D01*
G01*
X143182400Y-45452600D02*
G75*
G02*
X143882400Y-46152600I0J-700000D01*
G01*
X143882400Y-47552600D02*
G75*
G02*
X143182400Y-48252600I-699999J-1D01*
G01*
%TO.C,JP50*%
X131344680Y-132210800D02*
X131344680Y-130810800D01*
X132044680Y-130110800D02*
X132644680Y-130110800D01*
X132644680Y-132910800D02*
X132044680Y-132910800D01*
X133344680Y-130810800D02*
X133344680Y-132210800D01*
X131344680Y-130810800D02*
G75*
G02*
X132044680Y-130110800I699999J1D01*
G01*
X132044680Y-132910800D02*
G75*
G02*
X131344680Y-132210800I0J700000D01*
G01*
X132644680Y-130110800D02*
G75*
G02*
X133344680Y-130810800I1J-699999D01*
G01*
X133344680Y-132210800D02*
G75*
G02*
X132644680Y-132910800I-700000J0D01*
G01*
%TO.C,JP53*%
X122956272Y-132210800D02*
X122956272Y-130810800D01*
X123656272Y-130110800D02*
X124256272Y-130110800D01*
X124256272Y-132910800D02*
X123656272Y-132910800D01*
X124956272Y-130810800D02*
X124956272Y-132210800D01*
X122956272Y-130810800D02*
G75*
G02*
X123656272Y-130110800I699999J1D01*
G01*
X123656272Y-132910800D02*
G75*
G02*
X122956272Y-132210800I0J700000D01*
G01*
X124256272Y-130110800D02*
G75*
G02*
X124956272Y-130810800I1J-699999D01*
G01*
X124956272Y-132210800D02*
G75*
G02*
X124256272Y-132910800I-700000J0D01*
G01*
%TO.C,JP63*%
X138332400Y-47552600D02*
X138332400Y-46152600D01*
X139032400Y-45452600D02*
X139632400Y-45452600D01*
X139632400Y-48252600D02*
X139032400Y-48252600D01*
X140332400Y-46152600D02*
X140332400Y-47552600D01*
X138332400Y-46152600D02*
G75*
G02*
X139032400Y-45452600I700000J0D01*
G01*
X139032400Y-48252600D02*
G75*
G02*
X138332400Y-47552600I-1J699999D01*
G01*
X139632400Y-45452600D02*
G75*
G02*
X140332400Y-46152600I0J-700000D01*
G01*
X140332400Y-47552600D02*
G75*
G02*
X139632400Y-48252600I-699999J-1D01*
G01*
%TO.C,JP52*%
X125752408Y-132210800D02*
X125752408Y-130810800D01*
X126452408Y-130110800D02*
X127052408Y-130110800D01*
X127052408Y-132910800D02*
X126452408Y-132910800D01*
X127752408Y-130810800D02*
X127752408Y-132210800D01*
X125752408Y-130810800D02*
G75*
G02*
X126452408Y-130110800I699999J1D01*
G01*
X126452408Y-132910800D02*
G75*
G02*
X125752408Y-132210800I0J700000D01*
G01*
X127052408Y-130110800D02*
G75*
G02*
X127752408Y-130810800I1J-699999D01*
G01*
X127752408Y-132210800D02*
G75*
G02*
X127052408Y-132910800I-700000J0D01*
G01*
%TO.C,JP14*%
X170490584Y-132113800D02*
X170490584Y-130713800D01*
X171190584Y-130013800D02*
X171790584Y-130013800D01*
X171790584Y-132813800D02*
X171190584Y-132813800D01*
X172490584Y-130713800D02*
X172490584Y-132113800D01*
X170490584Y-130713800D02*
G75*
G02*
X171190584Y-130013800I699999J1D01*
G01*
X171190584Y-132813800D02*
G75*
G02*
X170490584Y-132113800I0J700000D01*
G01*
X171790584Y-130013800D02*
G75*
G02*
X172490584Y-130713800I1J-699999D01*
G01*
X172490584Y-132113800D02*
G75*
G02*
X171790584Y-132813800I-700000J0D01*
G01*
%TO.C,JP77*%
X162102176Y-132164600D02*
X162102176Y-130764600D01*
X162802176Y-130064600D02*
X163402176Y-130064600D01*
X163402176Y-132864600D02*
X162802176Y-132864600D01*
X164102176Y-130764600D02*
X164102176Y-132164600D01*
X162102176Y-130764600D02*
G75*
G02*
X162802176Y-130064600I699999J1D01*
G01*
X162802176Y-132864600D02*
G75*
G02*
X162102176Y-132164600I0J700000D01*
G01*
X163402176Y-130064600D02*
G75*
G02*
X164102176Y-130764600I1J-699999D01*
G01*
X164102176Y-132164600D02*
G75*
G02*
X163402176Y-132864600I-700000J0D01*
G01*
%TO.C,JP74*%
X173286720Y-132139200D02*
X173286720Y-130739200D01*
X173986720Y-130039200D02*
X174586720Y-130039200D01*
X174586720Y-132839200D02*
X173986720Y-132839200D01*
X175286720Y-130739200D02*
X175286720Y-132139200D01*
X173286720Y-130739200D02*
G75*
G02*
X173986720Y-130039200I699999J1D01*
G01*
X173986720Y-132839200D02*
G75*
G02*
X173286720Y-132139200I0J700000D01*
G01*
X174586720Y-130039200D02*
G75*
G02*
X175286720Y-130739200I1J-699999D01*
G01*
X175286720Y-132139200D02*
G75*
G02*
X174586720Y-132839200I-700000J0D01*
G01*
%TO.C,JP81*%
X150917632Y-132164600D02*
X150917632Y-130764600D01*
X151617632Y-130064600D02*
X152217632Y-130064600D01*
X152217632Y-132864600D02*
X151617632Y-132864600D01*
X152917632Y-130764600D02*
X152917632Y-132164600D01*
X150917632Y-130764600D02*
G75*
G02*
X151617632Y-130064600I699999J1D01*
G01*
X151617632Y-132864600D02*
G75*
G02*
X150917632Y-132164600I0J700000D01*
G01*
X152217632Y-130064600D02*
G75*
G02*
X152917632Y-130764600I1J-699999D01*
G01*
X152917632Y-132164600D02*
G75*
G02*
X152217632Y-132864600I-700000J0D01*
G01*
%TO.C,JP76*%
X164898312Y-132154200D02*
X164898312Y-130754200D01*
X165598312Y-130054200D02*
X166198312Y-130054200D01*
X166198312Y-132854200D02*
X165598312Y-132854200D01*
X166898312Y-130754200D02*
X166898312Y-132154200D01*
X164898312Y-130754200D02*
G75*
G02*
X165598312Y-130054200I699999J1D01*
G01*
X165598312Y-132854200D02*
G75*
G02*
X164898312Y-132154200I0J700000D01*
G01*
X166198312Y-130054200D02*
G75*
G02*
X166898312Y-130754200I1J-699999D01*
G01*
X166898312Y-132154200D02*
G75*
G02*
X166198312Y-132854200I-700000J0D01*
G01*
%TO.C,JP69*%
X117383400Y-47781200D02*
X117383400Y-46381200D01*
X118083400Y-45681200D02*
X118683400Y-45681200D01*
X118683400Y-48481200D02*
X118083400Y-48481200D01*
X119383400Y-46381200D02*
X119383400Y-47781200D01*
X117383400Y-46381200D02*
G75*
G02*
X118083400Y-45681200I700000J0D01*
G01*
X118083400Y-48481200D02*
G75*
G02*
X117383400Y-47781200I-1J699999D01*
G01*
X118683400Y-45681200D02*
G75*
G02*
X119383400Y-46381200I0J-700000D01*
G01*
X119383400Y-47781200D02*
G75*
G02*
X118683400Y-48481200I-699999J-1D01*
G01*
%TO.C,JP48*%
X136936952Y-132210800D02*
X136936952Y-130810800D01*
X137636952Y-130110800D02*
X138236952Y-130110800D01*
X138236952Y-132910800D02*
X137636952Y-132910800D01*
X138936952Y-130810800D02*
X138936952Y-132210800D01*
X136936952Y-130810800D02*
G75*
G02*
X137636952Y-130110800I699999J1D01*
G01*
X137636952Y-132910800D02*
G75*
G02*
X136936952Y-132210800I0J700000D01*
G01*
X138236952Y-130110800D02*
G75*
G02*
X138936952Y-130810800I1J-699999D01*
G01*
X138936952Y-132210800D02*
G75*
G02*
X138236952Y-132910800I-700000J0D01*
G01*
%TO.C,JP79*%
X156509904Y-132164600D02*
X156509904Y-130764600D01*
X157209904Y-130064600D02*
X157809904Y-130064600D01*
X157809904Y-132864600D02*
X157209904Y-132864600D01*
X158509904Y-130764600D02*
X158509904Y-132164600D01*
X156509904Y-130764600D02*
G75*
G02*
X157209904Y-130064600I699999J1D01*
G01*
X157209904Y-132864600D02*
G75*
G02*
X156509904Y-132164600I0J700000D01*
G01*
X157809904Y-130064600D02*
G75*
G02*
X158509904Y-130764600I1J-699999D01*
G01*
X158509904Y-132164600D02*
G75*
G02*
X157809904Y-132864600I-700000J0D01*
G01*
%TO.C,JP47*%
X139733088Y-132210800D02*
X139733088Y-130810800D01*
X140433088Y-130110800D02*
X141033088Y-130110800D01*
X141033088Y-132910800D02*
X140433088Y-132910800D01*
X141733088Y-130810800D02*
X141733088Y-132210800D01*
X139733088Y-130810800D02*
G75*
G02*
X140433088Y-130110800I699999J1D01*
G01*
X140433088Y-132910800D02*
G75*
G02*
X139733088Y-132210800I0J700000D01*
G01*
X141033088Y-130110800D02*
G75*
G02*
X141733088Y-130810800I1J-699999D01*
G01*
X141733088Y-132210800D02*
G75*
G02*
X141033088Y-132910800I-700000J0D01*
G01*
%TO.C,JP64*%
X134782400Y-47552600D02*
X134782400Y-46152600D01*
X135482400Y-45452600D02*
X136082400Y-45452600D01*
X136082400Y-48252600D02*
X135482400Y-48252600D01*
X136782400Y-46152600D02*
X136782400Y-47552600D01*
X134782400Y-46152600D02*
G75*
G02*
X135482400Y-45452600I700000J0D01*
G01*
X135482400Y-48252600D02*
G75*
G02*
X134782400Y-47552600I-1J699999D01*
G01*
X136082400Y-45452600D02*
G75*
G02*
X136782400Y-46152600I0J-700000D01*
G01*
X136782400Y-47552600D02*
G75*
G02*
X136082400Y-48252600I-699999J-1D01*
G01*
%TD*%
M02*
